{"glyphs":{"0":{"ha":681,"x_min":56,"x_max":625,"o":"m 340 -15 q 194 27 258 -15 q 92 142 129 69 q 56 308 56 215 q 93 474 56 401 q 195 588 131 546 q 340 631 260 631 q 486 588 422 631 q 588 474 550 546 q 625 308 625 401 q 588 142 625 215 q 487 27 551 69 q 340 -15 422 -15 m 340 19 q 472 90 431 19 q 514 308 514 161 q 472 526 514 457 q 340 596 431 596 q 209 526 251 596 q 167 308 167 457 q 209 90 167 161 q 340 19 251 19 z "},"1":{"ha":425,"x_min":42,"x_max":383,"o":"m 42 -4 l 42 28 l 64 31 q 131 47 110 36 q 158 85 151 57 q 164 168 164 113 l 164 439 q 139 531 164 507 q 47 554 114 556 l 47 596 q 122 599 85 596 q 192 611 160 603 q 247 631 225 619 l 261 631 l 261 168 q 267 85 261 113 q 295 47 274 57 q 361 31 317 36 l 383 28 l 383 -4 l 213 0 l 42 -4 z "},"2":{"ha":597,"x_min":56,"x_max":514,"o":"m 463 -118 l 460 -97 q 442 -34 454 -54 q 401 -7 431 -14 q 313 0 372 0 l 103 0 l 103 26 l 194 115 q 324 250 279 197 q 386 344 369 303 q 403 433 403 386 q 363 547 403 504 q 256 589 322 589 q 142 549 186 589 q 99 447 99 510 q 123 372 99 408 q 182 324 147 336 l 168 293 q 86 357 117 314 q 56 451 56 400 q 85 543 56 503 q 164 607 114 583 q 278 631 214 631 q 449 581 385 631 q 514 450 514 532 q 460 314 514 386 q 281 140 406 242 l 179 58 l 167 85 l 504 107 l 497 49 l 496 -118 l 463 -118 z "},"3":{"ha":631,"x_min":14,"x_max":561,"o":"m 257 -311 q 135 -291 190 -311 q 47 -236 79 -271 q 14 -160 14 -201 q 33 -106 14 -128 q 82 -85 51 -85 q 125 -101 108 -85 q 142 -144 142 -118 q 141 -160 142 -151 q 138 -176 140 -169 q 132 -208 132 -199 q 161 -256 132 -239 q 238 -274 190 -274 q 388 -206 332 -274 q 443 -25 443 -139 q 405 114 443 67 q 293 161 367 161 q 235 154 264 161 q 188 135 207 147 l 172 171 q 349 291 283 218 q 414 442 414 364 q 372 547 414 507 q 261 588 329 588 q 146 547 192 588 q 100 444 100 506 q 151 338 100 378 l 131 310 q 57 447 57 360 q 88 542 57 501 q 172 607 118 583 q 293 631 225 631 q 413 607 361 631 q 495 542 465 583 q 525 447 525 501 q 490 344 525 393 q 369 246 454 294 l 240 172 l 240 192 q 267 196 251 194 q 301 197 283 197 q 439 168 381 197 q 529 86 497 139 q 561 -39 561 33 q 522 -179 561 -118 q 414 -276 482 -240 q 257 -311 346 -311 z "},"4":{"ha":767,"x_min":63,"x_max":736,"o":"m 347 -294 l 347 -262 l 369 -260 q 436 -244 415 -254 q 464 -204 457 -233 q 471 -117 471 -175 l 475 524 l 500 514 l 89 11 l 93 56 l 488 56 l 488 0 l 63 0 l 63 42 l 539 631 l 567 631 l 567 -117 q 573 -205 567 -176 q 601 -244 579 -233 q 667 -261 622 -256 l 689 -264 l 689 -294 l 518 -292 l 347 -294 m 551 0 l 551 56 l 736 56 l 736 0 l 551 0 z "},"5":{"ha":651,"x_min":28,"x_max":582,"o":"m 261 -311 q 143 -290 196 -311 q 59 -231 90 -268 q 28 -149 28 -194 q 49 -88 28 -112 q 101 -64 69 -64 q 144 -78 128 -64 q 161 -117 161 -93 q 160 -130 161 -122 q 154 -153 158 -137 q 149 -174 150 -165 q 147 -190 147 -182 q 178 -249 147 -226 q 258 -272 210 -272 q 366 -237 319 -272 q 439 -138 413 -201 q 465 7 465 -75 q 423 163 465 108 q 303 218 381 218 q 211 192 250 218 q 142 121 172 165 l 117 121 l 156 646 l 192 646 l 154 161 l 138 175 q 216 242 169 218 q 324 265 263 265 q 460 233 401 265 q 550 144 518 201 q 582 8 582 86 q 540 -154 582 -82 q 425 -269 497 -226 q 261 -311 353 -311 m 158 504 l 165 606 l 317 606 q 449 612 403 606 q 519 632 494 618 l 532 632 l 532 617 q 472 529 532 554 q 264 504 413 504 l 158 504 z "},"6":{"ha":682,"x_min":69,"x_max":633,"o":"m 350 -15 q 140 96 211 -15 q 69 425 69 207 q 110 679 69 565 q 231 860 151 793 q 424 926 310 926 q 543 899 497 926 q 589 828 589 872 q 572 782 589 800 q 526 764 554 764 q 490 775 506 764 q 468 804 475 786 l 461 824 q 383 889 439 889 q 291 846 332 889 q 224 731 250 803 q 185 572 197 660 q 179 396 174 485 l 164 417 q 253 529 196 490 q 388 568 311 568 q 515 532 460 568 q 602 433 571 496 q 633 286 633 369 q 597 129 633 197 q 498 23 561 61 q 350 -15 435 -15 m 349 19 q 440 53 401 19 q 501 150 479 88 q 522 296 522 213 q 483 470 522 408 q 371 532 443 532 q 240 458 290 532 q 190 263 190 383 q 210 133 190 188 q 265 49 229 78 q 349 19 300 19 z "},"7":{"ha":610,"x_min":42,"x_max":568,"o":"m 235 -311 q 195 -295 210 -311 q 179 -253 181 -279 q 192 -196 178 -226 l 525 532 l 525 506 l 50 506 l 50 606 l 568 606 l 568 583 l 311 -233 q 281 -292 299 -274 q 235 -311 263 -311 m 42 353 l 42 675 l 72 675 l 72 353 l 42 353 z "},"8":{"ha":682,"x_min":69,"x_max":613,"o":"m 317 -15 q 138 44 206 -15 q 69 200 69 103 q 89 290 69 247 q 153 377 108 332 q 271 478 197 422 l 306 454 q 167 323 208 382 q 125 201 125 264 q 177 81 125 125 q 318 36 229 36 q 465 80 407 36 q 522 192 522 124 q 505 257 522 225 q 449 325 488 289 q 343 408 410 361 l 232 488 q 134 590 168 532 q 100 711 100 647 q 132 822 100 774 q 220 899 164 871 q 349 926 276 926 q 507 875 447 926 q 567 739 567 824 q 527 622 567 675 q 397 507 488 568 l 364 532 q 476 635 440 585 q 511 739 511 686 q 469 838 511 800 q 358 875 426 875 q 244 838 290 875 q 199 743 199 800 q 228 663 199 701 q 325 575 257 624 l 433 496 q 540 406 501 446 q 596 329 579 367 q 613 247 613 292 q 574 113 613 172 q 468 19 535 54 q 317 -15 401 -15 z "},"9":{"ha":682,"x_min":49,"x_max":613,"o":"m 332 631 q 542 519 472 631 q 613 190 613 408 q 572 -64 613 50 q 452 -244 531 -178 q 258 -311 374 -311 q 139 -283 185 -311 q 93 -212 93 -256 q 111 -167 93 -185 q 156 -149 129 -149 q 192 -159 176 -149 q 214 -189 208 -169 l 221 -208 q 299 -274 243 -274 q 392 -231 351 -274 q 458 -116 432 -187 q 497 43 485 -44 q 503 219 508 131 l 518 199 q 429 86 488 125 q 294 47 371 47 q 167 83 222 47 q 80 183 111 119 q 49 329 49 246 q 85 487 49 419 q 185 592 121 554 q 332 631 249 631 m 333 596 q 242 562 281 596 q 181 466 203 528 q 160 319 160 404 q 199 145 160 207 q 311 83 239 83 q 442 158 393 83 q 492 353 492 232 q 472 483 492 428 q 417 567 453 538 q 333 596 382 596 z "},"A":{"ha":1035,"x_min":-21,"x_max":1056,"o":"m -21 -4 l -21 31 l -8 32 q 74 51 42 38 q 128 94 106 65 q 169 171 150 122 l 508 993 l 550 993 l 881 171 q 942 69 910 99 q 1028 33 975 39 l 1056 31 l 1056 -4 l 883 0 l 661 -4 l 661 31 l 689 33 q 773 70 758 40 q 760 172 788 100 l 479 879 l 513 879 l 221 172 q 199 92 200 121 q 221 51 197 64 q 296 33 244 39 l 324 31 l 324 -4 l 147 0 l -21 -4 m 289 353 l 307 397 l 679 397 l 696 353 l 289 353 z "},"Á":{"ha":1035,"x_min":-21,"x_max":1056,"o":"m -21 -4 l -21 31 l -8 32 q 74 51 42 38 q 128 94 106 65 q 169 171 150 122 l 508 993 l 550 993 l 881 171 q 942 69 910 99 q 1028 33 975 39 l 1056 31 l 1056 -4 l 883 0 l 661 -4 l 661 31 l 689 33 q 773 70 758 40 q 760 172 788 100 l 479 879 l 513 879 l 221 172 q 199 92 200 121 q 221 51 197 64 q 296 33 244 39 l 324 31 l 324 -4 l 147 0 l -21 -4 m 289 353 l 307 397 l 679 397 l 696 353 l 289 353 m 499 1056 l 535 1306 l 647 1306 l 515 1056 l 499 1056 z "},"Ă":{"ha":1035,"x_min":-21,"x_max":1056,"o":"m -21 -4 l -21 31 l -8 32 q 74 51 42 38 q 128 94 106 65 q 169 171 150 122 l 508 993 l 550 993 l 881 171 q 942 69 910 99 q 1028 33 975 39 l 1056 31 l 1056 -4 l 883 0 l 661 -4 l 661 31 l 689 33 q 773 70 758 40 q 760 172 788 100 l 479 879 l 513 879 l 221 172 q 199 92 200 121 q 221 51 197 64 q 296 33 244 39 l 324 31 l 324 -4 l 147 0 l -21 -4 m 289 353 l 307 397 l 679 397 l 696 353 l 289 353 m 529 1078 q 424 1124 460 1078 q 389 1239 389 1171 l 389 1285 l 424 1285 l 424 1278 q 451 1185 424 1210 q 529 1161 479 1161 q 607 1185 579 1161 q 635 1278 635 1210 l 635 1285 l 669 1285 l 669 1239 q 634 1124 669 1171 q 529 1078 599 1078 z "},"Ǎ":{"ha":1035,"x_min":-21,"x_max":1056,"o":"m -21 -4 l -21 31 l -8 32 q 74 51 42 38 q 128 94 106 65 q 169 171 150 122 l 508 993 l 550 993 l 881 171 q 942 69 910 99 q 1028 33 975 39 l 1056 31 l 1056 -4 l 883 0 l 661 -4 l 661 31 l 689 33 q 773 70 758 40 q 760 172 788 100 l 479 879 l 513 879 l 221 172 q 199 92 200 121 q 221 51 197 64 q 296 33 244 39 l 324 31 l 324 -4 l 147 0 l -21 -4 m 289 353 l 307 397 l 679 397 l 696 353 l 289 353 m 515 1056 l 385 1306 l 418 1306 l 526 1176 l 535 1176 l 643 1306 l 676 1306 l 546 1056 l 515 1056 z "},"Â":{"ha":1035,"x_min":-21,"x_max":1056,"o":"m -21 -4 l -21 31 l -8 32 q 74 51 42 38 q 128 94 106 65 q 169 171 150 122 l 508 993 l 550 993 l 881 171 q 942 69 910 99 q 1028 33 975 39 l 1056 31 l 1056 -4 l 883 0 l 661 -4 l 661 31 l 689 33 q 773 70 758 40 q 760 172 788 100 l 479 879 l 513 879 l 221 172 q 199 92 200 121 q 221 51 197 64 q 296 33 244 39 l 324 31 l 324 -4 l 147 0 l -21 -4 m 289 353 l 307 397 l 679 397 l 696 353 l 289 353 m 382 1057 l 513 1306 l 543 1306 l 674 1057 l 640 1057 l 532 1185 l 524 1185 l 415 1057 l 382 1057 z "},"Ä":{"ha":1035,"x_min":-21,"x_max":1056,"o":"m -21 -4 l -21 31 l -8 32 q 74 51 42 38 q 128 94 106 65 q 169 171 150 122 l 508 993 l 550 993 l 881 171 q 942 69 910 99 q 1028 33 975 39 l 1056 31 l 1056 -4 l 883 0 l 661 -4 l 661 31 l 689 33 q 773 70 758 40 q 760 172 788 100 l 479 879 l 513 879 l 221 172 q 199 92 200 121 q 221 51 197 64 q 296 33 244 39 l 324 31 l 324 -4 l 147 0 l -21 -4 m 289 353 l 307 397 l 679 397 l 696 353 l 289 353 m 397 1101 q 345 1124 364 1101 q 326 1181 326 1147 q 345 1235 326 1213 q 397 1258 364 1258 q 450 1235 433 1258 q 467 1181 467 1213 q 450 1124 467 1147 q 397 1101 433 1101 m 661 1101 q 609 1124 628 1101 q 590 1181 590 1147 q 609 1235 590 1213 q 661 1258 628 1258 q 714 1235 697 1258 q 731 1181 731 1213 q 714 1124 731 1147 q 661 1101 697 1101 z "},"À":{"ha":1035,"x_min":-21,"x_max":1056,"o":"m -21 -4 l -21 31 l -8 32 q 74 51 42 38 q 128 94 106 65 q 169 171 150 122 l 508 993 l 550 993 l 881 171 q 942 69 910 99 q 1028 33 975 39 l 1056 31 l 1056 -4 l 883 0 l 661 -4 l 661 31 l 689 33 q 773 70 758 40 q 760 172 788 100 l 479 879 l 513 879 l 221 172 q 199 92 200 121 q 221 51 197 64 q 296 33 244 39 l 324 31 l 324 -4 l 147 0 l -21 -4 m 289 353 l 307 397 l 679 397 l 696 353 l 289 353 m 560 1056 l 543 1056 l 411 1306 l 524 1306 l 560 1056 z "},"Ā":{"ha":1035,"x_min":-21,"x_max":1056,"o":"m -21 -4 l -21 31 l -8 32 q 74 51 42 38 q 128 94 106 65 q 169 171 150 122 l 508 993 l 550 993 l 881 171 q 942 69 910 99 q 1028 33 975 39 l 1056 31 l 1056 -4 l 883 0 l 661 -4 l 661 31 l 689 33 q 773 70 758 40 q 760 172 788 100 l 479 879 l 513 879 l 221 172 q 199 92 200 121 q 221 51 197 64 q 296 33 244 39 l 324 31 l 324 -4 l 147 0 l -21 -4 m 289 353 l 307 397 l 679 397 l 696 353 l 289 353 m 372 1153 l 372 1208 l 688 1208 l 688 1153 l 372 1153 z "},"Ą":{"ha":1035,"x_min":-21,"x_max":1056,"o":"m 715 -408 q 602 -366 646 -408 q 558 -256 558 -324 q 570 -190 558 -224 q 610 -117 582 -157 q 685 -24 638 -76 q 744 58 726 24 q 762 126 763 92 q 743 204 761 160 l 482 879 l 514 879 l 226 172 q 210 70 196 100 q 296 33 225 40 l 324 31 l 324 -4 l 147 0 l -21 -4 l -21 31 l -8 32 q 74 51 42 38 q 128 94 106 65 q 169 171 150 122 l 508 993 l 550 993 l 881 171 q 942 69 910 99 q 1028 33 975 39 l 1056 31 l 1056 -4 l 892 0 l 854 0 q 747 -32 797 0 q 664 -115 696 -64 q 632 -224 632 -167 q 659 -303 632 -275 q 733 -332 686 -332 q 865 -236 819 -332 l 889 -253 q 826 -369 871 -329 q 715 -408 781 -408 m 289 354 l 307 397 l 679 397 l 696 354 l 289 354 z "},"Å":{"ha":1035,"x_min":-21,"x_max":1056,"o":"m -21 -4 l -21 31 l -8 32 q 74 51 42 38 q 128 94 106 65 q 169 171 150 122 l 508 993 l 550 993 l 881 171 q 942 69 910 99 q 1028 33 975 39 l 1056 31 l 1056 -4 l 883 0 l 661 -4 l 661 31 l 689 33 q 773 70 758 40 q 760 172 788 100 l 479 879 l 513 879 l 221 172 q 199 92 200 121 q 221 51 197 64 q 296 33 244 39 l 324 31 l 324 -4 l 147 0 l -21 -4 m 289 353 l 307 397 l 679 397 l 696 353 l 289 353 m 532 986 q 445 1021 478 986 q 413 1104 413 1056 q 443 1185 413 1149 q 531 1222 474 1222 q 598 1203 572 1222 q 635 1158 624 1185 q 647 1104 647 1131 q 630 1038 647 1064 q 586 999 613 1011 q 532 986 560 986 m 532 1029 q 580 1048 558 1029 q 601 1104 601 1067 q 580 1160 601 1140 q 531 1179 558 1179 q 483 1162 507 1179 q 458 1104 458 1144 q 481 1049 458 1069 q 532 1029 503 1029 z "},"Ǻ":{"ha":1035,"x_min":-21,"x_max":1056,"o":"m -21 -4 l -21 31 l -8 32 q 74 51 42 38 q 128 94 106 65 q 169 171 150 122 l 508 993 l 550 993 l 881 171 q 942 69 910 99 q 1028 33 975 39 l 1056 31 l 1056 -4 l 883 0 l 661 -4 l 661 31 l 689 33 q 773 70 758 40 q 760 172 788 100 l 479 879 l 513 879 l 221 172 q 199 92 200 121 q 221 51 197 64 q 296 33 244 39 l 324 31 l 324 -4 l 147 0 l -21 -4 m 289 353 l 307 397 l 679 397 l 696 353 l 289 353 m 532 986 q 445 1021 478 986 q 413 1104 413 1056 q 443 1185 413 1149 q 531 1222 474 1222 q 598 1203 572 1222 q 635 1158 624 1185 q 647 1104 647 1131 q 630 1038 647 1064 q 586 999 613 1011 q 532 986 560 986 m 532 1029 q 580 1048 558 1029 q 601 1104 601 1067 q 580 1160 601 1140 q 531 1179 558 1179 q 483 1162 507 1179 q 458 1104 458 1144 q 481 1049 458 1069 q 532 1029 503 1029 m 501 1264 l 538 1514 l 650 1514 l 518 1264 l 501 1264 z "},"Ã":{"ha":1035,"x_min":-21,"x_max":1056,"o":"m -21 -4 l -21 31 l -8 32 q 74 51 42 38 q 128 94 106 65 q 169 171 150 122 l 508 993 l 550 993 l 881 171 q 942 69 910 99 q 1028 33 975 39 l 1056 31 l 1056 -4 l 883 0 l 661 -4 l 661 31 l 689 33 q 773 70 758 40 q 760 172 788 100 l 479 879 l 513 879 l 221 172 q 199 92 200 121 q 221 51 197 64 q 296 33 244 39 l 324 31 l 324 -4 l 147 0 l -21 -4 m 289 353 l 307 397 l 679 397 l 696 353 l 289 353 m 635 1100 q 583 1113 608 1100 q 540 1135 558 1125 l 504 1157 q 459 1183 479 1172 q 419 1193 439 1193 q 367 1167 389 1193 q 338 1115 344 1140 l 311 1115 q 324 1170 311 1136 q 363 1232 336 1204 q 431 1260 389 1260 q 483 1246 457 1260 q 524 1224 510 1232 l 575 1193 q 607 1177 586 1188 q 646 1167 628 1167 q 692 1188 674 1167 q 721 1238 711 1208 l 747 1238 q 708 1138 740 1175 q 635 1100 676 1100 z "},"Æ":{"ha":1413,"x_min":-21,"x_max":1357,"o":"m -21 -4 l -21 26 l 15 31 q 72 43 47 35 q 119 67 97 51 q 160 108 140 82 q 203 171 181 133 l 604 838 q 636 896 628 878 q 644 926 644 914 q 600 956 644 953 l 550 958 l 550 990 l 701 986 l 1156 986 l 1297 990 l 1300 886 l 1311 758 l 1278 758 q 1253 858 1268 821 q 1210 915 1239 896 q 1132 942 1182 935 q 1001 949 1082 949 l 821 949 l 821 149 q 852 61 821 88 q 956 35 883 35 l 1085 35 q 1223 54 1175 35 q 1292 129 1271 74 q 1322 292 1314 185 l 1357 292 l 1347 125 l 1343 0 l 726 0 l 511 -4 l 511 24 l 611 33 q 668 57 649 38 q 694 128 688 76 q 700 276 700 179 l 700 967 l 722 960 l 250 174 q 221 93 221 128 q 296 31 221 39 l 339 26 l 339 -4 l 163 0 l -21 -4 m 393 431 l 415 467 l 710 467 l 710 431 l 393 431 m 1072 314 q 1049 457 1072 411 q 974 503 1025 503 l 813 503 l 813 538 l 974 538 q 1045 577 1022 538 q 1072 706 1068 617 l 1107 706 l 1103 519 l 1107 314 l 1072 314 z "},"B":{"ha":953,"x_min":56,"x_max":869,"o":"m 56 -4 l 56 31 l 83 33 q 163 50 138 39 q 195 92 188 61 q 203 185 203 122 l 203 801 q 195 894 203 864 q 163 936 188 925 q 83 953 138 947 l 56 956 l 56 990 l 261 986 l 431 986 q 713 928 614 986 q 811 764 811 871 q 753 615 811 678 q 588 519 696 551 l 583 529 q 796 460 722 524 q 869 281 869 396 q 774 74 869 149 q 508 0 678 0 l 261 0 l 56 -4 m 431 39 l 508 39 q 685 95 631 39 q 739 276 739 151 q 713 411 739 363 q 622 479 686 460 q 444 499 558 499 l 307 499 l 307 538 l 500 538 q 635 594 589 538 q 682 760 682 651 q 635 905 682 863 q 472 947 588 947 l 315 947 l 315 179 q 341 71 315 103 q 431 39 367 39 z "},"C":{"ha":1000,"x_min":86,"x_max":903,"o":"m 536 -15 q 302 48 404 -15 q 143 224 200 111 q 86 485 86 338 q 122 692 86 597 q 220 857 157 786 q 369 967 283 928 q 556 1006 454 1006 q 664 992 607 1006 q 772 954 721 979 q 809 938 796 943 q 829 933 822 933 q 853 948 843 933 q 864 986 863 963 l 899 986 l 896 824 l 899 661 l 864 661 q 763 885 843 807 q 553 964 682 964 q 310 842 393 964 q 228 485 228 719 q 543 26 228 26 q 764 108 678 26 q 868 332 850 189 l 901 332 l 899 163 l 903 0 l 869 0 l 865 15 q 825 65 849 65 q 808 61 818 65 q 774 46 797 57 q 653 -1 710 14 q 536 -15 597 -15 z "},"Ć":{"ha":1000,"x_min":86,"x_max":903,"o":"m 536 -15 q 302 48 404 -15 q 143 224 200 111 q 86 485 86 338 q 122 692 86 597 q 220 857 157 786 q 369 967 283 928 q 556 1006 454 1006 q 664 992 607 1006 q 772 954 721 979 q 809 938 796 943 q 829 933 822 933 q 853 948 843 933 q 864 986 863 963 l 899 986 l 896 824 l 899 661 l 864 661 q 763 885 843 807 q 553 964 682 964 q 310 842 393 964 q 228 485 228 719 q 543 26 228 26 q 764 108 678 26 q 868 332 850 189 l 901 332 l 899 163 l 903 0 l 869 0 l 865 15 q 825 65 849 65 q 808 61 818 65 q 774 46 797 57 q 653 -1 710 14 q 536 -15 597 -15 m 517 1056 l 553 1306 l 665 1306 l 533 1056 l 517 1056 z "},"Č":{"ha":1000,"x_min":86,"x_max":903,"o":"m 536 -15 q 302 48 404 -15 q 143 224 200 111 q 86 485 86 338 q 122 692 86 597 q 220 857 157 786 q 369 967 283 928 q 556 1006 454 1006 q 664 992 607 1006 q 772 954 721 979 q 809 938 796 943 q 829 933 822 933 q 853 948 843 933 q 864 986 863 963 l 899 986 l 896 824 l 899 661 l 864 661 q 763 885 843 807 q 553 964 682 964 q 310 842 393 964 q 228 485 228 719 q 543 26 228 26 q 764 108 678 26 q 868 332 850 189 l 901 332 l 899 163 l 903 0 l 869 0 l 865 15 q 825 65 849 65 q 808 61 818 65 q 774 46 797 57 q 653 -1 710 14 q 536 -15 597 -15 m 533 1056 l 403 1306 l 436 1306 l 544 1176 l 553 1176 l 661 1306 l 694 1306 l 564 1056 l 533 1056 z "},"Ç":{"ha":1000,"x_min":86,"x_max":903,"o":"m 536 -15 q 302 48 404 -15 q 143 224 200 111 q 86 485 86 338 q 122 692 86 597 q 220 857 157 786 q 369 967 283 928 q 556 1006 454 1006 q 664 992 607 1006 q 772 954 721 979 q 809 938 796 943 q 829 933 822 933 q 853 948 843 933 q 864 986 863 963 l 899 986 l 896 824 l 899 661 l 864 661 q 763 885 843 807 q 553 964 682 964 q 310 842 393 964 q 228 485 228 719 q 543 26 228 26 q 764 108 678 26 q 868 332 850 189 l 901 332 l 899 163 l 903 0 l 869 0 l 865 15 q 825 65 849 65 q 808 61 818 65 q 774 46 797 57 q 653 -1 710 14 q 536 -15 597 -15 m 479 -406 q 381 -369 417 -406 q 336 -292 346 -332 l 367 -282 q 401 -340 374 -314 q 471 -367 428 -367 q 544 -324 519 -367 q 569 -231 569 -281 q 545 -148 569 -182 q 475 -114 521 -114 q 428 -130 451 -114 q 389 -169 404 -146 l 361 -151 q 420 -94 383 -112 q 497 -79 457 -76 q 569 -101 538 -81 q 621 -157 601 -122 q 640 -235 640 -192 q 618 -324 640 -286 q 559 -384 596 -362 q 479 -406 522 -406 m 518 -97 l 479 -93 l 511 0 l 553 0 l 518 -97 z "},"Ċ":{"ha":1000,"x_min":86,"x_max":903,"o":"m 536 -15 q 302 48 404 -15 q 143 224 200 111 q 86 485 86 338 q 122 692 86 597 q 220 857 157 786 q 369 967 283 928 q 556 1006 454 1006 q 664 992 607 1006 q 772 954 721 979 q 809 938 796 943 q 829 933 822 933 q 853 948 843 933 q 864 986 863 963 l 899 986 l 896 824 l 899 661 l 864 661 q 763 885 843 807 q 553 964 682 964 q 310 842 393 964 q 228 485 228 719 q 543 26 228 26 q 764 108 678 26 q 868 332 850 189 l 901 332 l 899 163 l 903 0 l 869 0 l 865 15 q 825 65 849 65 q 808 61 818 65 q 774 46 797 57 q 653 -1 710 14 q 536 -15 597 -15 m 547 1096 q 490 1121 511 1096 q 469 1181 469 1146 q 490 1241 469 1217 q 547 1265 511 1265 q 606 1241 588 1265 q 625 1181 625 1217 q 606 1121 625 1146 q 547 1096 588 1096 z "},"D":{"ha":1128,"x_min":56,"x_max":1042,"o":"m 56 -4 l 56 31 l 83 33 q 163 51 138 39 q 197 93 189 63 q 204 185 204 124 l 204 801 q 197 894 204 864 q 164 936 189 925 q 85 953 139 947 l 57 956 l 57 990 l 263 986 l 458 986 q 1042 511 1042 986 q 978 242 1042 357 q 799 63 914 126 q 528 0 683 0 l 261 0 l 56 -4 m 415 42 l 533 42 q 812 160 715 42 q 908 501 908 278 q 807 835 908 725 q 499 944 706 944 l 324 944 l 324 203 q 345 79 324 117 q 415 42 367 42 z "},"Ď":{"ha":1128,"x_min":56,"x_max":1042,"o":"m 56 -4 l 56 31 l 83 33 q 163 51 138 39 q 197 93 189 63 q 204 185 204 124 l 204 801 q 197 894 204 864 q 164 936 189 925 q 85 953 139 947 l 57 956 l 57 990 l 263 986 l 458 986 q 1042 511 1042 986 q 978 242 1042 357 q 799 63 914 126 q 528 0 683 0 l 261 0 l 56 -4 m 415 42 l 533 42 q 812 160 715 42 q 908 501 908 278 q 807 835 908 725 q 499 944 706 944 l 324 944 l 324 203 q 345 79 324 117 q 415 42 367 42 m 518 1056 l 388 1306 l 421 1306 l 529 1176 l 538 1176 l 646 1306 l 679 1306 l 549 1056 l 518 1056 z "},"Đ":{"ha":1128,"x_min":56,"x_max":1042,"o":"m 57 489 l 57 531 l 592 531 l 592 489 l 57 489 m 56 -4 l 56 31 l 83 33 q 163 51 138 39 q 197 93 189 63 q 204 185 204 124 l 204 801 q 197 894 204 864 q 164 936 189 925 q 85 953 139 947 l 57 956 l 57 990 l 263 986 l 458 986 q 1042 511 1042 986 q 978 242 1042 357 q 799 63 914 126 q 528 0 683 0 l 261 0 l 56 -4 m 415 42 l 533 42 q 812 160 715 42 q 908 501 908 278 q 807 835 908 725 q 499 944 706 944 l 324 944 l 324 203 q 345 79 324 117 q 415 42 367 42 z "},"Ð":{"ha":1128,"x_min":56,"x_max":1042,"o":"m 57 489 l 57 531 l 592 531 l 592 489 l 57 489 m 56 -4 l 56 31 l 83 33 q 163 51 138 39 q 197 93 189 63 q 204 185 204 124 l 204 801 q 197 894 204 864 q 164 936 189 925 q 85 953 139 947 l 57 956 l 57 990 l 263 986 l 458 986 q 1042 511 1042 986 q 978 242 1042 357 q 799 63 914 126 q 528 0 683 0 l 261 0 l 56 -4 m 415 42 l 533 42 q 812 160 715 42 q 908 501 908 278 q 807 835 908 725 q 499 944 706 944 l 324 944 l 324 203 q 345 79 324 117 q 415 42 367 42 z "},"E":{"ha":901,"x_min":56,"x_max":846,"o":"m 56 -4 l 56 31 l 83 33 q 163 51 138 40 q 195 93 188 63 q 203 185 203 124 l 203 801 q 195 894 203 864 q 163 935 188 924 q 83 953 138 947 l 56 956 l 56 990 l 261 986 l 626 986 l 800 990 l 803 886 l 814 758 l 781 758 q 756 856 771 819 q 713 913 742 893 q 635 939 685 932 q 504 946 585 946 l 321 946 l 321 149 q 349 62 321 85 q 458 39 378 39 l 588 39 q 716 58 671 39 q 782 133 761 78 q 811 292 803 188 l 846 292 l 836 125 l 832 0 l 261 0 l 56 -4 m 575 314 q 551 455 575 410 q 476 500 528 500 l 313 500 l 313 539 l 476 539 q 548 578 525 539 q 575 706 571 617 l 610 706 l 606 519 l 610 314 l 575 314 z "},"É":{"ha":901,"x_min":56,"x_max":846,"o":"m 56 -4 l 56 31 l 83 33 q 163 51 138 40 q 195 93 188 63 q 203 185 203 124 l 203 801 q 195 894 203 864 q 163 935 188 924 q 83 953 138 947 l 56 956 l 56 990 l 261 986 l 626 986 l 800 990 l 803 886 l 814 758 l 781 758 q 756 856 771 819 q 713 913 742 893 q 635 939 685 932 q 504 946 585 946 l 321 946 l 321 149 q 349 62 321 85 q 458 39 378 39 l 588 39 q 716 58 671 39 q 782 133 761 78 q 811 292 803 188 l 846 292 l 836 125 l 832 0 l 261 0 l 56 -4 m 575 314 q 551 455 575 410 q 476 500 528 500 l 313 500 l 313 539 l 476 539 q 548 578 525 539 q 575 706 571 617 l 610 706 l 606 519 l 610 314 l 575 314 m 460 1056 l 496 1306 l 608 1306 l 476 1056 l 460 1056 z "},"Ě":{"ha":901,"x_min":56,"x_max":846,"o":"m 56 -4 l 56 31 l 83 33 q 163 51 138 40 q 195 93 188 63 q 203 185 203 124 l 203 801 q 195 894 203 864 q 163 935 188 924 q 83 953 138 947 l 56 956 l 56 990 l 261 986 l 626 986 l 800 990 l 803 886 l 814 758 l 781 758 q 756 856 771 819 q 713 913 742 893 q 635 939 685 932 q 504 946 585 946 l 321 946 l 321 149 q 349 62 321 85 q 458 39 378 39 l 588 39 q 716 58 671 39 q 782 133 761 78 q 811 292 803 188 l 846 292 l 836 125 l 832 0 l 261 0 l 56 -4 m 575 314 q 551 455 575 410 q 476 500 528 500 l 313 500 l 313 539 l 476 539 q 548 578 525 539 q 575 706 571 617 l 610 706 l 606 519 l 610 314 l 575 314 m 476 1056 l 346 1306 l 379 1306 l 488 1176 l 496 1176 l 604 1306 l 638 1306 l 507 1056 l 476 1056 z "},"Ê":{"ha":901,"x_min":56,"x_max":846,"o":"m 56 -4 l 56 31 l 83 33 q 163 51 138 40 q 195 93 188 63 q 203 185 203 124 l 203 801 q 195 894 203 864 q 163 935 188 924 q 83 953 138 947 l 56 956 l 56 990 l 261 986 l 626 986 l 800 990 l 803 886 l 814 758 l 781 758 q 756 856 771 819 q 713 913 742 893 q 635 939 685 932 q 504 946 585 946 l 321 946 l 321 149 q 349 62 321 85 q 458 39 378 39 l 588 39 q 716 58 671 39 q 782 133 761 78 q 811 292 803 188 l 846 292 l 836 125 l 832 0 l 261 0 l 56 -4 m 575 314 q 551 455 575 410 q 476 500 528 500 l 313 500 l 313 539 l 476 539 q 548 578 525 539 q 575 706 571 617 l 610 706 l 606 519 l 610 314 l 575 314 m 343 1057 l 474 1306 l 504 1306 l 635 1057 l 601 1057 l 493 1185 l 485 1185 l 376 1057 l 343 1057 z "},"Ë":{"ha":901,"x_min":56,"x_max":846,"o":"m 56 -4 l 56 31 l 83 33 q 163 51 138 40 q 195 93 188 63 q 203 185 203 124 l 203 801 q 195 894 203 864 q 163 935 188 924 q 83 953 138 947 l 56 956 l 56 990 l 261 986 l 626 986 l 800 990 l 803 886 l 814 758 l 781 758 q 756 856 771 819 q 713 913 742 893 q 635 939 685 932 q 504 946 585 946 l 321 946 l 321 149 q 349 62 321 85 q 458 39 378 39 l 588 39 q 716 58 671 39 q 782 133 761 78 q 811 292 803 188 l 846 292 l 836 125 l 832 0 l 261 0 l 56 -4 m 575 314 q 551 455 575 410 q 476 500 528 500 l 313 500 l 313 539 l 476 539 q 548 578 525 539 q 575 706 571 617 l 610 706 l 606 519 l 610 314 l 575 314 m 358 1101 q 306 1124 325 1101 q 288 1181 288 1147 q 306 1235 288 1213 q 358 1258 325 1258 q 411 1235 394 1258 q 428 1181 428 1213 q 411 1124 428 1147 q 358 1101 394 1101 m 622 1101 q 570 1124 589 1101 q 551 1181 551 1147 q 570 1235 551 1213 q 622 1258 589 1258 q 675 1235 658 1258 q 692 1181 692 1213 q 675 1124 692 1147 q 622 1101 658 1101 z "},"Ė":{"ha":901,"x_min":56,"x_max":846,"o":"m 56 -4 l 56 31 l 83 33 q 163 51 138 40 q 195 93 188 63 q 203 185 203 124 l 203 801 q 195 894 203 864 q 163 935 188 924 q 83 953 138 947 l 56 956 l 56 990 l 261 986 l 626 986 l 800 990 l 803 886 l 814 758 l 781 758 q 756 856 771 819 q 713 913 742 893 q 635 939 685 932 q 504 946 585 946 l 321 946 l 321 149 q 349 62 321 85 q 458 39 378 39 l 588 39 q 716 58 671 39 q 782 133 761 78 q 811 292 803 188 l 846 292 l 836 125 l 832 0 l 261 0 l 56 -4 m 575 314 q 551 455 575 410 q 476 500 528 500 l 313 500 l 313 539 l 476 539 q 548 578 525 539 q 575 706 571 617 l 610 706 l 606 519 l 610 314 l 575 314 m 490 1096 q 433 1121 454 1096 q 413 1181 413 1146 q 433 1241 413 1217 q 490 1265 454 1265 q 549 1241 531 1265 q 568 1181 568 1217 q 549 1121 568 1146 q 490 1096 531 1096 z "},"È":{"ha":901,"x_min":56,"x_max":846,"o":"m 56 -4 l 56 31 l 83 33 q 163 51 138 40 q 195 93 188 63 q 203 185 203 124 l 203 801 q 195 894 203 864 q 163 935 188 924 q 83 953 138 947 l 56 956 l 56 990 l 261 986 l 626 986 l 800 990 l 803 886 l 814 758 l 781 758 q 756 856 771 819 q 713 913 742 893 q 635 939 685 932 q 504 946 585 946 l 321 946 l 321 149 q 349 62 321 85 q 458 39 378 39 l 588 39 q 716 58 671 39 q 782 133 761 78 q 811 292 803 188 l 846 292 l 836 125 l 832 0 l 261 0 l 56 -4 m 575 314 q 551 455 575 410 q 476 500 528 500 l 313 500 l 313 539 l 476 539 q 548 578 525 539 q 575 706 571 617 l 610 706 l 606 519 l 610 314 l 575 314 m 521 1056 l 504 1056 l 372 1306 l 485 1306 l 521 1056 z "},"Ē":{"ha":901,"x_min":56,"x_max":846,"o":"m 56 -4 l 56 31 l 83 33 q 163 51 138 40 q 195 93 188 63 q 203 185 203 124 l 203 801 q 195 894 203 864 q 163 935 188 924 q 83 953 138 947 l 56 956 l 56 990 l 261 986 l 626 986 l 800 990 l 803 886 l 814 758 l 781 758 q 756 856 771 819 q 713 913 742 893 q 635 939 685 932 q 504 946 585 946 l 321 946 l 321 149 q 349 62 321 85 q 458 39 378 39 l 588 39 q 716 58 671 39 q 782 133 761 78 q 811 292 803 188 l 846 292 l 836 125 l 832 0 l 261 0 l 56 -4 m 575 314 q 551 455 575 410 q 476 500 528 500 l 313 500 l 313 539 l 476 539 q 548 578 525 539 q 575 706 571 617 l 610 706 l 606 519 l 610 314 l 575 314 m 333 1153 l 333 1208 l 649 1208 l 649 1153 l 333 1153 z "},"Ę":{"ha":901,"x_min":56,"x_max":867,"o":"m 56 -4 l 56 31 l 83 33 q 163 51 138 40 q 195 93 188 63 q 203 185 203 124 l 203 801 q 195 894 203 864 q 163 935 188 924 q 83 953 138 947 l 56 956 l 56 990 l 261 986 l 626 986 l 800 990 l 803 886 l 814 758 l 781 758 q 756 856 771 819 q 713 913 742 893 q 635 939 685 932 q 504 946 585 946 l 321 946 l 321 149 q 349 62 321 85 q 458 39 378 39 l 588 39 q 716 58 671 39 q 782 133 761 78 q 811 292 803 188 l 846 292 l 836 125 l 832 0 l 261 0 l 56 -4 m 575 314 q 551 455 575 410 q 476 500 528 500 l 313 500 l 313 539 l 476 539 q 548 578 525 539 q 575 706 571 617 l 610 706 l 606 519 l 610 314 l 575 314 m 693 -408 q 580 -366 624 -408 q 536 -256 536 -324 q 572 -137 536 -193 q 669 -33 607 -81 q 807 46 731 14 l 832 0 q 724 -32 775 0 q 642 -115 674 -64 q 610 -224 610 -167 q 637 -303 610 -275 q 711 -332 664 -332 q 787 -307 753 -332 q 843 -236 821 -282 l 867 -253 q 803 -369 849 -329 q 693 -408 758 -408 z "},"F":{"ha":843,"x_min":56,"x_max":836,"o":"m 56 -4 l 56 31 l 83 33 q 163 51 138 40 q 195 93 188 63 q 203 185 203 124 l 203 801 q 195 894 203 864 q 163 935 188 924 q 83 953 138 947 l 56 956 l 56 990 l 261 986 l 650 986 l 819 990 l 824 885 l 836 761 l 803 761 q 733 901 794 857 q 549 946 672 946 l 321 946 l 321 185 q 329 92 321 124 q 363 49 338 61 q 440 33 389 38 l 488 31 l 488 -4 l 263 0 l 261 0 l 56 -4 m 575 314 q 551 455 575 410 q 476 500 528 500 l 313 500 l 313 539 l 476 539 q 548 578 525 539 q 575 706 571 617 l 610 706 l 606 519 l 610 314 l 575 314 z "},"Ƒ":{"ha":843,"x_min":-68,"x_max":836,"o":"m 111 -403 q -19 -369 29 -403 q -68 -283 -68 -336 q -49 -228 -68 -250 q 3 -207 -29 -207 q 49 -222 31 -207 q 67 -265 67 -237 q 59 -299 67 -285 q 51 -331 51 -314 q 103 -369 51 -369 q 176 -329 150 -369 q 203 -217 203 -289 l 203 801 q 195 894 203 864 q 163 936 188 925 q 83 953 138 947 l 56 956 l 56 990 l 261 986 l 719 986 l 819 988 l 824 885 l 836 761 l 803 761 q 733 903 794 858 q 549 949 672 949 l 321 949 l 321 -192 q 266 -347 321 -292 q 111 -403 211 -403 m 575 314 q 550 458 575 415 q 476 500 525 500 l 313 500 l 313 539 l 476 539 q 525 552 504 539 q 559 601 546 565 q 575 706 572 638 l 610 706 l 606 519 l 610 314 l 575 314 z "},"G":{"ha":1090,"x_min":86,"x_max":1074,"o":"m 551 -15 q 366 22 451 -15 q 218 126 281 58 q 121 284 156 193 q 86 483 86 375 q 122 688 86 593 q 223 854 158 783 q 374 965 288 925 q 560 1006 460 1006 q 650 997 606 1006 q 744 961 694 988 q 792 940 775 946 q 822 935 808 935 q 863 986 863 935 l 897 986 l 894 826 l 897 664 l 863 664 q 820 822 860 754 q 713 926 781 889 q 558 964 646 964 q 315 839 401 964 q 228 486 228 714 q 312 145 228 264 q 553 26 396 26 q 688 51 626 26 q 785 115 749 75 q 822 203 822 156 l 822 242 q 794 329 822 303 q 689 363 765 356 l 629 368 l 629 401 l 860 396 l 1074 401 l 1074 368 l 1011 363 q 926 242 926 354 l 926 217 q 957 110 926 164 l 976 75 l 944 54 q 874 104 911 104 q 849 99 860 104 q 800 67 839 94 q 681 4 740 24 q 551 -15 621 -15 z "},"Ğ":{"ha":1090,"x_min":86,"x_max":1074,"o":"m 551 -15 q 366 22 451 -15 q 218 126 281 58 q 121 284 156 193 q 86 483 86 375 q 122 688 86 593 q 223 854 158 783 q 374 965 288 925 q 560 1006 460 1006 q 650 997 606 1006 q 744 961 694 988 q 792 940 775 946 q 822 935 808 935 q 863 986 863 935 l 897 986 l 894 826 l 897 664 l 863 664 q 820 822 860 754 q 713 926 781 889 q 558 964 646 964 q 315 839 401 964 q 228 486 228 714 q 312 145 228 264 q 553 26 396 26 q 688 51 626 26 q 785 115 749 75 q 822 203 822 156 l 822 242 q 794 329 822 303 q 689 363 765 356 l 629 368 l 629 401 l 860 396 l 1074 401 l 1074 368 l 1011 363 q 926 242 926 354 l 926 217 q 957 110 926 164 l 976 75 l 944 54 q 874 104 911 104 q 849 99 860 104 q 800 67 839 94 q 681 4 740 24 q 551 -15 621 -15 m 554 1078 q 449 1124 485 1078 q 414 1239 414 1171 l 414 1285 l 449 1285 l 449 1278 q 476 1185 449 1210 q 554 1161 504 1161 q 632 1185 604 1161 q 660 1278 660 1210 l 660 1285 l 694 1285 l 694 1239 q 659 1124 694 1171 q 554 1078 624 1078 z "},"Ģ":{"ha":1090,"x_min":86,"x_max":1074,"o":"m 551 -15 q 366 22 451 -15 q 218 126 281 58 q 121 284 156 193 q 86 483 86 375 q 122 688 86 593 q 223 854 158 783 q 374 965 288 925 q 560 1006 460 1006 q 650 997 606 1006 q 744 961 694 988 q 792 940 775 946 q 822 935 808 935 q 863 986 863 935 l 897 986 l 894 826 l 897 664 l 863 664 q 820 822 860 754 q 713 926 781 889 q 558 964 646 964 q 315 839 401 964 q 228 486 228 714 q 312 145 228 264 q 553 26 396 26 q 688 51 626 26 q 785 115 749 75 q 822 203 822 156 l 822 242 q 794 329 822 303 q 689 363 765 356 l 629 368 l 629 401 l 860 396 l 1074 401 l 1074 368 l 1011 363 q 926 242 926 354 l 926 217 q 957 110 926 164 l 976 75 l 944 54 q 874 104 911 104 q 849 99 860 104 q 800 67 839 94 q 681 4 740 24 q 551 -15 621 -15 m 507 -411 l 494 -389 q 571 -322 535 -362 q 607 -226 607 -282 q 600 -183 607 -207 q 568 -160 593 -160 l 588 -153 l 576 -174 l 571 -162 q 585 -172 581 -162 q 589 -196 589 -181 q 578 -223 589 -210 q 543 -236 568 -236 q 506 -219 521 -236 q 492 -176 492 -203 q 507 -137 492 -154 q 553 -121 522 -121 q 619 -153 597 -121 q 640 -226 640 -186 q 600 -333 640 -286 q 507 -411 560 -381 z "},"Ġ":{"ha":1090,"x_min":86,"x_max":1074,"o":"m 551 -15 q 366 22 451 -15 q 218 126 281 58 q 121 284 156 193 q 86 483 86 375 q 122 688 86 593 q 223 854 158 783 q 374 965 288 925 q 560 1006 460 1006 q 650 997 606 1006 q 744 961 694 988 q 792 940 775 946 q 822 935 808 935 q 863 986 863 935 l 897 986 l 894 826 l 897 664 l 863 664 q 820 822 860 754 q 713 926 781 889 q 558 964 646 964 q 315 839 401 964 q 228 486 228 714 q 312 145 228 264 q 553 26 396 26 q 688 51 626 26 q 785 115 749 75 q 822 203 822 156 l 822 242 q 794 329 822 303 q 689 363 765 356 l 629 368 l 629 401 l 860 396 l 1074 401 l 1074 368 l 1011 363 q 926 242 926 354 l 926 217 q 957 110 926 164 l 976 75 l 944 54 q 874 104 911 104 q 849 99 860 104 q 800 67 839 94 q 681 4 740 24 q 551 -15 621 -15 m 554 1096 q 497 1121 518 1096 q 476 1181 476 1146 q 497 1241 476 1217 q 554 1265 518 1265 q 613 1241 594 1265 q 632 1181 632 1217 q 613 1121 632 1146 q 554 1096 594 1096 z "},"H":{"ha":1171,"x_min":56,"x_max":1115,"o":"m 703 -4 l 703 31 l 731 33 q 810 51 785 40 q 842 93 835 63 q 850 185 850 124 l 850 801 q 842 894 850 864 q 810 935 835 924 q 731 953 785 947 l 703 956 l 703 990 l 910 986 l 1115 990 l 1115 956 l 1088 953 q 1009 935 1035 947 q 976 894 983 924 q 968 801 968 864 l 968 185 q 976 93 968 124 q 1009 51 983 63 q 1088 33 1035 40 l 1115 31 l 1115 -4 l 910 0 l 703 -4 m 56 -4 l 56 31 l 83 33 q 163 51 138 40 q 195 93 188 63 q 203 185 203 124 l 203 801 q 195 894 203 864 q 163 935 188 924 q 83 953 138 947 l 56 956 l 56 990 l 263 986 l 468 990 l 468 956 l 440 953 q 362 935 388 947 q 328 894 336 924 q 321 801 321 864 l 321 185 q 328 93 321 124 q 362 51 336 63 q 440 33 388 40 l 468 31 l 468 -4 l 263 0 l 56 -4 m 275 488 l 275 532 l 889 532 l 889 488 l 275 488 z "},"Ħ":{"ha":1171,"x_min":56,"x_max":1115,"o":"m 703 -4 l 703 31 l 731 33 q 810 51 785 40 q 842 93 835 63 q 850 185 850 124 l 850 801 q 842 894 850 864 q 810 935 835 924 q 731 953 785 947 l 703 956 l 703 990 l 910 986 l 1115 990 l 1115 956 l 1088 953 q 1009 935 1035 947 q 976 894 983 924 q 968 801 968 864 l 968 185 q 976 93 968 124 q 1009 51 983 63 q 1088 33 1035 40 l 1115 31 l 1115 -4 l 910 0 l 703 -4 m 56 -4 l 56 31 l 83 33 q 163 51 138 40 q 195 93 188 63 q 203 185 203 124 l 203 801 q 195 894 203 864 q 163 935 188 924 q 83 953 138 947 l 56 956 l 56 990 l 263 986 l 468 990 l 468 956 l 440 953 q 362 935 388 947 q 328 894 336 924 q 321 801 321 864 l 321 185 q 328 93 321 124 q 362 51 336 63 q 440 33 388 40 l 468 31 l 468 -4 l 263 0 l 56 -4 m 275 488 l 275 532 l 889 532 l 889 488 l 275 488 m 243 643 l 243 683 l 922 683 l 922 643 l 243 643 z "},"Ĥ":{"ha":1171,"x_min":56,"x_max":1115,"o":"m 703 -4 l 703 31 l 731 33 q 810 51 785 40 q 842 93 835 63 q 850 185 850 124 l 850 801 q 842 894 850 864 q 810 935 835 924 q 731 953 785 947 l 703 956 l 703 990 l 910 986 l 1115 990 l 1115 956 l 1088 953 q 1009 935 1035 947 q 976 894 983 924 q 968 801 968 864 l 968 185 q 976 93 968 124 q 1009 51 983 63 q 1088 33 1035 40 l 1115 31 l 1115 -4 l 910 0 l 703 -4 m 56 -4 l 56 31 l 83 33 q 163 51 138 40 q 195 93 188 63 q 203 185 203 124 l 203 801 q 195 894 203 864 q 163 935 188 924 q 83 953 138 947 l 56 956 l 56 990 l 263 986 l 468 990 l 468 956 l 440 953 q 362 935 388 947 q 328 894 336 924 q 321 801 321 864 l 321 185 q 328 93 321 124 q 362 51 336 63 q 440 33 388 40 l 468 31 l 468 -4 l 263 0 l 56 -4 m 275 488 l 275 532 l 889 532 l 889 488 l 275 488 m 443 1057 l 574 1306 l 604 1306 l 735 1057 l 701 1057 l 593 1185 l 585 1185 l 476 1057 l 443 1057 z "},"I":{"ha":524,"x_min":56,"x_max":468,"o":"m 56 -4 l 56 31 l 83 33 q 163 51 138 40 q 195 93 188 63 q 203 185 203 124 l 203 801 q 195 894 203 864 q 163 935 188 924 q 83 953 138 947 l 56 956 l 56 990 l 263 986 l 468 990 l 468 956 l 440 953 q 362 935 388 947 q 328 894 336 924 q 321 801 321 864 l 321 185 q 328 93 321 124 q 362 51 336 63 q 440 33 388 40 l 468 31 l 468 -4 l 263 0 l 56 -4 z "},"Ĳ":{"ha":1122,"x_min":56,"x_max":1081,"o":"m 56 -4 l 56 31 l 83 33 q 163 51 138 40 q 195 93 188 63 q 203 185 203 124 l 203 801 q 195 894 203 864 q 163 935 188 924 q 83 953 138 947 l 56 956 l 56 990 l 263 986 l 468 990 l 468 956 l 440 953 q 362 935 388 947 q 328 894 336 924 q 321 801 321 864 l 321 185 q 328 93 321 124 q 362 51 336 63 q 440 33 388 40 l 468 31 l 468 -4 l 263 0 l 56 -4 m 725 -15 q 594 18 644 -15 q 544 106 544 51 q 565 160 544 139 q 615 181 585 181 q 661 164 643 181 q 679 122 679 147 q 678 107 679 115 q 671 86 676 99 q 664 58 664 71 q 713 18 664 18 q 788 60 760 18 q 815 171 815 101 l 815 801 q 808 894 815 864 q 775 936 800 925 q 696 953 750 947 l 668 956 l 668 990 l 874 986 l 875 986 l 1081 990 l 1081 956 l 1053 953 q 974 935 1000 947 q 941 894 949 924 q 933 801 933 864 l 933 196 q 881 39 933 93 q 725 -15 828 -15 z "},"Í":{"ha":524,"x_min":56,"x_max":468,"o":"m 56 -4 l 56 31 l 83 33 q 163 51 138 40 q 195 93 188 63 q 203 185 203 124 l 203 801 q 195 894 203 864 q 163 935 188 924 q 83 953 138 947 l 56 956 l 56 990 l 263 986 l 468 990 l 468 956 l 440 953 q 362 935 388 947 q 328 894 336 924 q 321 801 321 864 l 321 185 q 328 93 321 124 q 362 51 336 63 q 440 33 388 40 l 468 31 l 468 -4 l 263 0 l 56 -4 m 231 1056 l 267 1306 l 379 1306 l 247 1056 l 231 1056 z "},"Ǐ":{"ha":524,"x_min":56,"x_max":468,"o":"m 56 -4 l 56 31 l 83 33 q 163 51 138 40 q 195 93 188 63 q 203 185 203 124 l 203 801 q 195 894 203 864 q 163 935 188 924 q 83 953 138 947 l 56 956 l 56 990 l 263 986 l 468 990 l 468 956 l 440 953 q 362 935 388 947 q 328 894 336 924 q 321 801 321 864 l 321 185 q 328 93 321 124 q 362 51 336 63 q 440 33 388 40 l 468 31 l 468 -4 l 263 0 l 56 -4 m 247 1056 l 117 1306 l 150 1306 l 258 1176 l 267 1176 l 375 1306 l 408 1306 l 278 1056 l 247 1056 z "},"Î":{"ha":524,"x_min":56,"x_max":468,"o":"m 56 -4 l 56 31 l 83 33 q 163 51 138 40 q 195 93 188 63 q 203 185 203 124 l 203 801 q 195 894 203 864 q 163 935 188 924 q 83 953 138 947 l 56 956 l 56 990 l 263 986 l 468 990 l 468 956 l 440 953 q 362 935 388 947 q 328 894 336 924 q 321 801 321 864 l 321 185 q 328 93 321 124 q 362 51 336 63 q 440 33 388 40 l 468 31 l 468 -4 l 263 0 l 56 -4 m 114 1057 l 244 1306 l 275 1306 l 406 1057 l 372 1057 l 264 1185 l 256 1185 l 147 1057 l 114 1057 z "},"Ï":{"ha":524,"x_min":56,"x_max":468,"o":"m 56 -4 l 56 31 l 83 33 q 163 51 138 40 q 195 93 188 63 q 203 185 203 124 l 203 801 q 195 894 203 864 q 163 935 188 924 q 83 953 138 947 l 56 956 l 56 990 l 263 986 l 468 990 l 468 956 l 440 953 q 362 935 388 947 q 328 894 336 924 q 321 801 321 864 l 321 185 q 328 93 321 124 q 362 51 336 63 q 440 33 388 40 l 468 31 l 468 -4 l 263 0 l 56 -4 m 129 1101 q 77 1124 96 1101 q 58 1181 58 1147 q 77 1235 58 1213 q 129 1258 96 1258 q 182 1235 165 1258 q 199 1181 199 1213 q 182 1124 199 1147 q 129 1101 165 1101 m 393 1101 q 341 1124 360 1101 q 322 1181 322 1147 q 341 1235 322 1213 q 393 1258 360 1258 q 446 1235 429 1258 q 463 1181 463 1213 q 446 1124 463 1147 q 393 1101 429 1101 z "},"İ":{"ha":524,"x_min":56,"x_max":468,"o":"m 56 -4 l 56 31 l 83 33 q 163 51 138 40 q 195 93 188 63 q 203 185 203 124 l 203 801 q 195 894 203 864 q 163 935 188 924 q 83 953 138 947 l 56 956 l 56 990 l 263 986 l 468 990 l 468 956 l 440 953 q 362 935 388 947 q 328 894 336 924 q 321 801 321 864 l 321 185 q 328 93 321 124 q 362 51 336 63 q 440 33 388 40 l 468 31 l 468 -4 l 263 0 l 56 -4 m 261 1096 q 204 1121 225 1096 q 183 1181 183 1146 q 204 1241 183 1217 q 261 1265 225 1265 q 320 1241 301 1265 q 339 1181 339 1217 q 320 1121 339 1146 q 261 1096 301 1096 z "},"Ì":{"ha":524,"x_min":56,"x_max":468,"o":"m 56 -4 l 56 31 l 83 33 q 163 51 138 40 q 195 93 188 63 q 203 185 203 124 l 203 801 q 195 894 203 864 q 163 935 188 924 q 83 953 138 947 l 56 956 l 56 990 l 263 986 l 468 990 l 468 956 l 440 953 q 362 935 388 947 q 328 894 336 924 q 321 801 321 864 l 321 185 q 328 93 321 124 q 362 51 336 63 q 440 33 388 40 l 468 31 l 468 -4 l 263 0 l 56 -4 m 292 1056 l 275 1056 l 143 1306 l 256 1306 l 292 1056 z "},"Ī":{"ha":524,"x_min":56,"x_max":468,"o":"m 56 -4 l 56 31 l 83 33 q 163 51 138 40 q 195 93 188 63 q 203 185 203 124 l 203 801 q 195 894 203 864 q 163 935 188 924 q 83 953 138 947 l 56 956 l 56 990 l 263 986 l 468 990 l 468 956 l 440 953 q 362 935 388 947 q 328 894 336 924 q 321 801 321 864 l 321 185 q 328 93 321 124 q 362 51 336 63 q 440 33 388 40 l 468 31 l 468 -4 l 263 0 l 56 -4 m 104 1153 l 104 1208 l 419 1208 l 419 1153 l 104 1153 z "},"Į":{"ha":524,"x_min":56,"x_max":468,"o":"m 56 -4 l 56 31 l 83 33 q 163 51 138 40 q 195 93 188 63 q 203 185 203 124 l 203 801 q 195 894 203 864 q 163 935 188 924 q 83 953 138 947 l 56 956 l 56 990 l 263 986 l 468 990 l 468 956 l 440 953 q 362 935 388 947 q 328 894 336 924 q 321 801 321 864 l 321 185 q 328 93 321 124 q 362 51 336 63 q 440 33 388 40 l 468 31 l 468 -4 l 263 0 l 56 -4 m 261 -408 q 148 -366 192 -408 q 104 -256 104 -324 q 140 -137 104 -193 q 237 -33 175 -81 q 375 46 299 14 l 400 0 q 292 -32 343 0 q 210 -115 242 -64 q 178 -224 178 -167 q 205 -303 178 -275 q 279 -332 232 -332 q 355 -307 321 -332 q 411 -236 389 -282 l 435 -253 q 372 -369 417 -329 q 261 -408 326 -408 z "},"J":{"ha":599,"x_min":21,"x_max":557,"o":"m 201 -15 q 71 18 121 -15 q 21 106 21 51 q 41 160 21 139 q 92 181 61 181 q 138 164 119 181 q 156 122 156 147 q 154 107 156 115 q 147 86 153 99 q 140 58 140 71 q 189 18 140 18 q 264 60 236 18 q 292 171 292 101 l 292 801 q 284 894 292 864 q 251 936 276 925 q 172 953 226 947 l 144 956 l 144 990 l 350 986 l 351 986 l 557 990 l 557 956 l 529 953 q 451 935 476 947 q 417 894 425 924 q 410 801 410 864 l 410 196 q 357 39 410 93 q 201 -15 304 -15 z "},"K":{"ha":1029,"x_min":56,"x_max":1057,"o":"m 304 346 l 304 417 l 644 814 q 681 863 671 844 q 690 899 690 881 q 626 950 690 944 l 582 954 l 582 990 l 760 986 l 928 990 l 928 956 l 881 950 q 807 920 844 946 q 725 842 769 894 l 304 346 m 56 -4 l 56 31 l 83 33 q 163 51 138 39 q 195 93 188 63 q 203 185 203 124 l 203 801 q 195 894 203 864 q 163 936 188 925 q 83 953 138 947 l 56 956 l 56 990 l 261 986 l 446 990 l 446 954 l 418 951 q 351 935 374 947 q 322 892 329 922 q 315 801 315 861 l 315 185 q 322 92 315 122 q 353 50 329 61 q 425 33 376 39 l 450 31 l 450 -4 l 261 0 l 56 -4 m 640 -4 l 640 31 l 661 32 q 728 72 728 36 q 719 106 728 88 q 690 149 710 125 l 413 507 l 494 604 l 775 238 q 875 118 835 161 q 951 56 915 75 q 1028 33 986 38 l 1057 31 l 1057 -4 l 846 0 l 640 -4 z "},"Ķ":{"ha":1029,"x_min":56,"x_max":1057,"o":"m 304 346 l 304 417 l 644 814 q 681 863 671 844 q 690 899 690 881 q 626 950 690 944 l 582 954 l 582 990 l 760 986 l 928 990 l 928 956 l 881 950 q 807 920 844 946 q 725 842 769 894 l 304 346 m 56 -4 l 56 31 l 83 33 q 163 51 138 39 q 195 93 188 63 q 203 185 203 124 l 203 801 q 195 894 203 864 q 163 936 188 925 q 83 953 138 947 l 56 956 l 56 990 l 261 986 l 446 990 l 446 954 l 418 951 q 351 935 374 947 q 322 892 329 922 q 315 801 315 861 l 315 185 q 322 92 315 122 q 353 50 329 61 q 425 33 376 39 l 450 31 l 450 -4 l 261 0 l 56 -4 m 640 -4 l 640 31 l 661 32 q 728 72 728 36 q 719 106 728 88 q 690 149 710 125 l 413 507 l 494 604 l 775 238 q 875 118 835 161 q 951 56 915 75 q 1028 33 986 38 l 1057 31 l 1057 -4 l 846 0 l 640 -4 m 499 -411 l 486 -389 q 563 -322 526 -362 q 599 -226 599 -282 q 592 -183 599 -207 q 560 -160 585 -160 l 579 -153 l 568 -174 l 563 -162 q 576 -172 572 -162 q 581 -196 581 -181 q 570 -223 581 -210 q 535 -236 560 -236 q 498 -219 513 -236 q 483 -176 483 -203 q 499 -137 483 -154 q 544 -121 514 -121 q 610 -153 589 -121 q 632 -226 632 -186 q 592 -333 632 -286 q 499 -411 551 -381 z "},"L":{"ha":904,"x_min":56,"x_max":856,"o":"m 56 -4 l 56 31 l 83 33 q 163 50 138 39 q 195 92 188 61 q 203 185 203 122 l 203 801 q 195 894 203 864 q 163 936 188 925 q 83 953 138 947 l 56 956 l 56 990 l 264 986 l 468 990 l 468 956 l 429 951 q 363 935 386 947 q 330 895 339 922 q 321 818 321 868 l 321 239 q 333 114 321 157 q 381 56 346 71 q 483 40 417 40 l 588 40 q 758 100 701 40 q 825 292 814 160 l 856 292 l 842 -4 l 261 0 l 56 -4 z "},"Ĺ":{"ha":904,"x_min":56,"x_max":856,"o":"m 56 -4 l 56 31 l 83 33 q 163 50 138 39 q 195 92 188 61 q 203 185 203 122 l 203 801 q 195 894 203 864 q 163 936 188 925 q 83 953 138 947 l 56 956 l 56 990 l 264 986 l 468 990 l 468 956 l 429 951 q 363 935 386 947 q 330 895 339 922 q 321 818 321 868 l 321 239 q 333 114 321 157 q 381 56 346 71 q 483 40 417 40 l 588 40 q 758 100 701 40 q 825 292 814 160 l 856 292 l 842 -4 l 261 0 l 56 -4 m 231 1056 l 267 1306 l 379 1306 l 247 1056 l 231 1056 z "},"Ľ":{"ha":904,"x_min":56,"x_max":856,"o":"m 56 -4 l 56 31 l 83 33 q 163 50 138 39 q 195 92 188 61 q 203 185 203 122 l 203 801 q 195 894 203 864 q 163 936 188 925 q 83 953 138 947 l 56 956 l 56 990 l 264 986 l 468 990 l 468 956 l 429 951 q 363 935 386 947 q 330 895 339 922 q 321 818 321 868 l 321 239 q 333 114 321 157 q 381 56 346 71 q 483 40 417 40 l 588 40 q 758 100 701 40 q 825 292 814 160 l 856 292 l 842 -4 l 261 0 l 56 -4 m 594 740 l 622 986 l 728 986 l 642 740 l 594 740 z "},"Ļ":{"ha":904,"x_min":56,"x_max":856,"o":"m 56 -4 l 56 31 l 83 33 q 163 50 138 39 q 195 92 188 61 q 203 185 203 122 l 203 801 q 195 894 203 864 q 163 936 188 925 q 83 953 138 947 l 56 956 l 56 990 l 264 986 l 468 990 l 468 956 l 429 951 q 363 935 386 947 q 330 895 339 922 q 321 818 321 868 l 321 239 q 333 114 321 157 q 381 56 346 71 q 483 40 417 40 l 588 40 q 758 100 701 40 q 825 292 814 160 l 856 292 l 842 -4 l 261 0 l 56 -4 m 451 -411 l 439 -389 q 515 -322 479 -362 q 551 -226 551 -282 q 544 -183 551 -207 q 513 -160 538 -160 l 532 -153 l 521 -174 l 515 -162 q 529 -172 525 -162 q 533 -196 533 -181 q 523 -223 533 -210 q 488 -236 513 -236 q 451 -219 465 -236 q 436 -176 436 -203 q 451 -137 436 -154 q 497 -121 467 -121 q 563 -153 542 -121 q 585 -226 585 -186 q 544 -333 585 -286 q 451 -411 504 -381 z "},"Ŀ":{"ha":904,"x_min":56,"x_max":856,"o":"m 56 -4 l 56 31 l 83 33 q 163 50 138 39 q 195 92 188 61 q 203 185 203 122 l 203 801 q 195 894 203 864 q 163 936 188 925 q 83 953 138 947 l 56 956 l 56 990 l 264 986 l 468 990 l 468 956 l 429 951 q 363 935 386 947 q 330 895 339 922 q 321 818 321 868 l 321 239 q 333 114 321 157 q 381 56 346 71 q 483 40 417 40 l 588 40 q 758 100 701 40 q 825 292 814 160 l 856 292 l 842 -4 l 261 0 l 56 -4 m 717 436 q 653 462 679 436 q 628 525 628 488 q 653 586 628 561 q 717 611 679 611 q 778 586 753 611 q 803 525 803 561 q 778 462 803 488 q 717 436 753 436 z "},"Ł":{"ha":904,"x_min":47,"x_max":856,"o":"m 63 351 l 47 390 l 593 636 l 617 581 l 63 351 m 56 -4 l 56 31 l 83 33 q 163 50 138 39 q 195 92 188 61 q 203 185 203 122 l 203 801 q 195 894 203 864 q 163 936 188 925 q 83 953 138 947 l 56 956 l 56 990 l 264 986 l 468 990 l 468 956 l 429 951 q 363 935 386 947 q 330 895 339 922 q 321 818 321 868 l 321 239 q 333 114 321 157 q 381 56 346 71 q 483 40 417 40 l 588 40 q 758 100 701 40 q 825 292 814 160 l 856 292 l 842 -4 l 261 0 l 56 -4 z "},"M":{"ha":1361,"x_min":49,"x_max":1306,"o":"m 49 -4 l 49 31 l 76 33 q 156 51 131 40 q 188 93 181 63 q 196 185 196 124 l 196 801 q 188 894 196 864 q 156 935 181 924 q 76 953 131 947 l 49 956 l 49 990 l 254 986 l 332 986 l 681 140 l 642 140 l 1028 986 l 1111 986 l 1306 990 l 1306 956 l 1278 953 q 1199 935 1225 947 q 1166 894 1174 924 q 1158 801 1158 864 l 1158 185 q 1166 92 1158 122 q 1199 50 1174 61 q 1278 33 1225 39 l 1306 31 l 1306 -4 l 1100 0 l 893 -4 l 893 31 l 921 33 q 1000 50 975 39 q 1033 92 1025 61 q 1040 185 1040 122 l 1040 950 l 1063 947 l 629 0 l 603 0 l 221 943 l 244 946 l 244 146 q 253 82 244 104 q 289 49 263 60 q 364 33 315 39 l 392 31 l 392 -4 l 215 0 l 49 -4 z "},"N":{"ha":1085,"x_min":49,"x_max":1057,"o":"m 868 0 q 788 135 842 53 q 665 317 735 218 q 516 519 594 415 q 358 719 438 622 q 207 894 278 817 q 171 928 189 915 q 133 948 153 942 q 90 954 114 954 l 49 954 l 49 990 l 318 986 q 379 903 338 960 q 476 775 421 847 q 590 624 531 703 q 705 471 649 544 q 806 340 761 397 q 874 251 850 282 l 854 217 l 854 801 q 847 894 854 864 q 814 936 839 925 q 735 953 789 947 l 707 956 l 707 990 l 888 986 l 1057 990 l 1057 956 l 1029 953 q 951 935 976 947 q 917 894 925 924 q 910 801 910 864 l 910 0 l 868 0 m 54 -6 l 54 29 l 82 32 q 161 49 136 38 q 194 91 186 60 q 201 185 201 122 l 201 915 l 257 914 l 257 185 q 265 91 257 122 q 298 49 272 60 q 376 32 324 38 l 404 29 l 404 -6 l 226 0 l 54 -6 z "},"Ń":{"ha":1085,"x_min":49,"x_max":1057,"o":"m 868 0 q 788 135 842 53 q 665 317 735 218 q 516 519 594 415 q 358 719 438 622 q 207 894 278 817 q 171 928 189 915 q 133 948 153 942 q 90 954 114 954 l 49 954 l 49 990 l 318 986 q 379 903 338 960 q 476 775 421 847 q 590 624 531 703 q 705 471 649 544 q 806 340 761 397 q 874 251 850 282 l 854 217 l 854 801 q 847 894 854 864 q 814 936 839 925 q 735 953 789 947 l 707 956 l 707 990 l 888 986 l 1057 990 l 1057 956 l 1029 953 q 951 935 976 947 q 917 894 925 924 q 910 801 910 864 l 910 0 l 868 0 m 54 -6 l 54 29 l 82 32 q 161 49 136 38 q 194 91 186 60 q 201 185 201 122 l 201 915 l 257 914 l 257 185 q 265 91 257 122 q 298 49 272 60 q 376 32 324 38 l 404 29 l 404 -6 l 226 0 l 54 -6 m 528 1056 l 564 1306 l 676 1306 l 544 1056 l 528 1056 z "},"Ň":{"ha":1085,"x_min":49,"x_max":1057,"o":"m 868 0 q 788 135 842 53 q 665 317 735 218 q 516 519 594 415 q 358 719 438 622 q 207 894 278 817 q 171 928 189 915 q 133 948 153 942 q 90 954 114 954 l 49 954 l 49 990 l 318 986 q 379 903 338 960 q 476 775 421 847 q 590 624 531 703 q 705 471 649 544 q 806 340 761 397 q 874 251 850 282 l 854 217 l 854 801 q 847 894 854 864 q 814 936 839 925 q 735 953 789 947 l 707 956 l 707 990 l 888 986 l 1057 990 l 1057 956 l 1029 953 q 951 935 976 947 q 917 894 925 924 q 910 801 910 864 l 910 0 l 868 0 m 54 -6 l 54 29 l 82 32 q 161 49 136 38 q 194 91 186 60 q 201 185 201 122 l 201 915 l 257 914 l 257 185 q 265 91 257 122 q 298 49 272 60 q 376 32 324 38 l 404 29 l 404 -6 l 226 0 l 54 -6 m 544 1056 l 414 1306 l 447 1306 l 556 1176 l 564 1176 l 672 1306 l 706 1306 l 575 1056 l 544 1056 z "},"Ņ":{"ha":1085,"x_min":49,"x_max":1057,"o":"m 868 0 q 788 135 842 53 q 665 317 735 218 q 516 519 594 415 q 358 719 438 622 q 207 894 278 817 q 171 928 189 915 q 133 948 153 942 q 90 954 114 954 l 49 954 l 49 990 l 318 986 q 379 903 338 960 q 476 775 421 847 q 590 624 531 703 q 705 471 649 544 q 806 340 761 397 q 874 251 850 282 l 854 217 l 854 801 q 847 894 854 864 q 814 936 839 925 q 735 953 789 947 l 707 956 l 707 990 l 888 986 l 1057 990 l 1057 956 l 1029 953 q 951 935 976 947 q 917 894 925 924 q 910 801 910 864 l 910 0 l 868 0 m 54 -6 l 54 29 l 82 32 q 161 49 136 38 q 194 91 186 60 q 201 185 201 122 l 201 915 l 257 914 l 257 185 q 265 91 257 122 q 298 49 272 60 q 376 32 324 38 l 404 29 l 404 -6 l 226 0 l 54 -6 m 558 -411 l 546 -389 q 622 -322 586 -362 q 658 -226 658 -282 q 651 -183 658 -207 q 619 -160 644 -160 l 639 -153 l 628 -174 l 622 -162 q 636 -172 632 -162 q 640 -196 640 -181 q 630 -223 640 -210 q 594 -236 619 -236 q 558 -219 572 -236 q 543 -176 543 -203 q 558 -137 543 -154 q 604 -121 574 -121 q 670 -153 649 -121 q 692 -226 692 -186 q 651 -333 692 -286 q 558 -411 611 -381 z "},"Ñ":{"ha":1085,"x_min":49,"x_max":1057,"o":"m 868 0 q 788 135 842 53 q 665 317 735 218 q 516 519 594 415 q 358 719 438 622 q 207 894 278 817 q 171 928 189 915 q 133 948 153 942 q 90 954 114 954 l 49 954 l 49 990 l 318 986 q 379 903 338 960 q 476 775 421 847 q 590 624 531 703 q 705 471 649 544 q 806 340 761 397 q 874 251 850 282 l 854 217 l 854 801 q 847 894 854 864 q 814 936 839 925 q 735 953 789 947 l 707 956 l 707 990 l 888 986 l 1057 990 l 1057 956 l 1029 953 q 951 935 976 947 q 917 894 925 924 q 910 801 910 864 l 910 0 l 868 0 m 54 -6 l 54 29 l 82 32 q 161 49 136 38 q 194 91 186 60 q 201 185 201 122 l 201 915 l 257 914 l 257 185 q 265 91 257 122 q 298 49 272 60 q 376 32 324 38 l 404 29 l 404 -6 l 226 0 l 54 -6 m 664 1100 q 613 1113 638 1100 q 569 1135 588 1125 l 533 1157 q 488 1183 508 1172 q 449 1193 468 1193 q 396 1167 418 1193 q 367 1115 374 1140 l 340 1115 q 353 1170 340 1136 q 392 1232 365 1204 q 460 1260 418 1260 q 513 1246 486 1260 q 553 1224 539 1232 l 604 1193 q 636 1177 615 1188 q 675 1167 657 1167 q 722 1188 703 1167 q 750 1238 740 1208 l 776 1238 q 738 1138 769 1175 q 664 1100 706 1100 z "},"Ŋ":{"ha":1085,"x_min":49,"x_max":1057,"o":"m 257 863 l 257 185 q 265 91 257 122 q 298 49 272 60 q 376 32 324 38 l 404 29 l 404 -6 l 226 0 l 54 -6 l 54 29 l 82 32 q 161 49 136 38 q 194 91 186 60 q 201 185 201 122 l 201 922 l 257 863 m 854 801 q 844 901 854 871 q 809 940 835 931 q 735 953 783 949 l 707 956 l 707 990 l 888 986 l 1057 990 l 1057 956 l 1029 953 q 956 940 982 949 q 921 901 931 931 q 911 801 911 871 l 911 -83 q 884 -261 911 -200 q 815 -344 857 -322 q 731 -367 774 -367 q 637 -335 665 -367 q 608 -264 608 -303 q 626 -211 608 -232 q 676 -190 644 -190 q 721 -204 700 -190 q 742 -247 742 -218 q 740 -265 742 -256 q 739 -281 739 -274 q 769 -310 739 -310 q 832 -250 810 -310 q 854 -81 854 -190 l 854 801 m 875 -11 q 797 128 850 43 q 672 313 743 213 q 521 518 600 414 q 365 717 442 622 q 226 883 289 813 q 194 915 213 899 q 151 943 176 932 q 90 954 126 954 l 49 954 l 49 990 l 318 986 q 388 892 344 951 q 485 762 432 833 q 596 615 539 690 q 705 472 653 540 q 798 349 757 403 q 861 268 839 296 l 875 -11 z "},"O":{"ha":1136,"x_min":86,"x_max":1050,"o":"m 568 -15 q 374 22 463 -15 q 222 128 286 60 q 122 291 157 197 q 86 496 86 385 q 122 700 86 607 q 222 862 157 793 q 374 968 286 931 q 568 1006 463 1006 q 762 968 674 1006 q 915 862 850 931 q 1015 700 979 793 q 1050 496 1050 607 q 1015 291 1050 385 q 915 128 979 197 q 762 22 850 60 q 568 -15 674 -15 m 568 26 q 908 496 908 26 q 568 964 908 964 q 228 496 228 964 q 568 26 228 26 z "},"Ó":{"ha":1136,"x_min":86,"x_max":1050,"o":"m 568 -15 q 374 22 463 -15 q 222 128 286 60 q 122 291 157 197 q 86 496 86 385 q 122 700 86 607 q 222 862 157 793 q 374 968 286 931 q 568 1006 463 1006 q 762 968 674 1006 q 915 862 850 931 q 1015 700 979 793 q 1050 496 1050 607 q 1015 291 1050 385 q 915 128 979 197 q 762 22 850 60 q 568 -15 674 -15 m 568 26 q 908 496 908 26 q 568 964 908 964 q 228 496 228 964 q 568 26 228 26 m 538 1056 l 574 1306 l 686 1306 l 554 1056 l 538 1056 z "},"Ǒ":{"ha":1136,"x_min":86,"x_max":1050,"o":"m 568 -15 q 374 22 463 -15 q 222 128 286 60 q 122 291 157 197 q 86 496 86 385 q 122 700 86 607 q 222 862 157 793 q 374 968 286 931 q 568 1006 463 1006 q 762 968 674 1006 q 915 862 850 931 q 1015 700 979 793 q 1050 496 1050 607 q 1015 291 1050 385 q 915 128 979 197 q 762 22 850 60 q 568 -15 674 -15 m 568 26 q 908 496 908 26 q 568 964 908 964 q 228 496 228 964 q 568 26 228 26 m 554 1056 l 424 1306 l 457 1306 l 565 1176 l 574 1176 l 682 1306 l 715 1306 l 585 1056 l 554 1056 z "},"Ô":{"ha":1136,"x_min":86,"x_max":1050,"o":"m 568 -15 q 374 22 463 -15 q 222 128 286 60 q 122 291 157 197 q 86 496 86 385 q 122 700 86 607 q 222 862 157 793 q 374 968 286 931 q 568 1006 463 1006 q 762 968 674 1006 q 915 862 850 931 q 1015 700 979 793 q 1050 496 1050 607 q 1015 291 1050 385 q 915 128 979 197 q 762 22 850 60 q 568 -15 674 -15 m 568 26 q 908 496 908 26 q 568 964 908 964 q 228 496 228 964 q 568 26 228 26 m 421 1057 l 551 1306 l 582 1306 l 713 1057 l 679 1057 l 571 1185 l 563 1185 l 454 1057 l 421 1057 z "},"Ö":{"ha":1136,"x_min":86,"x_max":1050,"o":"m 568 -15 q 374 22 463 -15 q 222 128 286 60 q 122 291 157 197 q 86 496 86 385 q 122 700 86 607 q 222 862 157 793 q 374 968 286 931 q 568 1006 463 1006 q 762 968 674 1006 q 915 862 850 931 q 1015 700 979 793 q 1050 496 1050 607 q 1015 291 1050 385 q 915 128 979 197 q 762 22 850 60 q 568 -15 674 -15 m 568 26 q 908 496 908 26 q 568 964 908 964 q 228 496 228 964 q 568 26 228 26 m 436 1101 q 384 1124 403 1101 q 365 1181 365 1147 q 384 1235 365 1213 q 436 1258 403 1258 q 489 1235 472 1258 q 506 1181 506 1213 q 489 1124 506 1147 q 436 1101 472 1101 m 700 1101 q 648 1124 667 1101 q 629 1181 629 1147 q 648 1235 629 1213 q 700 1258 667 1258 q 753 1235 736 1258 q 769 1181 769 1213 q 753 1124 769 1147 q 700 1101 736 1101 z "},"Ò":{"ha":1136,"x_min":86,"x_max":1050,"o":"m 568 -15 q 374 22 463 -15 q 222 128 286 60 q 122 291 157 197 q 86 496 86 385 q 122 700 86 607 q 222 862 157 793 q 374 968 286 931 q 568 1006 463 1006 q 762 968 674 1006 q 915 862 850 931 q 1015 700 979 793 q 1050 496 1050 607 q 1015 291 1050 385 q 915 128 979 197 q 762 22 850 60 q 568 -15 674 -15 m 568 26 q 908 496 908 26 q 568 964 908 964 q 228 496 228 964 q 568 26 228 26 m 599 1056 l 582 1056 l 450 1306 l 563 1306 l 599 1056 z "},"Ő":{"ha":1136,"x_min":86,"x_max":1050,"o":"m 568 -15 q 374 22 463 -15 q 222 128 286 60 q 122 291 157 197 q 86 496 86 385 q 122 700 86 607 q 222 862 157 793 q 374 968 286 931 q 568 1006 463 1006 q 762 968 674 1006 q 915 862 850 931 q 1015 700 979 793 q 1050 496 1050 607 q 1015 291 1050 385 q 915 128 979 197 q 762 22 850 60 q 568 -15 674 -15 m 568 26 q 908 496 908 26 q 568 964 908 964 q 228 496 228 964 q 568 26 228 26 m 453 1056 l 489 1306 l 601 1306 l 469 1056 l 453 1056 m 638 1057 l 674 1307 l 786 1307 l 654 1057 l 638 1057 z "},"Ō":{"ha":1136,"x_min":86,"x_max":1050,"o":"m 568 -15 q 374 22 463 -15 q 222 128 286 60 q 122 291 157 197 q 86 496 86 385 q 122 700 86 607 q 222 862 157 793 q 374 968 286 931 q 568 1006 463 1006 q 762 968 674 1006 q 915 862 850 931 q 1015 700 979 793 q 1050 496 1050 607 q 1015 291 1050 385 q 915 128 979 197 q 762 22 850 60 q 568 -15 674 -15 m 568 26 q 908 496 908 26 q 568 964 908 964 q 228 496 228 964 q 568 26 228 26 m 411 1153 l 411 1208 l 726 1208 l 726 1153 l 411 1153 z "},"Ø":{"ha":1136,"x_min":86,"x_max":1050,"o":"m 568 -15 q 374 22 463 -15 q 222 128 286 60 q 122 291 157 197 q 86 496 86 385 q 122 700 86 607 q 222 862 157 793 q 374 968 286 931 q 568 1006 463 1006 q 762 968 674 1006 q 915 862 850 931 q 1015 700 979 793 q 1050 496 1050 607 q 1015 291 1050 385 q 915 128 979 197 q 762 22 850 60 q 568 -15 674 -15 m 568 26 q 908 496 908 26 q 568 964 908 964 q 228 496 228 964 q 568 26 228 26 m 135 -67 l 100 -37 l 1003 1056 l 1036 1026 l 135 -67 z "},"Õ":{"ha":1136,"x_min":86,"x_max":1050,"o":"m 568 -15 q 374 22 463 -15 q 222 128 286 60 q 122 291 157 197 q 86 496 86 385 q 122 700 86 607 q 222 862 157 793 q 374 968 286 931 q 568 1006 463 1006 q 762 968 674 1006 q 915 862 850 931 q 1015 700 979 793 q 1050 496 1050 607 q 1015 291 1050 385 q 915 128 979 197 q 762 22 850 60 q 568 -15 674 -15 m 568 26 q 908 496 908 26 q 568 964 908 964 q 228 496 228 964 q 568 26 228 26 m 674 1100 q 622 1113 647 1100 q 579 1135 597 1125 l 543 1157 q 498 1183 518 1172 q 458 1193 478 1193 q 406 1167 428 1193 q 376 1115 383 1140 l 350 1115 q 363 1170 350 1136 q 401 1232 375 1204 q 469 1260 428 1260 q 522 1246 496 1260 q 563 1224 549 1232 l 614 1193 q 646 1177 625 1188 q 685 1167 667 1167 q 731 1188 713 1167 q 760 1238 750 1208 l 786 1238 q 747 1138 779 1175 q 674 1100 715 1100 z "},"Œ":{"ha":1403,"x_min":86,"x_max":1347,"o":"m 561 -15 q 373 22 460 -15 q 222 128 286 60 q 122 289 157 197 q 86 489 86 381 q 122 691 86 597 q 222 856 158 785 q 371 966 286 926 q 554 1006 456 1006 q 629 1001 589 1006 q 715 986 669 996 l 782 986 l 1132 986 l 1288 990 l 1290 886 l 1301 758 l 1268 758 q 1244 858 1258 821 q 1201 915 1229 896 q 1122 942 1172 935 q 992 949 1072 949 l 853 949 l 853 149 q 875 62 853 89 q 947 35 897 35 l 1075 35 q 1213 54 1165 35 q 1283 129 1261 74 q 1313 292 1304 185 l 1347 292 l 1338 125 l 1333 0 l 790 0 l 672 -3 q 561 -15 618 -15 m 582 26 q 701 61 668 26 q 733 185 733 96 l 733 801 q 694 927 733 890 q 561 964 656 964 q 313 842 397 964 q 228 486 228 721 q 317 142 228 257 q 582 26 406 26 m 1063 314 q 1039 457 1063 411 q 964 503 1015 503 l 844 503 l 844 538 l 964 538 q 1035 577 1013 538 q 1063 706 1058 617 l 1097 706 l 1093 519 l 1097 314 l 1063 314 z "},"P":{"ha":882,"x_min":56,"x_max":847,"o":"m 56 -4 l 56 31 l 83 33 q 163 50 138 39 q 195 92 188 61 q 203 185 203 122 l 203 801 q 195 894 203 864 q 163 936 188 925 q 83 953 138 947 l 56 956 l 56 990 l 261 986 l 450 986 q 751 923 656 986 q 847 725 847 860 q 753 512 847 586 q 483 438 658 438 l 313 438 l 313 479 l 483 479 q 661 534 607 479 q 715 711 715 589 q 662 887 715 826 q 504 947 608 947 l 321 947 l 321 185 q 330 93 321 124 q 369 51 339 63 q 461 33 400 39 l 492 31 l 492 -4 l 257 0 l 56 -4 z "},"Þ":{"ha":840,"x_min":56,"x_max":785,"o":"m 57 -4 l 57 31 l 85 33 q 164 50 139 39 q 196 92 189 61 q 203 185 203 122 l 203 801 q 195 894 203 864 q 163 936 188 925 q 83 953 138 947 l 56 956 l 56 990 l 260 986 l 461 990 l 461 956 l 433 953 q 355 935 381 947 q 322 894 329 924 q 314 801 314 864 l 314 185 q 322 92 314 122 q 355 50 329 61 q 435 33 381 39 l 463 31 l 463 -4 l 265 0 l 57 -4 m 307 229 l 307 265 l 414 265 q 549 288 499 265 q 623 363 600 311 q 646 500 646 414 q 626 628 646 581 q 559 697 606 676 q 435 718 513 718 l 306 718 l 306 753 l 435 753 q 698 691 611 753 q 785 503 785 629 q 690 300 785 371 q 414 229 594 229 l 307 229 z "},"Q":{"ha":1117,"x_min":86,"x_max":1103,"o":"m 907 -408 q 793 -387 842 -408 q 707 -337 744 -367 q 638 -281 669 -307 q 530 -198 579 -232 q 429 -148 481 -164 q 314 -139 378 -132 l 371 -122 q 309 -161 335 -143 q 250 -210 283 -179 q 208 -242 229 -228 q 164 -257 188 -257 q 135 -245 146 -257 q 124 -211 124 -233 q 157 -148 124 -172 q 249 -111 190 -124 q 379 -99 307 -99 l 296 -125 l 588 8 l 669 11 l 408 -110 l 394 -99 q 432 -96 418 -96 q 460 -96 446 -96 q 610 -128 549 -96 q 728 -204 672 -160 q 831 -276 779 -246 q 936 -307 883 -307 q 1024 -279 983 -307 q 1075 -172 1064 -251 l 1103 -172 q 1047 -347 1093 -286 q 907 -408 1001 -408 m 568 -15 q 374 22 463 -15 q 222 128 286 60 q 122 291 157 197 q 86 496 86 385 q 122 700 86 607 q 222 862 157 793 q 374 968 286 931 q 568 1006 463 1006 q 762 968 674 1006 q 915 862 850 931 q 1015 700 979 793 q 1050 496 1050 607 q 1015 291 1050 385 q 915 128 979 197 q 762 22 850 60 q 568 -15 674 -15 m 568 26 q 908 496 908 26 q 568 964 908 964 q 228 496 228 964 q 568 26 228 26 z "},"R":{"ha":965,"x_min":56,"x_max":979,"o":"m 846 -15 q 735 30 775 -15 q 682 168 694 75 q 631 347 668 278 q 533 448 594 415 q 381 481 472 481 l 313 481 l 313 518 l 438 518 q 622 569 565 518 q 678 735 678 621 q 624 898 678 846 q 458 950 571 950 l 321 950 l 321 185 q 328 92 321 122 q 362 50 336 61 q 440 33 388 39 l 468 31 l 468 -4 l 261 0 l 56 -4 l 56 31 l 83 33 q 163 51 138 39 q 195 93 188 63 q 203 185 203 124 l 203 801 q 195 894 203 864 q 163 936 188 925 q 83 953 138 947 l 56 956 l 56 990 l 261 986 l 456 986 q 719 924 629 986 q 810 743 810 863 q 735 568 810 633 q 518 488 661 503 l 519 492 q 706 426 635 492 q 794 233 776 361 q 840 85 810 136 q 913 35 869 35 q 967 50 931 35 l 979 17 q 917 -6 954 3 q 846 -15 881 -15 z "},"Ŕ":{"ha":965,"x_min":56,"x_max":979,"o":"m 846 -15 q 735 30 775 -15 q 682 168 694 75 q 631 347 668 278 q 533 448 594 415 q 381 481 472 481 l 313 481 l 313 518 l 438 518 q 622 569 565 518 q 678 735 678 621 q 624 898 678 846 q 458 950 571 950 l 321 950 l 321 185 q 328 92 321 122 q 362 50 336 61 q 440 33 388 39 l 468 31 l 468 -4 l 261 0 l 56 -4 l 56 31 l 83 33 q 163 51 138 39 q 195 93 188 63 q 203 185 203 124 l 203 801 q 195 894 203 864 q 163 936 188 925 q 83 953 138 947 l 56 956 l 56 990 l 261 986 l 456 986 q 719 924 629 986 q 810 743 810 863 q 735 568 810 633 q 518 488 661 503 l 519 492 q 706 426 635 492 q 794 233 776 361 q 840 85 810 136 q 913 35 869 35 q 967 50 931 35 l 979 17 q 917 -6 954 3 q 846 -15 881 -15 m 404 1056 l 440 1306 l 553 1306 l 421 1056 l 404 1056 z "},"Ř":{"ha":965,"x_min":56,"x_max":979,"o":"m 846 -15 q 735 30 775 -15 q 682 168 694 75 q 631 347 668 278 q 533 448 594 415 q 381 481 472 481 l 313 481 l 313 518 l 438 518 q 622 569 565 518 q 678 735 678 621 q 624 898 678 846 q 458 950 571 950 l 321 950 l 321 185 q 328 92 321 122 q 362 50 336 61 q 440 33 388 39 l 468 31 l 468 -4 l 261 0 l 56 -4 l 56 31 l 83 33 q 163 51 138 39 q 195 93 188 63 q 203 185 203 124 l 203 801 q 195 894 203 864 q 163 936 188 925 q 83 953 138 947 l 56 956 l 56 990 l 261 986 l 456 986 q 719 924 629 986 q 810 743 810 863 q 735 568 810 633 q 518 488 661 503 l 519 492 q 706 426 635 492 q 794 233 776 361 q 840 85 810 136 q 913 35 869 35 q 967 50 931 35 l 979 17 q 917 -6 954 3 q 846 -15 881 -15 m 421 1056 l 290 1306 l 324 1306 l 432 1176 l 440 1176 l 549 1306 l 582 1306 l 451 1056 l 421 1056 z "},"Ŗ":{"ha":965,"x_min":56,"x_max":979,"o":"m 846 -15 q 735 30 775 -15 q 682 168 694 75 q 631 347 668 278 q 533 448 594 415 q 381 481 472 481 l 313 481 l 313 518 l 438 518 q 622 569 565 518 q 678 735 678 621 q 624 898 678 846 q 458 950 571 950 l 321 950 l 321 185 q 328 92 321 122 q 362 50 336 61 q 440 33 388 39 l 468 31 l 468 -4 l 261 0 l 56 -4 l 56 31 l 83 33 q 163 51 138 39 q 195 93 188 63 q 203 185 203 124 l 203 801 q 195 894 203 864 q 163 936 188 925 q 83 953 138 947 l 56 956 l 56 990 l 261 986 l 456 986 q 719 924 629 986 q 810 743 810 863 q 735 568 810 633 q 518 488 661 503 l 519 492 q 706 426 635 492 q 794 233 776 361 q 840 85 810 136 q 913 35 869 35 q 967 50 931 35 l 979 17 q 917 -6 954 3 q 846 -15 881 -15 m 510 -411 l 497 -389 q 574 -322 538 -362 q 610 -226 610 -282 q 603 -183 610 -207 q 571 -160 596 -160 l 590 -153 l 579 -174 l 574 -162 q 588 -172 583 -162 q 592 -196 592 -181 q 581 -223 592 -210 q 546 -236 571 -236 q 509 -219 524 -236 q 494 -176 494 -203 q 510 -137 494 -154 q 556 -121 525 -121 q 622 -153 600 -121 q 643 -226 643 -186 q 603 -333 643 -286 q 510 -411 563 -381 z "},"S":{"ha":779,"x_min":83,"x_max":703,"o":"m 429 -15 q 328 3 374 -15 q 247 39 283 21 q 197 64 217 56 q 161 72 176 72 q 134 56 142 72 q 122 21 126 40 l 118 0 l 83 0 l 90 164 l 86 343 l 121 343 l 136 278 q 191 158 151 217 q 291 63 231 100 q 429 25 351 25 q 512 44 472 25 q 577 101 551 63 q 603 203 603 140 q 576 310 603 265 q 498 392 549 356 q 375 461 447 428 l 317 489 q 162 599 213 539 q 111 754 111 660 q 147 885 111 828 q 247 974 183 942 q 392 1006 310 1006 q 488 990 449 1006 q 549 964 526 975 q 606 946 585 946 q 632 989 628 946 l 667 989 l 663 856 l 665 721 l 631 721 q 588 853 622 799 q 503 938 553 908 q 399 967 454 967 q 266 919 317 967 q 215 799 215 872 q 267 674 215 719 q 400 589 318 629 l 457 561 q 588 484 533 524 q 673 392 643 444 q 703 260 703 339 q 666 115 703 178 q 567 19 629 53 q 429 -15 506 -15 z "},"Ś":{"ha":779,"x_min":83,"x_max":703,"o":"m 429 -15 q 328 3 374 -15 q 247 39 283 21 q 197 64 217 56 q 161 72 176 72 q 134 56 142 72 q 122 21 126 40 l 118 0 l 83 0 l 90 164 l 86 343 l 121 343 l 136 278 q 191 158 151 217 q 291 63 231 100 q 429 25 351 25 q 512 44 472 25 q 577 101 551 63 q 603 203 603 140 q 576 310 603 265 q 498 392 549 356 q 375 461 447 428 l 317 489 q 162 599 213 539 q 111 754 111 660 q 147 885 111 828 q 247 974 183 942 q 392 1006 310 1006 q 488 990 449 1006 q 549 964 526 975 q 606 946 585 946 q 632 989 628 946 l 667 989 l 663 856 l 665 721 l 631 721 q 588 853 622 799 q 503 938 553 908 q 399 967 454 967 q 266 919 317 967 q 215 799 215 872 q 267 674 215 719 q 400 589 318 629 l 457 561 q 588 484 533 524 q 673 392 643 444 q 703 260 703 339 q 666 115 703 178 q 567 19 629 53 q 429 -15 506 -15 m 365 1056 l 401 1306 l 514 1306 l 382 1056 l 365 1056 z "},"Š":{"ha":779,"x_min":83,"x_max":703,"o":"m 429 -15 q 328 3 374 -15 q 247 39 283 21 q 197 64 217 56 q 161 72 176 72 q 134 56 142 72 q 122 21 126 40 l 118 0 l 83 0 l 90 164 l 86 343 l 121 343 l 136 278 q 191 158 151 217 q 291 63 231 100 q 429 25 351 25 q 512 44 472 25 q 577 101 551 63 q 603 203 603 140 q 576 310 603 265 q 498 392 549 356 q 375 461 447 428 l 317 489 q 162 599 213 539 q 111 754 111 660 q 147 885 111 828 q 247 974 183 942 q 392 1006 310 1006 q 488 990 449 1006 q 549 964 526 975 q 606 946 585 946 q 632 989 628 946 l 667 989 l 663 856 l 665 721 l 631 721 q 588 853 622 799 q 503 938 553 908 q 399 967 454 967 q 266 919 317 967 q 215 799 215 872 q 267 674 215 719 q 400 589 318 629 l 457 561 q 588 484 533 524 q 673 392 643 444 q 703 260 703 339 q 666 115 703 178 q 567 19 629 53 q 429 -15 506 -15 m 382 1056 l 251 1306 l 285 1306 l 393 1176 l 401 1176 l 510 1306 l 543 1306 l 413 1056 l 382 1056 z "},"Ş":{"ha":779,"x_min":83,"x_max":703,"o":"m 429 -15 q 328 3 374 -15 q 247 39 283 21 q 197 64 217 56 q 161 72 176 72 q 134 56 142 72 q 122 21 126 40 l 118 0 l 83 0 l 90 164 l 86 343 l 121 343 l 136 278 q 191 158 151 217 q 291 63 231 100 q 429 25 351 25 q 512 44 472 25 q 577 101 551 63 q 603 203 603 140 q 576 310 603 265 q 498 392 549 356 q 375 461 447 428 l 317 489 q 162 599 213 539 q 111 754 111 660 q 147 885 111 828 q 247 974 183 942 q 392 1006 310 1006 q 488 990 449 1006 q 549 964 526 975 q 606 946 585 946 q 632 989 628 946 l 667 989 l 663 856 l 665 721 l 631 721 q 588 853 622 799 q 503 938 553 908 q 399 967 454 967 q 266 919 317 967 q 215 799 215 872 q 267 674 215 719 q 400 589 318 629 l 457 561 q 588 484 533 524 q 673 392 643 444 q 703 260 703 339 q 666 115 703 178 q 567 19 629 53 q 429 -15 506 -15 m 385 -406 q 287 -369 322 -406 q 242 -292 251 -332 l 272 -282 q 306 -340 279 -314 q 376 -367 333 -367 q 450 -324 425 -367 q 475 -231 475 -281 q 451 -148 475 -182 q 381 -114 426 -114 q 333 -130 357 -114 q 294 -169 310 -146 l 267 -151 q 326 -94 289 -112 q 403 -79 363 -76 q 475 -101 443 -81 q 526 -157 507 -122 q 546 -235 546 -192 q 524 -324 546 -286 q 465 -384 501 -362 q 385 -406 428 -406 m 424 -97 l 385 -93 l 417 0 l 458 0 l 424 -97 z "},"Ș":{"ha":779,"x_min":83,"x_max":703,"o":"m 429 -15 q 328 3 374 -15 q 247 39 283 21 q 197 64 217 56 q 161 72 176 72 q 134 56 142 72 q 122 21 126 40 l 118 0 l 83 0 l 90 164 l 86 343 l 121 343 l 136 278 q 191 158 151 217 q 291 63 231 100 q 429 25 351 25 q 512 44 472 25 q 577 101 551 63 q 603 203 603 140 q 576 310 603 265 q 498 392 549 356 q 375 461 447 428 l 317 489 q 162 599 213 539 q 111 754 111 660 q 147 885 111 828 q 247 974 183 942 q 392 1006 310 1006 q 488 990 449 1006 q 549 964 526 975 q 606 946 585 946 q 632 989 628 946 l 667 989 l 663 856 l 665 721 l 631 721 q 588 853 622 799 q 503 938 553 908 q 399 967 454 967 q 266 919 317 967 q 215 799 215 872 q 267 674 215 719 q 400 589 318 629 l 457 561 q 588 484 533 524 q 673 392 643 444 q 703 260 703 339 q 666 115 703 178 q 567 19 629 53 q 429 -15 506 -15 m 388 -411 l 375 -389 q 451 -322 415 -362 q 488 -226 488 -282 q 481 -183 488 -207 q 449 -160 474 -160 l 468 -153 l 457 -174 l 451 -162 q 465 -172 461 -162 q 469 -196 469 -181 q 459 -223 469 -210 q 424 -236 449 -236 q 387 -219 401 -236 q 372 -176 372 -203 q 388 -137 372 -154 q 433 -121 403 -121 q 499 -153 478 -121 q 521 -226 521 -186 q 481 -333 521 -286 q 388 -411 440 -381 z "},"ẞ":{"ha":1022,"x_min":28,"x_max":988,"o":"m 858 907 q 653 710 653 833 q 676 636 653 668 q 750 571 699 604 l 831 521 q 948 407 908 472 q 988 258 988 342 q 951 115 988 176 q 849 19 914 53 q 694 -15 783 -15 q 576 -2 640 -15 q 446 36 511 11 l 444 274 l 474 274 l 493 208 q 576 72 519 119 q 711 25 632 25 q 841 75 793 25 q 889 213 889 125 q 876 290 889 256 q 839 355 864 325 q 775 408 814 385 l 713 447 q 591 551 629 500 q 553 663 553 603 q 615 809 553 742 q 792 918 678 876 l 757 881 q 677 940 728 919 q 561 961 626 961 q 364 885 435 961 q 293 676 293 810 l 293 185 l 307 -1 l 235 0 l 233 0 l 28 -4 l 28 31 l 56 33 q 135 51 110 39 q 167 93 160 63 q 175 185 175 124 l 175 676 q 272 919 175 836 q 556 1001 369 1001 q 713 986 636 1001 q 858 940 790 971 l 858 907 z "},"T":{"ha":1033,"x_min":4,"x_max":1029,"o":"m 286 -4 l 286 31 l 317 33 q 410 51 381 40 q 448 93 439 63 q 457 185 457 124 l 457 974 l 575 974 l 575 185 q 584 93 575 124 q 623 51 593 63 q 715 33 653 40 l 746 31 l 746 -4 l 519 0 l 286 -4 m 999 700 q 944 825 968 776 q 896 901 919 874 q 845 938 872 928 q 781 949 818 949 l 261 949 q 190 940 219 949 q 138 905 161 931 q 90 830 114 879 q 33 701 65 781 l 4 708 l 39 879 l 54 990 l 450 986 l 582 986 l 979 990 l 994 879 l 1029 708 l 999 700 z "},"Ŧ":{"ha":1033,"x_min":4,"x_max":1029,"o":"m 286 -4 l 286 31 l 317 33 q 410 51 381 40 q 448 93 439 63 q 457 185 457 124 l 457 974 l 575 974 l 575 185 q 584 93 575 124 q 623 51 593 63 q 715 33 653 40 l 746 31 l 746 -4 l 519 0 l 286 -4 m 999 700 q 944 825 968 776 q 896 901 919 874 q 845 938 872 928 q 781 949 818 949 l 261 949 q 190 940 219 949 q 138 905 161 931 q 90 830 114 879 q 33 701 65 781 l 4 708 l 39 879 l 54 990 l 450 986 l 582 986 l 979 990 l 994 879 l 1029 708 l 999 700 m 249 471 l 249 515 l 783 515 l 783 471 l 249 471 z "},"Ť":{"ha":1033,"x_min":4,"x_max":1029,"o":"m 286 -4 l 286 31 l 317 33 q 410 51 381 40 q 448 93 439 63 q 457 185 457 124 l 457 974 l 575 974 l 575 185 q 584 93 575 124 q 623 51 593 63 q 715 33 653 40 l 746 31 l 746 -4 l 519 0 l 286 -4 m 999 700 q 944 825 968 776 q 896 901 919 874 q 845 938 872 928 q 781 949 818 949 l 261 949 q 190 940 219 949 q 138 905 161 931 q 90 830 114 879 q 33 701 65 781 l 4 708 l 39 879 l 54 990 l 450 986 l 582 986 l 979 990 l 994 879 l 1029 708 l 999 700 m 510 1056 l 379 1306 l 413 1306 l 521 1176 l 529 1176 l 638 1306 l 671 1306 l 540 1056 l 510 1056 z "},"Ţ":{"ha":1033,"x_min":4,"x_max":1029,"o":"m 286 -4 l 286 31 l 317 33 q 410 51 381 40 q 448 93 439 63 q 457 185 457 124 l 457 974 l 575 974 l 575 185 q 584 93 575 124 q 623 51 593 63 q 715 33 653 40 l 746 31 l 746 -4 l 519 0 l 286 -4 m 999 700 q 944 825 968 776 q 896 901 919 874 q 845 938 872 928 q 781 949 818 949 l 261 949 q 190 940 219 949 q 138 905 161 931 q 90 830 114 879 q 33 701 65 781 l 4 708 l 39 879 l 54 990 l 450 986 l 582 986 l 979 990 l 994 879 l 1029 708 l 999 700 m 469 -406 q 372 -369 407 -406 q 326 -292 336 -332 l 357 -282 q 391 -340 364 -314 q 461 -367 418 -367 q 535 -324 510 -367 q 560 -231 560 -281 q 535 -148 560 -182 q 465 -114 511 -114 q 418 -130 442 -114 q 379 -169 394 -146 l 351 -151 q 410 -94 374 -112 q 488 -79 447 -76 q 560 -101 528 -81 q 611 -157 592 -122 q 631 -235 631 -192 q 608 -324 631 -286 q 549 -384 586 -362 q 469 -406 513 -406 m 508 -97 l 469 -93 l 501 0 l 543 0 l 508 -97 z "},"Ț":{"ha":1033,"x_min":4,"x_max":1029,"o":"m 286 -4 l 286 31 l 317 33 q 410 51 381 40 q 448 93 439 63 q 457 185 457 124 l 457 974 l 575 974 l 575 185 q 584 93 575 124 q 623 51 593 63 q 715 33 653 40 l 746 31 l 746 -4 l 519 0 l 286 -4 m 999 700 q 944 825 968 776 q 896 901 919 874 q 845 938 872 928 q 781 949 818 949 l 261 949 q 190 940 219 949 q 138 905 161 931 q 90 830 114 879 q 33 701 65 781 l 4 708 l 39 879 l 54 990 l 450 986 l 582 986 l 979 990 l 994 879 l 1029 708 l 999 700 m 472 -411 l 460 -389 q 536 -322 500 -362 q 572 -226 572 -282 q 565 -183 572 -207 q 533 -160 558 -160 l 553 -153 l 542 -174 l 536 -162 q 550 -172 546 -162 q 554 -196 554 -181 q 544 -223 554 -210 q 508 -236 533 -236 q 472 -219 486 -236 q 457 -176 457 -203 q 472 -137 457 -154 q 518 -121 488 -121 q 584 -153 563 -121 q 606 -226 606 -186 q 565 -333 606 -286 q 472 -411 525 -381 z "},"U":{"ha":1042,"x_min":35,"x_max":1035,"o":"m 538 -15 q 272 67 361 -15 q 182 310 182 149 l 182 801 q 174 894 182 864 q 142 936 167 925 q 63 953 117 947 l 35 956 l 35 990 l 240 986 l 242 986 l 447 990 l 447 956 l 419 953 q 341 935 367 947 q 308 894 315 924 q 300 801 300 864 l 300 310 q 373 103 300 176 q 576 31 446 31 q 772 103 706 31 q 839 318 839 176 l 839 801 q 831 894 839 864 q 799 936 824 925 q 719 953 774 947 l 692 956 l 692 990 l 897 988 l 1035 990 l 1035 956 l 1007 953 q 928 935 954 947 q 895 894 903 924 q 888 801 888 864 l 888 318 q 801 68 888 151 q 538 -15 714 -15 z "},"Ú":{"ha":1042,"x_min":35,"x_max":1035,"o":"m 538 -15 q 272 67 361 -15 q 182 310 182 149 l 182 801 q 174 894 182 864 q 142 936 167 925 q 63 953 117 947 l 35 956 l 35 990 l 240 986 l 242 986 l 447 990 l 447 956 l 419 953 q 341 935 367 947 q 308 894 315 924 q 300 801 300 864 l 300 310 q 373 103 300 176 q 576 31 446 31 q 772 103 706 31 q 839 318 839 176 l 839 801 q 831 894 839 864 q 799 936 824 925 q 719 953 774 947 l 692 956 l 692 990 l 897 988 l 1035 990 l 1035 956 l 1007 953 q 928 935 954 947 q 895 894 903 924 q 888 801 888 864 l 888 318 q 801 68 888 151 q 538 -15 714 -15 m 538 1056 l 574 1306 l 686 1306 l 554 1056 l 538 1056 z "},"Ŭ":{"ha":1042,"x_min":35,"x_max":1035,"o":"m 538 -15 q 272 67 361 -15 q 182 310 182 149 l 182 801 q 174 894 182 864 q 142 936 167 925 q 63 953 117 947 l 35 956 l 35 990 l 240 986 l 242 986 l 447 990 l 447 956 l 419 953 q 341 935 367 947 q 308 894 315 924 q 300 801 300 864 l 300 310 q 373 103 300 176 q 576 31 446 31 q 772 103 706 31 q 839 318 839 176 l 839 801 q 831 894 839 864 q 799 936 824 925 q 719 953 774 947 l 692 956 l 692 990 l 897 988 l 1035 990 l 1035 956 l 1007 953 q 928 935 954 947 q 895 894 903 924 q 888 801 888 864 l 888 318 q 801 68 888 151 q 538 -15 714 -15 m 568 1078 q 463 1124 499 1078 q 428 1239 428 1171 l 428 1285 l 463 1285 l 463 1278 q 490 1185 463 1210 q 568 1161 518 1161 q 646 1185 618 1161 q 674 1278 674 1210 l 674 1285 l 708 1285 l 708 1239 q 673 1124 708 1171 q 568 1078 638 1078 z "},"Ǔ":{"ha":1042,"x_min":35,"x_max":1035,"o":"m 538 -15 q 272 67 361 -15 q 182 310 182 149 l 182 801 q 174 894 182 864 q 142 936 167 925 q 63 953 117 947 l 35 956 l 35 990 l 240 986 l 242 986 l 447 990 l 447 956 l 419 953 q 341 935 367 947 q 308 894 315 924 q 300 801 300 864 l 300 310 q 373 103 300 176 q 576 31 446 31 q 772 103 706 31 q 839 318 839 176 l 839 801 q 831 894 839 864 q 799 936 824 925 q 719 953 774 947 l 692 956 l 692 990 l 897 988 l 1035 990 l 1035 956 l 1007 953 q 928 935 954 947 q 895 894 903 924 q 888 801 888 864 l 888 318 q 801 68 888 151 q 538 -15 714 -15 m 554 1056 l 424 1306 l 457 1306 l 565 1176 l 574 1176 l 682 1306 l 715 1306 l 585 1056 l 554 1056 z "},"Û":{"ha":1042,"x_min":35,"x_max":1035,"o":"m 538 -15 q 272 67 361 -15 q 182 310 182 149 l 182 801 q 174 894 182 864 q 142 936 167 925 q 63 953 117 947 l 35 956 l 35 990 l 240 986 l 242 986 l 447 990 l 447 956 l 419 953 q 341 935 367 947 q 308 894 315 924 q 300 801 300 864 l 300 310 q 373 103 300 176 q 576 31 446 31 q 772 103 706 31 q 839 318 839 176 l 839 801 q 831 894 839 864 q 799 936 824 925 q 719 953 774 947 l 692 956 l 692 990 l 897 988 l 1035 990 l 1035 956 l 1007 953 q 928 935 954 947 q 895 894 903 924 q 888 801 888 864 l 888 318 q 801 68 888 151 q 538 -15 714 -15 m 421 1057 l 551 1306 l 582 1306 l 713 1057 l 679 1057 l 571 1185 l 563 1185 l 454 1057 l 421 1057 z "},"Ü":{"ha":1042,"x_min":35,"x_max":1035,"o":"m 538 -15 q 272 67 361 -15 q 182 310 182 149 l 182 801 q 174 894 182 864 q 142 936 167 925 q 63 953 117 947 l 35 956 l 35 990 l 240 986 l 242 986 l 447 990 l 447 956 l 419 953 q 341 935 367 947 q 308 894 315 924 q 300 801 300 864 l 300 310 q 373 103 300 176 q 576 31 446 31 q 772 103 706 31 q 839 318 839 176 l 839 801 q 831 894 839 864 q 799 936 824 925 q 719 953 774 947 l 692 956 l 692 990 l 897 988 l 1035 990 l 1035 956 l 1007 953 q 928 935 954 947 q 895 894 903 924 q 888 801 888 864 l 888 318 q 801 68 888 151 q 538 -15 714 -15 m 436 1101 q 384 1124 403 1101 q 365 1181 365 1147 q 384 1235 365 1213 q 436 1258 403 1258 q 489 1235 472 1258 q 506 1181 506 1213 q 489 1124 506 1147 q 436 1101 472 1101 m 700 1101 q 648 1124 667 1101 q 629 1181 629 1147 q 648 1235 629 1213 q 700 1258 667 1258 q 753 1235 736 1258 q 769 1181 769 1213 q 753 1124 769 1147 q 700 1101 736 1101 z "},"Ǘ":{"ha":1042,"x_min":35,"x_max":1035,"o":"m 538 -15 q 272 67 361 -15 q 182 310 182 149 l 182 801 q 174 894 182 864 q 142 936 167 925 q 63 953 117 947 l 35 956 l 35 990 l 240 986 l 242 986 l 447 990 l 447 956 l 419 953 q 341 935 367 947 q 308 894 315 924 q 300 801 300 864 l 300 310 q 373 103 300 176 q 576 31 446 31 q 772 103 706 31 q 839 318 839 176 l 839 801 q 831 894 839 864 q 799 936 824 925 q 719 953 774 947 l 692 956 l 692 990 l 897 988 l 1035 990 l 1035 956 l 1007 953 q 928 935 954 947 q 895 894 903 924 q 888 801 888 864 l 888 318 q 801 68 888 151 q 538 -15 714 -15 m 436 1101 q 384 1124 403 1101 q 365 1181 365 1147 q 384 1235 365 1213 q 436 1258 403 1258 q 489 1235 472 1258 q 506 1181 506 1213 q 489 1124 506 1147 q 436 1101 472 1101 m 700 1101 q 648 1124 667 1101 q 629 1181 629 1147 q 648 1235 629 1213 q 700 1258 667 1258 q 753 1235 736 1258 q 769 1181 769 1213 q 753 1124 769 1147 q 700 1101 736 1101 m 538 1347 l 574 1597 l 686 1597 l 554 1347 l 538 1347 z "},"Ǚ":{"ha":1042,"x_min":35,"x_max":1035,"o":"m 538 -15 q 272 67 361 -15 q 182 310 182 149 l 182 801 q 174 894 182 864 q 142 936 167 925 q 63 953 117 947 l 35 956 l 35 990 l 240 986 l 242 986 l 447 990 l 447 956 l 419 953 q 341 935 367 947 q 308 894 315 924 q 300 801 300 864 l 300 310 q 373 103 300 176 q 576 31 446 31 q 772 103 706 31 q 839 318 839 176 l 839 801 q 831 894 839 864 q 799 936 824 925 q 719 953 774 947 l 692 956 l 692 990 l 897 988 l 1035 990 l 1035 956 l 1007 953 q 928 935 954 947 q 895 894 903 924 q 888 801 888 864 l 888 318 q 801 68 888 151 q 538 -15 714 -15 m 436 1101 q 384 1124 403 1101 q 365 1181 365 1147 q 384 1235 365 1213 q 436 1258 403 1258 q 489 1235 472 1258 q 506 1181 506 1213 q 489 1124 506 1147 q 436 1101 472 1101 m 700 1101 q 648 1124 667 1101 q 629 1181 629 1147 q 648 1235 629 1213 q 700 1258 667 1258 q 753 1235 736 1258 q 769 1181 769 1213 q 753 1124 769 1147 q 700 1101 736 1101 m 554 1347 l 424 1597 l 457 1597 l 565 1468 l 574 1468 l 682 1597 l 715 1597 l 585 1347 l 554 1347 z "},"Ǜ":{"ha":1042,"x_min":35,"x_max":1035,"o":"m 538 -15 q 272 67 361 -15 q 182 310 182 149 l 182 801 q 174 894 182 864 q 142 936 167 925 q 63 953 117 947 l 35 956 l 35 990 l 240 986 l 242 986 l 447 990 l 447 956 l 419 953 q 341 935 367 947 q 308 894 315 924 q 300 801 300 864 l 300 310 q 373 103 300 176 q 576 31 446 31 q 772 103 706 31 q 839 318 839 176 l 839 801 q 831 894 839 864 q 799 936 824 925 q 719 953 774 947 l 692 956 l 692 990 l 897 988 l 1035 990 l 1035 956 l 1007 953 q 928 935 954 947 q 895 894 903 924 q 888 801 888 864 l 888 318 q 801 68 888 151 q 538 -15 714 -15 m 436 1101 q 384 1124 403 1101 q 365 1181 365 1147 q 384 1235 365 1213 q 436 1258 403 1258 q 489 1235 472 1258 q 506 1181 506 1213 q 489 1124 506 1147 q 436 1101 472 1101 m 700 1101 q 648 1124 667 1101 q 629 1181 629 1147 q 648 1235 629 1213 q 700 1258 667 1258 q 753 1235 736 1258 q 769 1181 769 1213 q 753 1124 769 1147 q 700 1101 736 1101 m 599 1347 l 582 1347 l 450 1597 l 563 1597 l 599 1347 z "},"Ǖ":{"ha":1042,"x_min":35,"x_max":1035,"o":"m 538 -15 q 272 67 361 -15 q 182 310 182 149 l 182 801 q 174 894 182 864 q 142 936 167 925 q 63 953 117 947 l 35 956 l 35 990 l 240 986 l 242 986 l 447 990 l 447 956 l 419 953 q 341 935 367 947 q 308 894 315 924 q 300 801 300 864 l 300 310 q 373 103 300 176 q 576 31 446 31 q 772 103 706 31 q 839 318 839 176 l 839 801 q 831 894 839 864 q 799 936 824 925 q 719 953 774 947 l 692 956 l 692 990 l 897 988 l 1035 990 l 1035 956 l 1007 953 q 928 935 954 947 q 895 894 903 924 q 888 801 888 864 l 888 318 q 801 68 888 151 q 538 -15 714 -15 m 436 1101 q 384 1124 403 1101 q 365 1181 365 1147 q 384 1235 365 1213 q 436 1258 403 1258 q 489 1235 472 1258 q 506 1181 506 1213 q 489 1124 506 1147 q 436 1101 472 1101 m 700 1101 q 648 1124 667 1101 q 629 1181 629 1147 q 648 1235 629 1213 q 700 1258 667 1258 q 753 1235 736 1258 q 769 1181 769 1213 q 753 1124 769 1147 q 700 1101 736 1101 m 411 1444 l 411 1500 l 726 1500 l 726 1444 l 411 1444 z "},"Ù":{"ha":1042,"x_min":35,"x_max":1035,"o":"m 538 -15 q 272 67 361 -15 q 182 310 182 149 l 182 801 q 174 894 182 864 q 142 936 167 925 q 63 953 117 947 l 35 956 l 35 990 l 240 986 l 242 986 l 447 990 l 447 956 l 419 953 q 341 935 367 947 q 308 894 315 924 q 300 801 300 864 l 300 310 q 373 103 300 176 q 576 31 446 31 q 772 103 706 31 q 839 318 839 176 l 839 801 q 831 894 839 864 q 799 936 824 925 q 719 953 774 947 l 692 956 l 692 990 l 897 988 l 1035 990 l 1035 956 l 1007 953 q 928 935 954 947 q 895 894 903 924 q 888 801 888 864 l 888 318 q 801 68 888 151 q 538 -15 714 -15 m 599 1056 l 582 1056 l 450 1306 l 563 1306 l 599 1056 z "},"Ű":{"ha":1042,"x_min":35,"x_max":1035,"o":"m 538 -15 q 272 67 361 -15 q 182 310 182 149 l 182 801 q 174 894 182 864 q 142 936 167 925 q 63 953 117 947 l 35 956 l 35 990 l 240 986 l 242 986 l 447 990 l 447 956 l 419 953 q 341 935 367 947 q 308 894 315 924 q 300 801 300 864 l 300 310 q 373 103 300 176 q 576 31 446 31 q 772 103 706 31 q 839 318 839 176 l 839 801 q 831 894 839 864 q 799 936 824 925 q 719 953 774 947 l 692 956 l 692 990 l 897 988 l 1035 990 l 1035 956 l 1007 953 q 928 935 954 947 q 895 894 903 924 q 888 801 888 864 l 888 318 q 801 68 888 151 q 538 -15 714 -15 m 453 1056 l 489 1306 l 601 1306 l 469 1056 l 453 1056 m 638 1057 l 674 1307 l 786 1307 l 654 1057 l 638 1057 z "},"Ū":{"ha":1042,"x_min":35,"x_max":1035,"o":"m 538 -15 q 272 67 361 -15 q 182 310 182 149 l 182 801 q 174 894 182 864 q 142 936 167 925 q 63 953 117 947 l 35 956 l 35 990 l 240 986 l 242 986 l 447 990 l 447 956 l 419 953 q 341 935 367 947 q 308 894 315 924 q 300 801 300 864 l 300 310 q 373 103 300 176 q 576 31 446 31 q 772 103 706 31 q 839 318 839 176 l 839 801 q 831 894 839 864 q 799 936 824 925 q 719 953 774 947 l 692 956 l 692 990 l 897 988 l 1035 990 l 1035 956 l 1007 953 q 928 935 954 947 q 895 894 903 924 q 888 801 888 864 l 888 318 q 801 68 888 151 q 538 -15 714 -15 m 411 1153 l 411 1208 l 726 1208 l 726 1153 l 411 1153 z "},"Ų":{"ha":1042,"x_min":35,"x_max":1035,"o":"m 601 -408 q 488 -366 532 -408 q 444 -256 444 -324 q 493 -112 444 -179 q 619 7 542 -44 l 635 -10 q 587 -13 613 -11 q 538 -15 561 -15 q 272 67 361 -15 q 182 310 182 149 l 182 801 q 174 894 182 864 q 142 936 167 925 q 63 953 117 947 l 35 956 l 35 990 l 240 986 l 242 986 l 447 990 l 447 956 l 419 953 q 341 935 367 947 q 308 894 315 924 q 300 801 300 864 l 300 310 q 373 103 300 176 q 576 31 446 31 q 772 103 706 31 q 839 318 839 176 l 839 801 q 831 894 839 864 q 799 936 824 925 q 719 953 774 947 l 692 956 l 692 990 l 897 988 l 1035 990 l 1035 956 l 1007 953 q 928 935 954 947 q 895 894 903 924 q 888 801 888 864 l 888 318 q 682 3 888 65 q 599 -46 636 -11 q 540 -127 563 -81 q 518 -224 518 -174 q 545 -303 518 -275 q 619 -332 572 -332 q 695 -307 661 -332 q 751 -236 729 -282 l 775 -253 q 712 -369 757 -329 q 601 -408 667 -408 z "},"Ů":{"ha":1042,"x_min":35,"x_max":1035,"o":"m 538 -15 q 272 67 361 -15 q 182 310 182 149 l 182 801 q 174 894 182 864 q 142 936 167 925 q 63 953 117 947 l 35 956 l 35 990 l 240 986 l 242 986 l 447 990 l 447 956 l 419 953 q 341 935 367 947 q 308 894 315 924 q 300 801 300 864 l 300 310 q 373 103 300 176 q 576 31 446 31 q 772 103 706 31 q 839 318 839 176 l 839 801 q 831 894 839 864 q 799 936 824 925 q 719 953 774 947 l 692 956 l 692 990 l 897 988 l 1035 990 l 1035 956 l 1007 953 q 928 935 954 947 q 895 894 903 924 q 888 801 888 864 l 888 318 q 801 68 888 151 q 538 -15 714 -15 m 571 986 q 484 1021 517 986 q 451 1104 451 1056 q 482 1185 451 1149 q 569 1222 513 1222 q 637 1203 611 1222 q 674 1158 663 1185 q 686 1104 686 1131 q 669 1038 686 1064 q 625 999 651 1011 q 571 986 599 986 m 571 1029 q 619 1048 597 1029 q 640 1104 640 1067 q 619 1160 640 1140 q 569 1179 597 1179 q 522 1162 546 1179 q 497 1104 497 1144 q 519 1049 497 1069 q 571 1029 542 1029 z "},"Ũ":{"ha":1042,"x_min":35,"x_max":1035,"o":"m 538 -15 q 272 67 361 -15 q 182 310 182 149 l 182 801 q 174 894 182 864 q 142 936 167 925 q 63 953 117 947 l 35 956 l 35 990 l 240 986 l 242 986 l 447 990 l 447 956 l 419 953 q 341 935 367 947 q 308 894 315 924 q 300 801 300 864 l 300 310 q 373 103 300 176 q 576 31 446 31 q 772 103 706 31 q 839 318 839 176 l 839 801 q 831 894 839 864 q 799 936 824 925 q 719 953 774 947 l 692 956 l 692 990 l 897 988 l 1035 990 l 1035 956 l 1007 953 q 928 935 954 947 q 895 894 903 924 q 888 801 888 864 l 888 318 q 801 68 888 151 q 538 -15 714 -15 m 674 1100 q 622 1113 647 1100 q 579 1135 597 1125 l 543 1157 q 498 1183 518 1172 q 458 1193 478 1193 q 406 1167 428 1193 q 376 1115 383 1140 l 350 1115 q 363 1170 350 1136 q 401 1232 375 1204 q 469 1260 428 1260 q 522 1246 496 1260 q 563 1224 549 1232 l 614 1193 q 646 1177 625 1188 q 685 1167 667 1167 q 731 1188 713 1167 q 760 1238 750 1208 l 786 1238 q 747 1138 779 1175 q 674 1100 715 1100 z "},"V":{"ha":1018,"x_min":-21,"x_max":1039,"o":"m 494 -14 l 131 843 q 82 916 111 892 q 7 950 53 940 l -21 956 l -21 990 l 186 986 l 393 990 l 393 956 l 351 951 q 266 912 286 946 q 272 815 246 878 l 572 104 l 535 104 l 822 817 q 831 911 847 879 q 754 950 815 943 l 706 956 l 706 990 l 900 986 l 1039 990 l 1039 957 l 1007 950 q 951 928 975 943 q 908 885 926 913 q 872 815 890 858 l 539 -14 l 494 -14 z "},"W":{"ha":1457,"x_min":-21,"x_max":1478,"o":"m 410 -12 l 138 825 q 90 909 119 879 q 11 949 60 939 l -21 956 l -21 990 l 188 986 l 393 990 l 393 956 l 354 951 q 262 916 283 944 q 261 831 240 888 l 489 126 l 456 126 l 715 832 q 714 910 733 882 q 636 946 694 938 l 581 954 l 586 990 l 644 983 q 733 960 701 978 q 771 911 764 942 l 757 897 q 907 988 779 982 l 958 990 l 961 954 l 908 950 q 828 910 847 946 q 832 808 808 874 l 1082 132 l 1050 132 l 1268 847 q 1266 919 1282 897 q 1193 949 1250 942 l 1147 954 l 1147 990 l 1331 986 l 1478 990 l 1478 954 l 1444 949 q 1386 932 1411 943 q 1345 903 1361 921 q 1322 863 1329 886 l 1056 -12 l 1011 -12 l 722 758 l 739 760 l 454 -12 l 410 -12 z "},"Ẃ":{"ha":1457,"x_min":-21,"x_max":1478,"o":"m 410 -12 l 138 825 q 90 909 119 879 q 11 949 60 939 l -21 956 l -21 990 l 188 986 l 393 990 l 393 956 l 354 951 q 262 916 283 944 q 261 831 240 888 l 489 126 l 456 126 l 715 832 q 714 910 733 882 q 636 946 694 938 l 581 954 l 586 990 l 644 983 q 733 960 701 978 q 771 911 764 942 l 757 897 q 907 988 779 982 l 958 990 l 961 954 l 908 950 q 828 910 847 946 q 832 808 808 874 l 1082 132 l 1050 132 l 1268 847 q 1266 919 1282 897 q 1193 949 1250 942 l 1147 954 l 1147 990 l 1331 986 l 1478 990 l 1478 954 l 1444 949 q 1386 932 1411 943 q 1345 903 1361 921 q 1322 863 1329 886 l 1056 -12 l 1011 -12 l 722 758 l 739 760 l 454 -12 l 410 -12 m 725 1056 l 761 1306 l 874 1306 l 742 1056 l 725 1056 z "},"Ŵ":{"ha":1457,"x_min":-21,"x_max":1478,"o":"m 410 -12 l 138 825 q 90 909 119 879 q 11 949 60 939 l -21 956 l -21 990 l 188 986 l 393 990 l 393 956 l 354 951 q 262 916 283 944 q 261 831 240 888 l 489 126 l 456 126 l 715 832 q 714 910 733 882 q 636 946 694 938 l 581 954 l 586 990 l 644 983 q 733 960 701 978 q 771 911 764 942 l 757 897 q 907 988 779 982 l 958 990 l 961 954 l 908 950 q 828 910 847 946 q 832 808 808 874 l 1082 132 l 1050 132 l 1268 847 q 1266 919 1282 897 q 1193 949 1250 942 l 1147 954 l 1147 990 l 1331 986 l 1478 990 l 1478 954 l 1444 949 q 1386 932 1411 943 q 1345 903 1361 921 q 1322 863 1329 886 l 1056 -12 l 1011 -12 l 722 758 l 739 760 l 454 -12 l 410 -12 m 608 1057 l 739 1306 l 769 1306 l 900 1057 l 867 1057 l 758 1185 l 750 1185 l 642 1057 l 608 1057 z "},"Ẅ":{"ha":1457,"x_min":-21,"x_max":1478,"o":"m 410 -12 l 138 825 q 90 909 119 879 q 11 949 60 939 l -21 956 l -21 990 l 188 986 l 393 990 l 393 956 l 354 951 q 262 916 283 944 q 261 831 240 888 l 489 126 l 456 126 l 715 832 q 714 910 733 882 q 636 946 694 938 l 581 954 l 586 990 l 644 983 q 733 960 701 978 q 771 911 764 942 l 757 897 q 907 988 779 982 l 958 990 l 961 954 l 908 950 q 828 910 847 946 q 832 808 808 874 l 1082 132 l 1050 132 l 1268 847 q 1266 919 1282 897 q 1193 949 1250 942 l 1147 954 l 1147 990 l 1331 986 l 1478 990 l 1478 954 l 1444 949 q 1386 932 1411 943 q 1345 903 1361 921 q 1322 863 1329 886 l 1056 -12 l 1011 -12 l 722 758 l 739 760 l 454 -12 l 410 -12 m 624 1101 q 572 1124 590 1101 q 553 1181 553 1147 q 572 1235 553 1213 q 624 1258 590 1258 q 676 1235 660 1258 q 693 1181 693 1213 q 676 1124 693 1147 q 624 1101 660 1101 m 888 1101 q 835 1124 854 1101 q 817 1181 817 1147 q 835 1235 817 1213 q 888 1258 854 1258 q 940 1235 924 1258 q 957 1181 957 1213 q 940 1124 957 1147 q 888 1101 924 1101 z "},"Ẁ":{"ha":1457,"x_min":-21,"x_max":1478,"o":"m 410 -12 l 138 825 q 90 909 119 879 q 11 949 60 939 l -21 956 l -21 990 l 188 986 l 393 990 l 393 956 l 354 951 q 262 916 283 944 q 261 831 240 888 l 489 126 l 456 126 l 715 832 q 714 910 733 882 q 636 946 694 938 l 581 954 l 586 990 l 644 983 q 733 960 701 978 q 771 911 764 942 l 757 897 q 907 988 779 982 l 958 990 l 961 954 l 908 950 q 828 910 847 946 q 832 808 808 874 l 1082 132 l 1050 132 l 1268 847 q 1266 919 1282 897 q 1193 949 1250 942 l 1147 954 l 1147 990 l 1331 986 l 1478 990 l 1478 954 l 1444 949 q 1386 932 1411 943 q 1345 903 1361 921 q 1322 863 1329 886 l 1056 -12 l 1011 -12 l 722 758 l 739 760 l 454 -12 l 410 -12 m 786 1056 l 769 1056 l 638 1306 l 750 1306 l 786 1056 z "},"X":{"ha":982,"x_min":-14,"x_max":996,"o":"m 551 -4 l 551 31 l 608 36 q 672 78 665 42 q 638 179 679 115 l 208 825 q 158 891 182 867 q 106 928 135 915 q 33 950 76 942 l 6 956 l 6 990 l 235 986 l 450 990 l 450 956 l 392 949 q 321 908 328 942 q 361 801 314 874 l 786 165 q 839 100 813 126 q 894 58 865 74 q 954 38 922 43 l 996 31 l 996 -4 l 789 0 l 551 -4 m -14 -4 l -14 31 l 15 35 q 88 57 56 42 q 149 101 119 72 q 211 175 179 131 l 442 492 l 471 456 l 253 151 q 231 76 224 111 q 278 36 239 40 l 331 31 l 331 -4 l 158 0 l -14 -4 m 539 521 l 510 558 l 707 833 q 729 913 739 881 q 671 950 719 944 l 625 956 l 625 990 l 808 986 l 969 990 l 969 956 l 940 953 q 844 911 893 947 q 749 810 796 875 l 539 521 z "},"Y":{"ha":919,"x_min":-28,"x_max":947,"o":"m 261 -4 l 261 31 l 289 33 q 368 51 343 40 q 401 93 393 63 q 408 185 408 124 l 408 399 l 165 824 q 122 888 143 864 q 74 926 100 913 q 13 947 49 940 l -28 956 l -28 990 l 183 986 l 392 990 l 392 956 l 347 951 q 301 808 226 942 l 529 413 l 479 413 l 706 808 q 734 912 746 878 q 657 951 722 946 l 617 956 l 617 990 l 800 983 l 947 990 l 947 956 l 910 949 q 859 931 881 943 q 819 898 838 919 q 779 842 800 876 l 526 400 l 526 185 q 534 93 526 124 q 567 51 542 63 q 646 33 593 40 l 674 31 l 674 -4 l 468 0 l 467 0 l 261 -4 z "},"Ý":{"ha":919,"x_min":-28,"x_max":947,"o":"m 261 -4 l 261 31 l 289 33 q 368 51 343 40 q 401 93 393 63 q 408 185 408 124 l 408 399 l 165 824 q 122 888 143 864 q 74 926 100 913 q 13 947 49 940 l -28 956 l -28 990 l 183 986 l 392 990 l 392 956 l 347 951 q 301 808 226 942 l 529 413 l 479 413 l 706 808 q 734 912 746 878 q 657 951 722 946 l 617 956 l 617 990 l 800 983 l 947 990 l 947 956 l 910 949 q 859 931 881 943 q 819 898 838 919 q 779 842 800 876 l 526 400 l 526 185 q 534 93 526 124 q 567 51 542 63 q 646 33 593 40 l 674 31 l 674 -4 l 468 0 l 467 0 l 261 -4 m 464 1056 l 500 1306 l 613 1306 l 481 1056 l 464 1056 z "},"Ŷ":{"ha":919,"x_min":-28,"x_max":947,"o":"m 261 -4 l 261 31 l 289 33 q 368 51 343 40 q 401 93 393 63 q 408 185 408 124 l 408 399 l 165 824 q 122 888 143 864 q 74 926 100 913 q 13 947 49 940 l -28 956 l -28 990 l 183 986 l 392 990 l 392 956 l 347 951 q 301 808 226 942 l 529 413 l 479 413 l 706 808 q 734 912 746 878 q 657 951 722 946 l 617 956 l 617 990 l 800 983 l 947 990 l 947 956 l 910 949 q 859 931 881 943 q 819 898 838 919 q 779 842 800 876 l 526 400 l 526 185 q 534 93 526 124 q 567 51 542 63 q 646 33 593 40 l 674 31 l 674 -4 l 468 0 l 467 0 l 261 -4 m 347 1057 l 478 1306 l 508 1306 l 639 1057 l 606 1057 l 497 1185 l 489 1185 l 381 1057 l 347 1057 z "},"Ÿ":{"ha":919,"x_min":-28,"x_max":947,"o":"m 261 -4 l 261 31 l 289 33 q 368 51 343 40 q 401 93 393 63 q 408 185 408 124 l 408 399 l 165 824 q 122 888 143 864 q 74 926 100 913 q 13 947 49 940 l -28 956 l -28 990 l 183 986 l 392 990 l 392 956 l 347 951 q 301 808 226 942 l 529 413 l 479 413 l 706 808 q 734 912 746 878 q 657 951 722 946 l 617 956 l 617 990 l 800 983 l 947 990 l 947 956 l 910 949 q 859 931 881 943 q 819 898 838 919 q 779 842 800 876 l 526 400 l 526 185 q 534 93 526 124 q 567 51 542 63 q 646 33 593 40 l 674 31 l 674 -4 l 468 0 l 467 0 l 261 -4 m 363 1101 q 310 1124 329 1101 q 292 1181 292 1147 q 310 1235 292 1213 q 363 1258 329 1258 q 415 1235 399 1258 q 432 1181 432 1213 q 415 1124 432 1147 q 363 1101 399 1101 m 626 1101 q 574 1124 593 1101 q 556 1181 556 1147 q 574 1235 556 1213 q 626 1258 593 1258 q 679 1235 663 1258 q 696 1181 696 1213 q 679 1124 696 1147 q 626 1101 663 1101 z "},"Ỳ":{"ha":919,"x_min":-28,"x_max":947,"o":"m 261 -4 l 261 31 l 289 33 q 368 51 343 40 q 401 93 393 63 q 408 185 408 124 l 408 399 l 165 824 q 122 888 143 864 q 74 926 100 913 q 13 947 49 940 l -28 956 l -28 990 l 183 986 l 392 990 l 392 956 l 347 951 q 301 808 226 942 l 529 413 l 479 413 l 706 808 q 734 912 746 878 q 657 951 722 946 l 617 956 l 617 990 l 800 983 l 947 990 l 947 956 l 910 949 q 859 931 881 943 q 819 898 838 919 q 779 842 800 876 l 526 400 l 526 185 q 534 93 526 124 q 567 51 542 63 q 646 33 593 40 l 674 31 l 674 -4 l 468 0 l 467 0 l 261 -4 m 525 1056 l 508 1056 l 376 1306 l 489 1306 l 525 1056 z "},"Ỹ":{"ha":919,"x_min":-28,"x_max":947,"o":"m 261 -4 l 261 31 l 289 33 q 368 51 343 40 q 401 93 393 63 q 408 185 408 124 l 408 399 l 165 824 q 122 888 143 864 q 74 926 100 913 q 13 947 49 940 l -28 956 l -28 990 l 183 986 l 392 990 l 392 956 l 347 951 q 301 808 226 942 l 529 413 l 479 413 l 706 808 q 734 912 746 878 q 657 951 722 946 l 617 956 l 617 990 l 800 983 l 947 990 l 947 956 l 910 949 q 859 931 881 943 q 819 898 838 919 q 779 842 800 876 l 526 400 l 526 185 q 534 93 526 124 q 567 51 542 63 q 646 33 593 40 l 674 31 l 674 -4 l 468 0 l 467 0 l 261 -4 m 600 1100 q 549 1113 574 1100 q 506 1135 524 1125 l 469 1157 q 424 1183 444 1172 q 385 1193 404 1193 q 332 1167 354 1193 q 303 1115 310 1140 l 276 1115 q 289 1170 276 1136 q 328 1232 301 1204 q 396 1260 354 1260 q 449 1246 422 1260 q 489 1224 475 1232 l 540 1193 q 572 1177 551 1188 q 611 1167 593 1167 q 658 1188 639 1167 q 686 1238 676 1208 l 713 1238 q 674 1138 706 1175 q 600 1100 642 1100 z "},"Z":{"ha":888,"x_min":42,"x_max":832,"o":"m 818 -4 l 532 0 l 42 0 l 42 36 l 699 981 l 717 944 l 401 942 q 263 932 317 940 q 178 901 208 924 q 132 838 147 879 q 107 731 117 797 l 74 731 l 89 915 l 92 989 l 501 986 l 813 990 l 813 943 l 161 6 l 143 42 l 525 44 q 669 74 615 46 q 752 174 722 103 q 799 371 782 244 l 832 371 l 818 139 l 818 -4 z "},"Ź":{"ha":888,"x_min":42,"x_max":832,"o":"m 818 -4 l 532 0 l 42 0 l 42 36 l 699 981 l 717 944 l 401 942 q 263 932 317 940 q 178 901 208 924 q 132 838 147 879 q 107 731 117 797 l 74 731 l 89 915 l 92 989 l 501 986 l 813 990 l 813 943 l 161 6 l 143 42 l 525 44 q 669 74 615 46 q 752 174 722 103 q 799 371 782 244 l 832 371 l 818 139 l 818 -4 m 399 1056 l 435 1306 l 547 1306 l 415 1056 l 399 1056 z "},"Ž":{"ha":888,"x_min":42,"x_max":832,"o":"m 818 -4 l 532 0 l 42 0 l 42 36 l 699 981 l 717 944 l 401 942 q 263 932 317 940 q 178 901 208 924 q 132 838 147 879 q 107 731 117 797 l 74 731 l 89 915 l 92 989 l 501 986 l 813 990 l 813 943 l 161 6 l 143 42 l 525 44 q 669 74 615 46 q 752 174 722 103 q 799 371 782 244 l 832 371 l 818 139 l 818 -4 m 415 1056 l 285 1306 l 318 1306 l 426 1176 l 435 1176 l 543 1306 l 576 1306 l 446 1056 l 415 1056 z "},"Ż":{"ha":888,"x_min":42,"x_max":832,"o":"m 818 -4 l 532 0 l 42 0 l 42 36 l 699 981 l 717 944 l 401 942 q 263 932 317 940 q 178 901 208 924 q 132 838 147 879 q 107 731 117 797 l 74 731 l 89 915 l 92 989 l 501 986 l 813 990 l 813 943 l 161 6 l 143 42 l 525 44 q 669 74 615 46 q 752 174 722 103 q 799 371 782 244 l 832 371 l 818 139 l 818 -4 m 429 1096 q 372 1121 393 1096 q 351 1181 351 1146 q 372 1241 351 1217 q 429 1265 393 1265 q 488 1241 469 1265 q 507 1181 507 1217 q 488 1121 507 1146 q 429 1096 469 1096 z "},"a":{"ha":681,"x_min":69,"x_max":681,"o":"m 563 -15 q 477 22 503 -15 q 451 144 451 60 l 451 444 q 420 561 451 526 q 315 596 389 596 q 235 583 265 596 q 206 550 206 571 q 208 538 206 544 q 211 524 210 532 q 218 485 218 496 q 201 447 218 463 q 156 431 183 431 q 113 449 129 431 q 96 497 96 468 q 127 566 96 536 q 213 613 158 596 q 339 631 268 631 q 499 578 449 631 q 549 411 549 526 l 549 161 q 560 62 549 90 q 597 33 571 33 q 633 47 617 33 q 656 82 649 60 l 681 72 q 563 -15 656 -15 m 226 -15 q 113 19 156 -15 q 69 110 69 54 q 113 210 69 163 q 250 310 156 258 q 343 356 292 333 q 457 401 394 379 l 458 375 q 251 253 324 319 q 178 121 178 186 q 201 58 178 81 q 268 36 225 36 q 345 56 307 36 q 413 109 383 76 q 456 181 443 142 l 464 135 q 366 25 429 65 q 226 -15 303 -15 z "},"á":{"ha":681,"x_min":69,"x_max":681,"o":"m 563 -15 q 477 22 503 -15 q 451 144 451 60 l 451 444 q 420 561 451 526 q 315 596 389 596 q 235 583 265 596 q 206 550 206 571 q 208 538 206 544 q 211 524 210 532 q 218 485 218 496 q 201 447 218 463 q 156 431 183 431 q 113 449 129 431 q 96 497 96 468 q 127 566 96 536 q 213 613 158 596 q 339 631 268 631 q 499 578 449 631 q 549 411 549 526 l 549 161 q 560 62 549 90 q 597 33 571 33 q 633 47 617 33 q 656 82 649 60 l 681 72 q 563 -15 656 -15 m 226 -15 q 113 19 156 -15 q 69 110 69 54 q 113 210 69 163 q 250 310 156 258 q 343 356 292 333 q 457 401 394 379 l 458 375 q 251 253 324 319 q 178 121 178 186 q 201 58 178 81 q 268 36 225 36 q 345 56 307 36 q 413 109 383 76 q 456 181 443 142 l 464 135 q 366 25 429 65 q 226 -15 303 -15 m 283 722 l 338 928 q 365 989 349 972 q 397 1006 381 1006 q 427 993 414 1006 q 440 956 440 981 q 434 922 440 939 q 417 888 428 904 l 314 722 l 283 722 z "},"ă":{"ha":681,"x_min":69,"x_max":681,"o":"m 563 -15 q 477 22 503 -15 q 451 144 451 60 l 451 444 q 420 561 451 526 q 315 596 389 596 q 235 583 265 596 q 206 550 206 571 q 208 538 206 544 q 211 524 210 532 q 218 485 218 496 q 201 447 218 463 q 156 431 183 431 q 113 449 129 431 q 96 497 96 468 q 127 566 96 536 q 213 613 158 596 q 339 631 268 631 q 499 578 449 631 q 549 411 549 526 l 549 161 q 560 62 549 90 q 597 33 571 33 q 633 47 617 33 q 656 82 649 60 l 681 72 q 563 -15 656 -15 m 226 -15 q 113 19 156 -15 q 69 110 69 54 q 113 210 69 163 q 250 310 156 258 q 343 356 292 333 q 457 401 394 379 l 458 375 q 251 253 324 319 q 178 121 178 186 q 201 58 178 81 q 268 36 225 36 q 345 56 307 36 q 413 109 383 76 q 456 181 443 142 l 464 135 q 366 25 429 65 q 226 -15 303 -15 m 335 751 q 230 798 265 751 q 194 913 194 844 l 194 958 l 229 958 l 229 951 q 257 859 229 883 q 335 835 285 835 q 413 859 385 835 q 440 951 440 883 l 440 958 l 475 958 l 475 913 q 440 798 475 844 q 335 751 404 751 z "},"ǎ":{"ha":681,"x_min":69,"x_max":681,"o":"m 563 -15 q 477 22 503 -15 q 451 144 451 60 l 451 444 q 420 561 451 526 q 315 596 389 596 q 235 583 265 596 q 206 550 206 571 q 208 538 206 544 q 211 524 210 532 q 218 485 218 496 q 201 447 218 463 q 156 431 183 431 q 113 449 129 431 q 96 497 96 468 q 127 566 96 536 q 213 613 158 596 q 339 631 268 631 q 499 578 449 631 q 549 411 549 526 l 549 161 q 560 62 549 90 q 597 33 571 33 q 633 47 617 33 q 656 82 649 60 l 681 72 q 563 -15 656 -15 m 226 -15 q 113 19 156 -15 q 69 110 69 54 q 113 210 69 163 q 250 310 156 258 q 343 356 292 333 q 457 401 394 379 l 458 375 q 251 253 324 319 q 178 121 178 186 q 201 58 178 81 q 268 36 225 36 q 345 56 307 36 q 413 109 383 76 q 456 181 443 142 l 464 135 q 366 25 429 65 q 226 -15 303 -15 m 319 722 l 189 986 l 222 986 l 331 850 l 339 850 l 447 986 l 481 986 l 350 722 l 319 722 z "},"â":{"ha":681,"x_min":69,"x_max":681,"o":"m 563 -15 q 477 22 503 -15 q 451 144 451 60 l 451 444 q 420 561 451 526 q 315 596 389 596 q 235 583 265 596 q 206 550 206 571 q 208 538 206 544 q 211 524 210 532 q 218 485 218 496 q 201 447 218 463 q 156 431 183 431 q 113 449 129 431 q 96 497 96 468 q 127 566 96 536 q 213 613 158 596 q 339 631 268 631 q 499 578 449 631 q 549 411 549 526 l 549 161 q 560 62 549 90 q 597 33 571 33 q 633 47 617 33 q 656 82 649 60 l 681 72 q 563 -15 656 -15 m 226 -15 q 113 19 156 -15 q 69 110 69 54 q 113 210 69 163 q 250 310 156 258 q 343 356 292 333 q 457 401 394 379 l 458 375 q 251 253 324 319 q 178 121 178 186 q 201 58 178 81 q 268 36 225 36 q 345 56 307 36 q 413 109 383 76 q 456 181 443 142 l 464 135 q 366 25 429 65 q 226 -15 303 -15 m 189 722 l 319 986 l 350 986 l 481 722 l 447 722 l 339 858 l 331 858 l 222 722 l 189 722 z "},"ä":{"ha":681,"x_min":69,"x_max":681,"o":"m 563 -15 q 477 22 503 -15 q 451 144 451 60 l 451 444 q 420 561 451 526 q 315 596 389 596 q 235 583 265 596 q 206 550 206 571 q 208 538 206 544 q 211 524 210 532 q 218 485 218 496 q 201 447 218 463 q 156 431 183 431 q 113 449 129 431 q 96 497 96 468 q 127 566 96 536 q 213 613 158 596 q 339 631 268 631 q 499 578 449 631 q 549 411 549 526 l 549 161 q 560 62 549 90 q 597 33 571 33 q 633 47 617 33 q 656 82 649 60 l 681 72 q 563 -15 656 -15 m 226 -15 q 113 19 156 -15 q 69 110 69 54 q 113 210 69 163 q 250 310 156 258 q 343 356 292 333 q 457 401 394 379 l 458 375 q 251 253 324 319 q 178 121 178 186 q 201 58 178 81 q 268 36 225 36 q 345 56 307 36 q 413 109 383 76 q 456 181 443 142 l 464 135 q 366 25 429 65 q 226 -15 303 -15 m 203 776 q 151 799 169 776 q 132 856 132 822 q 151 910 132 888 q 203 933 169 933 q 256 910 239 933 q 272 856 272 888 q 256 799 272 822 q 203 776 239 776 m 467 776 q 415 799 433 776 q 396 856 396 822 q 415 910 396 888 q 467 933 433 933 q 519 910 503 933 q 536 856 536 888 q 519 799 536 822 q 467 776 503 776 z "},"à":{"ha":681,"x_min":69,"x_max":681,"o":"m 563 -15 q 477 22 503 -15 q 451 144 451 60 l 451 444 q 420 561 451 526 q 315 596 389 596 q 235 583 265 596 q 206 550 206 571 q 208 538 206 544 q 211 524 210 532 q 218 485 218 496 q 201 447 218 463 q 156 431 183 431 q 113 449 129 431 q 96 497 96 468 q 127 566 96 536 q 213 613 158 596 q 339 631 268 631 q 499 578 449 631 q 549 411 549 526 l 549 161 q 560 62 549 90 q 597 33 571 33 q 633 47 617 33 q 656 82 649 60 l 681 72 q 563 -15 656 -15 m 226 -15 q 113 19 156 -15 q 69 110 69 54 q 113 210 69 163 q 250 310 156 258 q 343 356 292 333 q 457 401 394 379 l 458 375 q 251 253 324 319 q 178 121 178 186 q 201 58 178 81 q 268 36 225 36 q 345 56 307 36 q 413 109 383 76 q 456 181 443 142 l 464 135 q 366 25 429 65 q 226 -15 303 -15 m 342 722 l 239 888 q 222 922 229 904 q 215 956 215 939 q 228 993 215 981 q 258 1006 242 1006 q 291 989 275 1006 q 318 928 307 972 l 372 722 l 342 722 z "},"ā":{"ha":681,"x_min":69,"x_max":681,"o":"m 563 -15 q 477 22 503 -15 q 451 144 451 60 l 451 444 q 420 561 451 526 q 315 596 389 596 q 235 583 265 596 q 206 550 206 571 q 208 538 206 544 q 211 524 210 532 q 218 485 218 496 q 201 447 218 463 q 156 431 183 431 q 113 449 129 431 q 96 497 96 468 q 127 566 96 536 q 213 613 158 596 q 339 631 268 631 q 499 578 449 631 q 549 411 549 526 l 549 161 q 560 62 549 90 q 597 33 571 33 q 633 47 617 33 q 656 82 649 60 l 681 72 q 563 -15 656 -15 m 226 -15 q 113 19 156 -15 q 69 110 69 54 q 113 210 69 163 q 250 310 156 258 q 343 356 292 333 q 457 401 394 379 l 458 375 q 251 253 324 319 q 178 121 178 186 q 201 58 178 81 q 268 36 225 36 q 345 56 307 36 q 413 109 383 76 q 456 181 443 142 l 464 135 q 366 25 429 65 q 226 -15 303 -15 m 176 799 l 176 854 l 492 854 l 492 799 l 176 799 z "},"ą":{"ha":681,"x_min":69,"x_max":681,"o":"m 506 -394 q 394 -355 438 -394 q 351 -251 351 -315 q 407 -135 351 -196 q 593 14 463 -75 l 599 -7 q 560 -15 581 -15 q 476 24 500 -15 q 451 156 451 63 l 451 444 q 420 561 451 526 q 315 596 389 596 q 235 583 265 596 q 206 550 206 571 q 206 544 206 547 q 211 524 207 542 q 217 499 215 506 q 218 485 218 492 q 200 447 218 463 q 156 431 182 431 q 113 449 129 431 q 96 497 96 468 q 127 566 96 536 q 213 613 158 596 q 339 631 268 631 q 499 578 449 631 q 549 411 549 526 l 549 161 q 560 62 549 90 q 597 33 571 33 q 633 47 617 33 q 656 82 649 60 l 681 72 q 656 25 672 43 q 597 -19 639 7 q 425 -222 425 -126 q 452 -292 425 -265 q 524 -318 479 -318 q 656 -222 610 -318 l 679 -239 q 616 -355 660 -315 q 506 -394 572 -394 m 226 -15 q 113 19 156 -15 q 69 110 69 54 q 113 210 69 163 q 250 310 156 258 q 335 353 286 331 q 458 403 385 375 l 461 376 q 251 253 325 319 q 178 121 178 186 q 201 58 178 81 q 268 36 225 36 q 346 56 307 36 q 415 110 385 76 q 456 182 444 143 l 460 126 q 361 22 424 60 q 226 -15 299 -15 z "},"å":{"ha":681,"x_min":69,"x_max":681,"o":"m 563 -15 q 477 22 503 -15 q 451 144 451 60 l 451 444 q 420 561 451 526 q 315 596 389 596 q 235 583 265 596 q 206 550 206 571 q 208 538 206 544 q 211 524 210 532 q 218 485 218 496 q 201 447 218 463 q 156 431 183 431 q 113 449 129 431 q 96 497 96 468 q 127 566 96 536 q 213 613 158 596 q 339 631 268 631 q 499 578 449 631 q 549 411 549 526 l 549 161 q 560 62 549 90 q 597 33 571 33 q 633 47 617 33 q 656 82 649 60 l 681 72 q 563 -15 656 -15 m 226 -15 q 113 19 156 -15 q 69 110 69 54 q 113 210 69 163 q 250 310 156 258 q 343 356 292 333 q 457 401 394 379 l 458 375 q 251 253 324 319 q 178 121 178 186 q 201 58 178 81 q 268 36 225 36 q 345 56 307 36 q 413 109 383 76 q 456 181 443 142 l 464 135 q 366 25 429 65 q 226 -15 303 -15 m 336 736 q 249 771 282 736 q 217 854 217 806 q 247 935 217 899 q 335 972 278 972 q 402 953 376 972 q 440 908 428 935 q 451 854 451 881 q 434 788 451 814 q 390 749 417 761 q 336 736 364 736 m 336 779 q 384 798 363 779 q 406 854 406 817 q 384 910 406 890 q 335 929 363 929 q 287 912 311 929 q 263 854 263 894 q 285 799 263 819 q 336 779 307 779 z "},"ǻ":{"ha":681,"x_min":69,"x_max":681,"o":"m 563 -15 q 477 22 503 -15 q 451 144 451 60 l 451 444 q 420 561 451 526 q 315 596 389 596 q 235 583 265 596 q 206 550 206 571 q 208 538 206 544 q 211 524 210 532 q 218 485 218 496 q 201 447 218 463 q 156 431 183 431 q 113 449 129 431 q 96 497 96 468 q 127 566 96 536 q 213 613 158 596 q 339 631 268 631 q 499 578 449 631 q 549 411 549 526 l 549 161 q 560 62 549 90 q 597 33 571 33 q 633 47 617 33 q 656 82 649 60 l 681 72 q 563 -15 656 -15 m 226 -15 q 113 19 156 -15 q 69 110 69 54 q 113 210 69 163 q 250 310 156 258 q 343 356 292 333 q 457 401 394 379 l 458 375 q 251 253 324 319 q 178 121 178 186 q 201 58 178 81 q 268 36 225 36 q 345 56 307 36 q 413 109 383 76 q 456 181 443 142 l 464 135 q 366 25 429 65 q 226 -15 303 -15 m 336 736 q 249 771 282 736 q 217 854 217 806 q 247 935 217 899 q 335 972 278 972 q 402 953 376 972 q 440 908 428 935 q 451 854 451 881 q 434 788 451 814 q 390 749 417 761 q 336 736 364 736 m 336 779 q 384 798 363 779 q 406 854 406 817 q 384 910 406 890 q 335 929 363 929 q 287 912 311 929 q 263 854 263 894 q 285 799 263 819 q 336 779 307 779 m 283 1056 l 338 1261 q 365 1322 349 1306 q 397 1339 381 1339 q 427 1326 414 1339 q 440 1289 440 1314 q 434 1255 440 1272 q 417 1221 428 1238 l 314 1056 l 283 1056 z "},"ã":{"ha":681,"x_min":69,"x_max":681,"o":"m 563 -15 q 477 22 503 -15 q 451 144 451 60 l 451 444 q 420 561 451 526 q 315 596 389 596 q 235 583 265 596 q 206 550 206 571 q 208 538 206 544 q 211 524 210 532 q 218 485 218 496 q 201 447 218 463 q 156 431 183 431 q 113 449 129 431 q 96 497 96 468 q 127 566 96 536 q 213 613 158 596 q 339 631 268 631 q 499 578 449 631 q 549 411 549 526 l 549 161 q 560 62 549 90 q 597 33 571 33 q 633 47 617 33 q 656 82 649 60 l 681 72 q 563 -15 656 -15 m 226 -15 q 113 19 156 -15 q 69 110 69 54 q 113 210 69 163 q 250 310 156 258 q 343 356 292 333 q 457 401 394 379 l 458 375 q 251 253 324 319 q 178 121 178 186 q 201 58 178 81 q 268 36 225 36 q 345 56 307 36 q 413 109 383 76 q 456 181 443 142 l 464 135 q 366 25 429 65 q 226 -15 303 -15 m 440 774 q 389 786 414 774 q 346 808 364 799 l 310 831 q 265 856 285 846 q 225 867 244 867 q 172 840 194 867 q 143 789 150 814 l 117 789 q 129 844 117 810 q 168 906 142 878 q 236 933 194 933 q 289 919 263 933 q 329 897 315 906 l 381 867 q 413 851 392 861 q 451 840 433 840 q 498 861 479 840 q 526 911 517 882 l 553 911 q 514 811 546 849 q 440 774 482 774 z "},"æ":{"ha":1035,"x_min":69,"x_max":986,"o":"m 744 -15 q 572 30 649 -15 q 451 158 496 75 l 451 425 q 422 557 451 518 q 324 596 393 596 q 240 582 274 596 q 206 549 206 568 q 211 524 206 540 q 218 489 218 500 q 200 447 218 463 q 154 431 182 431 q 112 448 128 431 q 96 493 96 465 q 128 563 96 532 q 215 613 160 594 q 339 631 271 631 q 468 599 418 631 q 538 504 518 567 l 514 506 q 613 597 551 564 q 744 631 674 631 q 912 564 849 631 q 975 389 975 497 q 974 363 975 374 q 968 340 972 351 l 542 340 l 544 372 l 728 372 q 883 468 883 372 q 842 558 883 521 q 743 596 801 596 q 644 562 689 596 q 574 470 600 528 q 549 340 549 413 l 549 308 q 608 106 549 182 q 764 29 667 29 q 878 67 829 29 q 954 172 928 104 l 986 161 q 897 28 957 72 q 744 -15 838 -15 m 228 -15 q 114 19 158 -15 q 69 107 69 53 q 112 206 69 157 q 240 303 154 254 q 457 401 326 351 l 458 375 q 251 253 325 319 q 178 124 178 188 q 205 59 178 85 q 274 33 232 33 q 347 55 310 33 q 415 110 385 76 q 456 181 444 143 l 476 143 q 369 26 435 68 q 228 -15 303 -15 z "},"b":{"ha":771,"x_min":14,"x_max":708,"o":"m 426 -15 q 305 13 363 -15 q 211 90 247 42 l 224 138 q 301 58 247 90 q 411 26 354 26 q 547 101 497 26 q 597 307 597 176 q 547 514 597 439 q 410 589 497 589 q 311 563 358 589 q 225 486 264 536 l 206 510 q 306 599 249 568 q 426 631 363 631 q 569 588 506 631 q 671 472 633 544 q 708 307 708 399 q 671 144 708 217 q 569 28 633 71 q 426 -15 506 -15 m 136 -15 l 136 842 q 111 929 136 904 q 24 954 86 954 l 14 954 l 14 986 q 136 990 86 986 q 233 1003 186 993 l 233 69 l 158 -15 l 136 -15 z "},"c":{"ha":653,"x_min":63,"x_max":611,"o":"m 367 -15 q 209 24 278 -15 q 101 133 140 63 q 63 293 63 203 q 105 465 63 389 q 221 586 147 542 q 386 631 294 631 q 490 614 443 631 q 565 569 538 597 q 593 506 593 540 q 574 456 593 476 q 525 436 554 436 q 474 455 494 436 q 454 500 454 474 q 456 514 454 507 q 460 533 457 521 q 464 547 463 542 q 465 558 465 553 q 443 587 465 578 q 389 596 421 596 q 233 516 292 596 q 174 306 174 436 q 231 105 174 179 q 388 31 288 31 q 506 67 454 31 q 578 171 557 103 l 611 160 q 525 30 589 75 q 367 -15 461 -15 z "},"ć":{"ha":653,"x_min":63,"x_max":611,"o":"m 367 -15 q 209 24 278 -15 q 101 133 140 63 q 63 293 63 203 q 105 465 63 389 q 221 586 147 542 q 386 631 294 631 q 490 614 443 631 q 565 569 538 597 q 593 506 593 540 q 574 456 593 476 q 525 436 554 436 q 474 455 494 436 q 454 500 454 474 q 456 514 454 507 q 460 533 457 521 q 464 547 463 542 q 465 558 465 553 q 443 587 465 578 q 389 596 421 596 q 233 516 292 596 q 174 306 174 436 q 231 105 174 179 q 388 31 288 31 q 506 67 454 31 q 578 171 557 103 l 611 160 q 525 30 589 75 q 367 -15 461 -15 m 313 722 l 367 928 q 394 989 378 972 q 426 1006 410 1006 q 456 993 443 1006 q 469 956 469 981 q 463 922 469 939 q 446 888 457 904 l 343 722 l 313 722 z "},"č":{"ha":653,"x_min":63,"x_max":611,"o":"m 367 -15 q 209 24 278 -15 q 101 133 140 63 q 63 293 63 203 q 105 465 63 389 q 221 586 147 542 q 386 631 294 631 q 490 614 443 631 q 565 569 538 597 q 593 506 593 540 q 574 456 593 476 q 525 436 554 436 q 474 455 494 436 q 454 500 454 474 q 456 514 454 507 q 460 533 457 521 q 464 547 463 542 q 465 558 465 553 q 443 587 465 578 q 389 596 421 596 q 233 516 292 596 q 174 306 174 436 q 231 105 174 179 q 388 31 288 31 q 506 67 454 31 q 578 171 557 103 l 611 160 q 525 30 589 75 q 367 -15 461 -15 m 349 722 l 218 986 l 251 986 l 360 850 l 368 850 l 476 986 l 510 986 l 379 722 l 349 722 z "},"ç":{"ha":653,"x_min":63,"x_max":611,"o":"m 367 -15 q 209 24 278 -15 q 101 133 140 63 q 63 293 63 203 q 105 465 63 389 q 221 586 147 542 q 386 631 294 631 q 490 614 443 631 q 565 569 538 597 q 593 506 593 540 q 574 456 593 476 q 525 436 554 436 q 474 455 494 436 q 454 500 454 474 q 456 514 454 507 q 460 533 457 521 q 464 547 463 542 q 465 558 465 553 q 443 587 465 578 q 389 596 421 596 q 233 516 292 596 q 174 306 174 436 q 231 105 174 179 q 388 31 288 31 q 506 67 454 31 q 578 171 557 103 l 611 160 q 525 30 589 75 q 367 -15 461 -15 m 311 -406 q 213 -369 249 -406 q 168 -292 178 -332 l 199 -282 q 233 -340 206 -314 q 303 -367 260 -367 q 376 -324 351 -367 q 401 -231 401 -281 q 377 -148 401 -182 q 307 -114 353 -114 q 260 -130 283 -114 q 221 -169 236 -146 l 193 -151 q 252 -94 215 -112 q 329 -79 289 -76 q 401 -101 369 -81 q 453 -157 433 -122 q 472 -235 472 -192 q 450 -324 472 -286 q 391 -384 428 -362 q 311 -406 354 -406 m 350 -97 l 311 -93 l 343 0 l 385 0 l 350 -97 z "},"ċ":{"ha":653,"x_min":63,"x_max":611,"o":"m 367 -15 q 209 24 278 -15 q 101 133 140 63 q 63 293 63 203 q 105 465 63 389 q 221 586 147 542 q 386 631 294 631 q 490 614 443 631 q 565 569 538 597 q 593 506 593 540 q 574 456 593 476 q 525 436 554 436 q 474 455 494 436 q 454 500 454 474 q 456 514 454 507 q 460 533 457 521 q 464 547 463 542 q 465 558 465 553 q 443 587 465 578 q 389 596 421 596 q 233 516 292 596 q 174 306 174 436 q 231 105 174 179 q 388 31 288 31 q 506 67 454 31 q 578 171 557 103 l 611 160 q 525 30 589 75 q 367 -15 461 -15 m 364 769 q 307 794 328 769 q 286 854 286 819 q 307 915 286 890 q 364 939 328 939 q 423 915 404 939 q 442 854 442 890 q 423 794 442 819 q 364 769 404 769 z "},"d":{"ha":757,"x_min":63,"x_max":750,"o":"m 344 -15 q 201 28 265 -15 q 100 144 138 71 q 63 308 63 218 q 100 472 63 399 q 202 588 138 544 q 346 631 267 631 q 466 602 408 631 q 560 525 524 574 l 547 478 q 472 557 525 525 q 361 589 418 589 q 224 515 274 589 q 174 308 174 440 q 224 102 174 178 q 363 26 274 26 q 460 53 414 26 q 546 129 507 79 l 565 106 q 466 16 522 47 q 344 -15 410 -15 m 568 -11 l 549 97 l 538 115 l 538 842 q 513 929 538 904 q 425 954 488 954 l 415 954 l 415 986 q 535 990 485 986 q 635 1003 586 993 l 635 151 q 660 58 635 83 q 750 32 685 32 l 750 0 l 693 0 q 627 -2 654 0 q 568 -11 600 -4 z "},"ď":{"ha":757,"x_min":63,"x_max":850,"o":"m 344 -15 q 201 28 265 -15 q 100 144 138 71 q 63 308 63 218 q 100 472 63 399 q 202 588 138 544 q 346 631 267 631 q 466 602 408 631 q 560 525 524 574 l 547 478 q 472 557 525 525 q 361 589 418 589 q 224 515 274 589 q 174 308 174 440 q 224 102 174 178 q 363 26 274 26 q 460 53 414 26 q 546 129 507 79 l 565 106 q 466 16 522 47 q 344 -15 410 -15 m 568 -11 l 549 97 l 538 115 l 538 842 q 513 929 538 904 q 425 954 488 954 l 415 954 l 415 986 q 535 990 485 986 q 635 1003 586 993 l 635 151 q 660 58 635 83 q 750 32 685 32 l 750 0 l 693 0 q 627 -2 654 0 q 568 -11 600 -4 m 717 740 l 744 986 l 850 986 l 764 740 l 717 740 z "},"đ":{"ha":757,"x_min":63,"x_max":750,"o":"m 331 776 l 331 811 l 746 811 l 746 776 l 331 776 m 344 -15 q 201 28 265 -15 q 100 144 138 71 q 63 308 63 218 q 100 472 63 399 q 202 588 138 544 q 346 631 267 631 q 466 602 408 631 q 560 525 524 574 l 547 478 q 472 557 525 525 q 361 589 418 589 q 224 515 274 589 q 174 308 174 440 q 224 102 174 178 q 363 26 274 26 q 460 53 414 26 q 546 129 507 79 l 565 106 q 466 16 522 47 q 344 -15 410 -15 m 568 -11 l 549 97 l 538 115 l 538 842 q 513 929 538 904 q 425 954 488 954 l 415 954 l 415 986 q 535 990 485 986 q 635 1003 586 993 l 635 151 q 660 58 635 83 q 750 32 685 32 l 750 0 l 693 0 q 627 -2 654 0 q 568 -11 600 -4 z "},"ð":{"ha":764,"x_min":63,"x_max":701,"o":"m 383 -15 q 220 28 293 -15 q 105 144 147 71 q 63 307 63 217 q 105 471 63 397 q 220 588 147 544 q 382 631 293 631 q 571 569 486 631 l 558 558 q 405 806 506 699 q 168 975 304 914 l 182 1006 q 385 898 290 968 q 550 736 479 828 q 661 542 621 644 q 701 338 701 440 q 660 154 701 233 q 547 30 618 75 q 383 -15 475 -15 m 382 19 q 536 94 482 19 q 590 306 590 168 q 537 521 590 446 q 382 596 483 596 q 227 521 281 596 q 174 306 174 446 q 228 94 174 168 q 382 19 282 19 m 190 756 l 178 783 l 536 964 l 557 915 l 190 756 z "},"e":{"ha":663,"x_min":63,"x_max":614,"o":"m 368 -15 q 208 24 278 -15 q 101 132 139 63 q 63 293 63 201 q 103 465 63 389 q 214 586 144 542 q 369 631 283 631 q 536 564 474 631 q 599 385 599 497 q 598 359 599 371 q 594 340 597 347 l 168 340 l 171 372 l 378 372 q 506 468 506 372 q 465 559 506 522 q 365 596 425 596 q 226 518 279 596 q 174 313 174 440 q 231 103 174 181 q 386 26 288 26 q 503 64 453 26 q 581 172 554 101 l 614 160 q 368 -15 556 -15 z "},"é":{"ha":663,"x_min":63,"x_max":614,"o":"m 368 -15 q 208 24 278 -15 q 101 132 139 63 q 63 293 63 201 q 103 465 63 389 q 214 586 144 542 q 369 631 283 631 q 536 564 474 631 q 599 385 599 497 q 598 359 599 371 q 594 340 597 347 l 168 340 l 171 372 l 378 372 q 506 468 506 372 q 465 559 506 522 q 365 596 425 596 q 226 518 279 596 q 174 313 174 440 q 231 103 174 181 q 386 26 288 26 q 503 64 453 26 q 581 172 554 101 l 614 160 q 368 -15 556 -15 m 318 722 l 372 928 q 399 989 383 972 q 432 1006 415 1006 q 462 993 449 1006 q 475 956 475 981 q 469 922 475 939 q 451 888 463 904 l 349 722 l 318 722 z "},"ě":{"ha":663,"x_min":63,"x_max":614,"o":"m 368 -15 q 208 24 278 -15 q 101 132 139 63 q 63 293 63 201 q 103 465 63 389 q 214 586 144 542 q 369 631 283 631 q 536 564 474 631 q 599 385 599 497 q 598 359 599 371 q 594 340 597 347 l 168 340 l 171 372 l 378 372 q 506 468 506 372 q 465 559 506 522 q 365 596 425 596 q 226 518 279 596 q 174 313 174 440 q 231 103 174 181 q 386 26 288 26 q 503 64 453 26 q 581 172 554 101 l 614 160 q 368 -15 556 -15 m 354 722 l 224 986 l 257 986 l 365 850 l 374 850 l 482 986 l 515 986 l 385 722 l 354 722 z "},"ê":{"ha":663,"x_min":63,"x_max":614,"o":"m 368 -15 q 208 24 278 -15 q 101 132 139 63 q 63 293 63 201 q 103 465 63 389 q 214 586 144 542 q 369 631 283 631 q 536 564 474 631 q 599 385 599 497 q 598 359 599 371 q 594 340 597 347 l 168 340 l 171 372 l 378 372 q 506 468 506 372 q 465 559 506 522 q 365 596 425 596 q 226 518 279 596 q 174 313 174 440 q 231 103 174 181 q 386 26 288 26 q 503 64 453 26 q 581 172 554 101 l 614 160 q 368 -15 556 -15 m 224 722 l 354 986 l 385 986 l 515 722 l 482 722 l 374 858 l 365 858 l 257 722 l 224 722 z "},"ë":{"ha":663,"x_min":63,"x_max":614,"o":"m 368 -15 q 208 24 278 -15 q 101 132 139 63 q 63 293 63 201 q 103 465 63 389 q 214 586 144 542 q 369 631 283 631 q 536 564 474 631 q 599 385 599 497 q 598 359 599 371 q 594 340 597 347 l 168 340 l 171 372 l 378 372 q 506 468 506 372 q 465 559 506 522 q 365 596 425 596 q 226 518 279 596 q 174 313 174 440 q 231 103 174 181 q 386 26 288 26 q 503 64 453 26 q 581 172 554 101 l 614 160 q 368 -15 556 -15 m 238 776 q 185 799 204 776 q 167 856 167 822 q 185 910 167 888 q 238 933 204 933 q 290 910 274 933 q 307 856 307 888 q 290 799 307 822 q 238 776 274 776 m 501 776 q 449 799 468 776 q 431 856 431 822 q 449 910 431 888 q 501 933 468 933 q 554 910 538 933 q 571 856 571 888 q 554 799 571 822 q 501 776 538 776 z "},"ė":{"ha":663,"x_min":63,"x_max":614,"o":"m 368 -15 q 208 24 278 -15 q 101 132 139 63 q 63 293 63 201 q 103 465 63 389 q 214 586 144 542 q 369 631 283 631 q 536 564 474 631 q 599 385 599 497 q 598 359 599 371 q 594 340 597 347 l 168 340 l 171 372 l 378 372 q 506 468 506 372 q 465 559 506 522 q 365 596 425 596 q 226 518 279 596 q 174 313 174 440 q 231 103 174 181 q 386 26 288 26 q 503 64 453 26 q 581 172 554 101 l 614 160 q 368 -15 556 -15 m 369 769 q 313 794 333 769 q 292 854 292 819 q 313 915 292 890 q 369 939 333 939 q 428 915 410 939 q 447 854 447 890 q 428 794 447 819 q 369 769 410 769 z "},"è":{"ha":663,"x_min":63,"x_max":614,"o":"m 368 -15 q 208 24 278 -15 q 101 132 139 63 q 63 293 63 201 q 103 465 63 389 q 214 586 144 542 q 369 631 283 631 q 536 564 474 631 q 599 385 599 497 q 598 359 599 371 q 594 340 597 347 l 168 340 l 171 372 l 378 372 q 506 468 506 372 q 465 559 506 522 q 365 596 425 596 q 226 518 279 596 q 174 313 174 440 q 231 103 174 181 q 386 26 288 26 q 503 64 453 26 q 581 172 554 101 l 614 160 q 368 -15 556 -15 m 376 722 l 274 888 q 257 922 264 904 q 250 956 250 939 q 263 993 250 981 q 293 1006 276 1006 q 326 989 310 1006 q 353 928 342 972 l 407 722 l 376 722 z "},"ē":{"ha":663,"x_min":63,"x_max":614,"o":"m 368 -15 q 208 24 278 -15 q 101 132 139 63 q 63 293 63 201 q 103 465 63 389 q 214 586 144 542 q 369 631 283 631 q 536 564 474 631 q 599 385 599 497 q 598 359 599 371 q 594 340 597 347 l 168 340 l 171 372 l 378 372 q 506 468 506 372 q 465 559 506 522 q 365 596 425 596 q 226 518 279 596 q 174 313 174 440 q 231 103 174 181 q 386 26 288 26 q 503 64 453 26 q 581 172 554 101 l 614 160 q 368 -15 556 -15 m 211 799 l 211 854 l 526 854 l 526 799 l 211 799 z "},"ę":{"ha":663,"x_min":63,"x_max":614,"o":"m 168 372 l 378 372 q 506 468 506 372 q 465 559 506 522 q 365 596 425 596 q 226 518 279 596 q 174 313 174 440 q 231 103 174 181 q 386 26 288 26 q 503 64 453 26 q 581 172 554 101 l 614 160 q 578 84 600 117 q 524 29 556 51 q 392 -103 435 -43 q 349 -219 349 -164 q 376 -291 349 -264 q 447 -318 403 -318 q 523 -293 489 -318 q 579 -222 557 -268 l 603 -239 q 540 -355 583 -315 q 429 -394 496 -394 q 318 -355 361 -394 q 275 -251 275 -315 q 319 -130 275 -193 q 465 22 363 -67 l 457 -1 q 368 -15 425 -15 q 208 24 278 -15 q 101 132 139 63 q 63 293 63 201 q 103 465 63 389 q 214 586 144 542 q 369 631 283 631 q 536 564 474 631 q 599 385 599 497 q 598 359 599 371 q 594 340 597 347 l 165 340 l 168 372 z "},"f":{"ha":471,"x_min":35,"x_max":544,"o":"m 35 -4 l 35 28 l 57 31 q 124 47 103 36 q 151 85 144 57 q 157 168 157 113 l 157 764 q 211 945 157 885 q 374 1006 265 1006 q 499 976 454 1006 q 544 893 544 946 q 526 840 544 860 q 479 819 508 819 q 434 837 453 819 q 415 881 415 854 q 422 914 415 896 q 428 938 428 929 q 374 971 428 971 q 283 920 313 971 q 254 764 254 869 l 254 168 q 260 85 254 113 q 288 47 267 57 q 354 31 310 36 l 376 28 l 376 -4 l 206 0 l 35 -4 m 38 571 l 38 606 l 165 606 l 165 571 l 38 571 m 246 571 l 246 606 l 397 606 l 397 571 l 246 571 z "},"g":{"ha":769,"x_min":14,"x_max":758,"o":"m 340 -408 q 171 -381 244 -408 q 56 -303 97 -353 q 14 -189 14 -253 q 35 -113 14 -142 q 92 -85 57 -85 q 133 -100 118 -85 q 149 -140 149 -115 q 146 -161 149 -151 q 132 -190 143 -171 q 114 -246 114 -219 q 174 -340 114 -306 q 339 -374 235 -374 q 539 -324 464 -374 q 614 -192 614 -275 q 567 -101 614 -131 q 413 -65 519 -71 l 271 -58 q 123 -24 174 -53 q 72 61 72 4 q 116 157 72 114 q 229 217 160 200 l 272 200 q 186 168 217 190 q 156 114 156 146 q 191 64 156 81 q 303 44 226 47 l 364 42 q 604 -11 531 35 q 678 -153 678 -57 q 636 -288 678 -231 q 519 -377 594 -346 q 340 -408 443 -408 m 350 183 q 219 213 278 183 q 127 294 161 243 q 93 407 93 344 q 127 521 93 471 q 219 601 161 571 q 350 631 278 631 q 480 601 422 631 q 572 520 538 571 q 607 407 607 469 q 573 294 607 344 q 481 213 539 243 q 350 183 422 183 m 350 218 q 462 267 424 218 q 500 407 500 315 q 462 547 500 499 q 350 596 424 596 q 239 547 278 596 q 200 407 200 499 q 239 267 200 315 q 350 218 278 218 m 699 525 q 658 541 675 525 q 636 583 642 557 q 623 613 633 603 q 597 622 613 622 q 557 607 578 622 q 521 565 536 592 l 494 583 q 560 643 518 621 q 649 665 601 665 q 728 643 697 665 q 758 586 758 621 q 741 542 758 560 q 699 525 724 525 z "},"ğ":{"ha":769,"x_min":14,"x_max":758,"o":"m 340 -408 q 171 -381 244 -408 q 56 -303 97 -353 q 14 -189 14 -253 q 35 -113 14 -142 q 92 -85 57 -85 q 133 -100 118 -85 q 149 -140 149 -115 q 146 -161 149 -151 q 132 -190 143 -171 q 114 -246 114 -219 q 174 -340 114 -306 q 339 -374 235 -374 q 539 -324 464 -374 q 614 -192 614 -275 q 567 -101 614 -131 q 413 -65 519 -71 l 271 -58 q 123 -24 174 -53 q 72 61 72 4 q 116 157 72 114 q 229 217 160 200 l 272 200 q 186 168 217 190 q 156 114 156 146 q 191 64 156 81 q 303 44 226 47 l 364 42 q 604 -11 531 35 q 678 -153 678 -57 q 636 -288 678 -231 q 519 -377 594 -346 q 340 -408 443 -408 m 350 183 q 219 213 278 183 q 127 294 161 243 q 93 407 93 344 q 127 521 93 471 q 219 601 161 571 q 350 631 278 631 q 480 601 422 631 q 572 520 538 571 q 607 407 607 469 q 573 294 607 344 q 481 213 539 243 q 350 183 422 183 m 350 218 q 462 267 424 218 q 500 407 500 315 q 462 547 500 499 q 350 596 424 596 q 239 547 278 596 q 200 407 200 499 q 239 267 200 315 q 350 218 278 218 m 699 525 q 658 541 675 525 q 636 583 642 557 q 623 613 633 603 q 597 622 613 622 q 557 607 578 622 q 521 565 536 592 l 494 583 q 560 643 518 621 q 649 665 601 665 q 728 643 697 665 q 758 586 758 621 q 741 542 758 560 q 699 525 724 525 m 349 751 q 244 798 279 751 q 208 913 208 844 l 208 958 l 243 958 l 243 951 q 271 859 243 883 q 349 835 299 835 q 426 859 399 835 q 454 951 454 883 l 454 958 l 489 958 l 489 913 q 453 798 489 844 q 349 751 418 751 z "},"ģ":{"ha":769,"x_min":14,"x_max":758,"o":"m 340 -408 q 171 -381 244 -408 q 56 -303 97 -353 q 14 -189 14 -253 q 35 -113 14 -142 q 92 -85 57 -85 q 133 -100 118 -85 q 149 -140 149 -115 q 146 -161 149 -151 q 132 -190 143 -171 q 114 -246 114 -219 q 174 -340 114 -306 q 339 -374 235 -374 q 539 -324 464 -374 q 614 -192 614 -275 q 567 -101 614 -131 q 413 -65 519 -71 l 271 -58 q 123 -24 174 -53 q 72 61 72 4 q 116 157 72 114 q 229 217 160 200 l 272 200 q 186 168 217 190 q 156 114 156 146 q 191 64 156 81 q 303 44 226 47 l 364 42 q 604 -11 531 35 q 678 -153 678 -57 q 636 -288 678 -231 q 519 -377 594 -346 q 340 -408 443 -408 m 350 183 q 219 213 278 183 q 127 294 161 243 q 93 407 93 344 q 127 521 93 471 q 219 601 161 571 q 350 631 278 631 q 480 601 422 631 q 572 520 538 571 q 607 407 607 469 q 573 294 607 344 q 481 213 539 243 q 350 183 422 183 m 350 218 q 462 267 424 218 q 500 407 500 315 q 462 547 500 499 q 350 596 424 596 q 239 547 278 596 q 200 407 200 499 q 239 267 200 315 q 350 218 278 218 m 699 525 q 658 541 675 525 q 636 583 642 557 q 623 613 633 603 q 597 622 613 622 q 557 607 578 622 q 521 565 536 592 l 494 583 q 560 643 518 621 q 649 665 601 665 q 728 643 697 665 q 758 586 758 621 q 741 542 758 560 q 699 525 724 525 m 408 1000 l 421 978 q 345 912 382 951 q 308 815 308 872 q 315 772 308 796 q 347 749 322 749 l 328 742 l 339 763 l 344 751 q 331 761 335 751 q 326 785 326 771 q 337 812 326 799 q 372 825 347 825 q 409 808 394 825 q 424 765 424 792 q 408 726 424 743 q 363 710 393 710 q 297 742 318 710 q 275 815 275 775 q 315 922 275 875 q 408 1000 356 969 z "},"ġ":{"ha":769,"x_min":14,"x_max":758,"o":"m 340 -408 q 171 -381 244 -408 q 56 -303 97 -353 q 14 -189 14 -253 q 35 -113 14 -142 q 92 -85 57 -85 q 133 -100 118 -85 q 149 -140 149 -115 q 146 -161 149 -151 q 132 -190 143 -171 q 114 -246 114 -219 q 174 -340 114 -306 q 339 -374 235 -374 q 539 -324 464 -374 q 614 -192 614 -275 q 567 -101 614 -131 q 413 -65 519 -71 l 271 -58 q 123 -24 174 -53 q 72 61 72 4 q 116 157 72 114 q 229 217 160 200 l 272 200 q 186 168 217 190 q 156 114 156 146 q 191 64 156 81 q 303 44 226 47 l 364 42 q 604 -11 531 35 q 678 -153 678 -57 q 636 -288 678 -231 q 519 -377 594 -346 q 340 -408 443 -408 m 350 183 q 219 213 278 183 q 127 294 161 243 q 93 407 93 344 q 127 521 93 471 q 219 601 161 571 q 350 631 278 631 q 480 601 422 631 q 572 520 538 571 q 607 407 607 469 q 573 294 607 344 q 481 213 539 243 q 350 183 422 183 m 350 218 q 462 267 424 218 q 500 407 500 315 q 462 547 500 499 q 350 596 424 596 q 239 547 278 596 q 200 407 200 499 q 239 267 200 315 q 350 218 278 218 m 699 525 q 658 541 675 525 q 636 583 642 557 q 623 613 633 603 q 597 622 613 622 q 557 607 578 622 q 521 565 536 592 l 494 583 q 560 643 518 621 q 649 665 601 665 q 728 643 697 665 q 758 586 758 621 q 741 542 758 560 q 699 525 724 525 m 349 769 q 292 794 313 769 q 271 854 271 819 q 292 915 271 890 q 349 939 313 939 q 408 915 389 939 q 426 854 426 890 q 408 794 426 819 q 349 769 389 769 z "},"h":{"ha":808,"x_min":21,"x_max":793,"o":"m 21 -4 l 21 28 l 43 31 q 110 47 89 36 q 137 85 131 57 q 143 168 143 113 l 143 842 q 118 929 143 904 q 31 954 93 954 l 21 954 l 21 986 q 143 990 93 986 q 240 1003 193 993 l 240 168 q 247 85 240 113 q 274 47 253 57 q 340 31 296 36 l 363 28 l 363 -4 l 192 0 l 21 -4 m 451 -4 l 451 28 l 474 31 q 540 47 519 36 q 567 85 561 57 q 574 168 574 113 l 574 446 q 538 551 574 513 q 442 589 503 589 q 315 545 374 589 q 233 432 257 501 l 233 499 q 335 596 274 561 q 472 631 397 631 q 617 581 564 631 q 671 446 671 532 l 671 168 q 677 85 671 113 q 705 47 683 57 q 771 31 726 36 l 793 28 l 793 -4 l 622 0 l 451 -4 z "},"ħ":{"ha":808,"x_min":21,"x_max":793,"o":"m 21 776 l 21 811 l 475 811 l 475 776 l 21 776 m 21 -4 l 21 28 l 43 31 q 110 47 89 36 q 137 85 131 57 q 143 168 143 113 l 143 842 q 118 929 143 904 q 31 954 93 954 l 21 954 l 21 986 q 143 990 93 986 q 240 1003 193 993 l 240 168 q 247 85 240 113 q 274 47 253 57 q 340 31 296 36 l 363 28 l 363 -4 l 192 0 l 21 -4 m 451 -4 l 451 28 l 474 31 q 540 47 519 36 q 567 85 561 57 q 574 168 574 113 l 574 446 q 538 551 574 513 q 442 589 503 589 q 315 545 374 589 q 233 432 257 501 l 233 499 q 335 596 274 561 q 472 631 397 631 q 617 581 564 631 q 671 446 671 532 l 671 168 q 677 85 671 113 q 705 47 683 57 q 771 31 726 36 l 793 28 l 793 -4 l 622 0 l 451 -4 z "},"ĥ":{"ha":808,"x_min":21,"x_max":793,"o":"m 21 -4 l 21 28 l 43 31 q 110 47 89 36 q 137 85 131 57 q 143 168 143 113 l 143 842 q 118 929 143 904 q 31 954 93 954 l 21 954 l 21 986 q 143 990 93 986 q 240 1003 193 993 l 240 168 q 247 85 240 113 q 274 47 253 57 q 340 31 296 36 l 363 28 l 363 -4 l 192 0 l 21 -4 m 451 -4 l 451 28 l 474 31 q 540 47 519 36 q 567 85 561 57 q 574 168 574 113 l 574 446 q 538 551 574 513 q 442 589 503 589 q 315 545 374 589 q 233 432 257 501 l 233 499 q 335 596 274 561 q 472 631 397 631 q 617 581 564 631 q 671 446 671 532 l 671 168 q 677 85 671 113 q 705 47 683 57 q 771 31 726 36 l 793 28 l 793 -4 l 622 0 l 451 -4 m 269 1057 l 400 1306 l 431 1306 l 561 1057 l 528 1057 l 419 1185 l 411 1185 l 303 1057 l 269 1057 z "},"i":{"ha":394,"x_min":39,"x_max":381,"o":"m 39 -4 l 39 28 l 61 31 q 128 47 107 36 q 155 85 149 57 q 161 168 161 113 l 161 461 q 136 549 161 524 q 49 574 111 574 l 39 574 l 39 606 q 159 609 108 606 q 258 622 210 613 l 258 168 q 265 85 258 113 q 292 47 271 57 q 358 31 314 36 l 381 28 l 381 -4 l 210 0 l 39 -4 m 183 769 q 126 794 147 769 q 106 854 106 819 q 126 915 106 890 q 183 939 147 939 q 242 915 224 939 q 261 854 261 890 q 242 794 261 819 q 183 769 224 769 z "},"ı":{"ha":415,"x_min":39,"x_max":381,"o":"m 39 -4 l 39 28 l 61 31 q 128 47 107 36 q 155 85 149 57 q 161 168 161 113 l 161 461 q 136 549 161 524 q 49 574 111 574 l 39 574 l 39 606 q 159 609 108 606 q 258 622 210 613 l 258 168 q 265 85 258 113 q 292 47 271 57 q 358 31 314 36 l 381 28 l 381 -4 l 210 0 l 39 -4 z "},"í":{"ha":415,"x_min":39,"x_max":381,"o":"m 39 -4 l 39 28 l 61 31 q 128 47 107 36 q 155 85 149 57 q 161 168 161 113 l 161 461 q 136 549 161 524 q 49 574 111 574 l 39 574 l 39 606 q 159 609 108 606 q 258 622 210 613 l 258 168 q 265 85 258 113 q 292 47 271 57 q 358 31 314 36 l 381 28 l 381 -4 l 210 0 l 39 -4 m 132 722 l 186 928 q 213 989 197 972 q 246 1006 229 1006 q 276 993 263 1006 q 289 956 289 981 q 283 922 289 939 q 265 888 276 904 l 163 722 l 132 722 z "},"ǐ":{"ha":415,"x_min":38,"x_max":381,"o":"m 39 -4 l 39 28 l 61 31 q 128 47 107 36 q 155 85 149 57 q 161 168 161 113 l 161 461 q 136 549 161 524 q 49 574 111 574 l 39 574 l 39 606 q 159 609 108 606 q 258 622 210 613 l 258 168 q 265 85 258 113 q 292 47 271 57 q 358 31 314 36 l 381 28 l 381 -4 l 210 0 l 39 -4 m 168 722 l 38 986 l 71 986 l 179 850 l 188 850 l 296 986 l 329 986 l 199 722 l 168 722 z "},"î":{"ha":415,"x_min":38,"x_max":381,"o":"m 39 -4 l 39 28 l 61 31 q 128 47 107 36 q 155 85 149 57 q 161 168 161 113 l 161 461 q 136 549 161 524 q 49 574 111 574 l 39 574 l 39 606 q 159 609 108 606 q 258 622 210 613 l 258 168 q 265 85 258 113 q 292 47 271 57 q 358 31 314 36 l 381 28 l 381 -4 l 210 0 l 39 -4 m 38 722 l 168 986 l 199 986 l 329 722 l 296 722 l 188 858 l 179 858 l 71 722 l 38 722 z "},"ï":{"ha":415,"x_min":6,"x_max":381,"o":"m 39 -4 l 39 28 l 61 31 q 128 47 107 36 q 155 85 149 57 q 161 168 161 113 l 161 461 q 136 549 161 524 q 49 574 111 574 l 39 574 l 39 606 q 159 609 108 606 q 258 622 210 613 l 258 168 q 265 85 258 113 q 292 47 271 57 q 358 31 314 36 l 381 28 l 381 -4 l 210 0 l 39 -4 m 76 785 q 24 808 43 785 q 6 864 6 831 q 24 919 6 896 q 76 942 43 942 q 129 919 113 942 q 146 864 146 896 q 129 808 146 831 q 76 785 113 785 m 285 785 q 233 808 251 785 q 214 864 214 831 q 233 919 214 896 q 285 942 251 942 q 338 919 321 942 q 354 864 354 896 q 338 808 354 831 q 285 785 321 785 z "},"ì":{"ha":415,"x_min":39,"x_max":381,"o":"m 39 -4 l 39 28 l 61 31 q 128 47 107 36 q 155 85 149 57 q 161 168 161 113 l 161 461 q 136 549 161 524 q 49 574 111 574 l 39 574 l 39 606 q 159 609 108 606 q 258 622 210 613 l 258 168 q 265 85 258 113 q 292 47 271 57 q 358 31 314 36 l 381 28 l 381 -4 l 210 0 l 39 -4 m 190 722 l 88 888 q 71 922 78 904 q 64 956 64 939 q 77 993 64 981 q 107 1006 90 1006 q 140 989 124 1006 q 167 928 156 972 l 221 722 l 190 722 z "},"ī":{"ha":415,"x_min":25,"x_max":381,"o":"m 39 -4 l 39 28 l 61 31 q 128 47 107 36 q 155 85 149 57 q 161 168 161 113 l 161 461 q 136 549 161 524 q 49 574 111 574 l 39 574 l 39 606 q 159 609 108 606 q 258 622 210 613 l 258 168 q 265 85 258 113 q 292 47 271 57 q 358 31 314 36 l 381 28 l 381 -4 l 210 0 l 39 -4 m 25 799 l 25 854 l 340 854 l 340 799 l 25 799 z "},"į":{"ha":415,"x_min":32,"x_max":381,"o":"m 39 -4 l 39 28 l 61 31 q 128 47 107 36 q 155 85 149 57 q 161 168 161 113 l 161 461 q 136 549 161 524 q 49 574 111 574 l 39 574 l 39 606 q 159 609 108 606 q 258 622 210 613 l 258 168 q 265 85 258 113 q 292 47 271 57 q 358 31 314 36 l 381 28 l 381 -4 l 210 0 l 39 -4 m 183 769 q 126 794 147 769 q 106 854 106 819 q 126 915 106 890 q 183 939 147 939 q 242 915 224 939 q 261 854 261 890 q 242 794 261 819 q 183 769 224 769 m 186 -394 q 75 -355 118 -394 q 32 -251 32 -315 q 56 -163 32 -208 q 131 -64 79 -118 q 271 63 183 -10 l 292 38 q 151 -99 197 -36 q 106 -219 106 -162 q 133 -291 106 -264 q 204 -318 160 -318 q 280 -294 246 -318 q 336 -222 314 -269 l 360 -239 q 297 -355 340 -315 q 186 -394 253 -394 z "},"ĳ":{"ha":778,"x_min":39,"x_max":664,"o":"m 39 -4 l 39 28 l 61 31 q 128 47 107 36 q 155 85 149 57 q 161 168 161 113 l 161 461 q 136 549 161 524 q 49 574 111 574 l 39 574 l 39 606 q 159 609 108 606 q 258 622 210 613 l 258 168 q 265 85 258 113 q 292 47 271 57 q 358 31 314 36 l 381 28 l 381 -4 l 210 0 l 39 -4 m 183 769 q 126 794 147 769 q 106 854 106 819 q 126 915 106 890 q 183 939 147 939 q 242 915 224 939 q 261 854 261 890 q 242 794 261 819 q 183 769 224 769 m 463 -408 q 366 -381 403 -408 q 329 -310 329 -354 q 349 -253 329 -275 q 403 -232 369 -232 q 446 -248 429 -232 q 463 -287 463 -264 q 457 -314 463 -296 q 453 -329 454 -324 q 451 -342 451 -335 q 490 -379 451 -379 q 542 -337 525 -379 q 560 -211 560 -294 l 560 465 q 534 551 560 528 q 438 574 508 574 l 438 606 q 542 610 490 606 q 657 626 593 615 l 657 -211 q 603 -354 657 -300 q 463 -408 549 -408 m 586 769 q 529 794 550 769 q 508 854 508 819 q 529 915 508 890 q 586 939 550 939 q 645 915 626 939 q 664 854 664 890 q 645 794 664 819 q 586 769 626 769 z "},"j":{"ha":383,"x_min":-65,"x_max":269,"o":"m 68 -408 q -28 -381 8 -408 q -65 -310 -65 -354 q -45 -253 -65 -275 q 8 -232 -25 -232 q 51 -248 35 -232 q 68 -287 68 -264 q 63 -314 68 -296 q 58 -329 60 -324 q 57 -342 57 -335 q 96 -379 57 -379 q 148 -337 131 -379 q 165 -211 165 -294 l 165 465 q 140 551 165 528 q 43 574 114 574 l 43 606 q 147 610 96 606 q 263 626 199 615 l 263 -211 q 208 -354 263 -300 q 68 -408 154 -408 m 192 769 q 135 794 156 769 q 114 854 114 819 q 135 915 114 890 q 192 939 156 939 q 251 915 232 939 q 269 854 269 890 q 251 794 269 819 q 192 769 232 769 z "},"ȷ":{"ha":383,"x_min":-65,"x_max":263,"o":"m 68 -408 q -28 -381 8 -408 q -65 -310 -65 -354 q -45 -253 -65 -275 q 8 -232 -25 -232 q 51 -248 35 -232 q 68 -287 68 -264 q 63 -314 68 -296 q 58 -329 60 -324 q 57 -342 57 -335 q 96 -379 57 -379 q 148 -337 131 -379 q 165 -211 165 -294 l 165 465 q 140 551 165 528 q 43 574 114 574 l 43 606 q 147 610 96 606 q 263 626 199 615 l 263 -211 q 208 -354 263 -300 q 68 -408 154 -408 z "},"k":{"ha":728,"x_min":21,"x_max":728,"o":"m 21 -4 l 21 28 l 43 31 q 110 47 89 36 q 137 85 131 57 q 143 168 143 113 l 143 842 q 118 929 143 904 q 31 954 93 954 l 21 954 l 21 986 q 143 990 93 986 q 240 1003 193 993 l 240 168 q 247 85 240 113 q 274 47 253 57 q 340 31 296 36 l 363 28 l 363 -4 l 192 0 l 21 -4 m 728 -4 l 574 0 l 294 314 l 357 389 l 610 106 q 667 48 646 64 q 706 31 689 32 l 728 28 l 728 -4 m 233 203 l 233 256 l 446 510 q 464 549 464 535 q 431 574 464 569 l 408 576 l 408 608 l 542 606 l 658 608 l 658 576 l 636 574 q 538 540 582 567 q 454 465 494 514 l 233 203 z "},"ķ":{"ha":728,"x_min":21,"x_max":728,"o":"m 21 -4 l 21 28 l 43 31 q 110 47 89 36 q 137 85 131 57 q 143 168 143 113 l 143 842 q 118 929 143 904 q 31 954 93 954 l 21 954 l 21 986 q 143 990 93 986 q 240 1003 193 993 l 240 168 q 247 85 240 113 q 274 47 253 57 q 340 31 296 36 l 363 28 l 363 -4 l 192 0 l 21 -4 m 728 -4 l 574 0 l 294 314 l 357 389 l 610 106 q 667 48 646 64 q 706 31 689 32 l 728 28 l 728 -4 m 233 203 l 233 256 l 446 510 q 464 549 464 535 q 431 574 464 569 l 408 576 l 408 608 l 542 606 l 658 608 l 658 576 l 636 574 q 538 540 582 567 q 454 465 494 514 l 233 203 m 315 -415 l 303 -393 q 379 -326 343 -367 q 415 -231 415 -286 q 408 -187 415 -211 q 376 -164 401 -164 l 396 -157 l 385 -178 l 379 -167 q 393 -176 389 -167 q 397 -200 397 -185 q 387 -227 397 -214 q 351 -240 376 -240 q 315 -224 329 -240 q 300 -181 300 -207 q 315 -142 300 -158 q 361 -125 331 -125 q 427 -158 406 -125 q 449 -231 449 -190 q 408 -337 449 -290 q 315 -415 368 -385 z "},"l":{"ha":383,"x_min":21,"x_max":363,"o":"m 21 -4 l 21 28 l 43 31 q 110 47 89 36 q 137 85 131 57 q 143 168 143 113 l 143 842 q 118 929 143 904 q 31 954 93 954 l 21 954 l 21 986 q 141 990 90 986 q 240 1003 192 993 l 240 168 q 247 85 240 113 q 274 47 253 57 q 340 31 296 36 l 363 28 l 363 -4 l 192 0 l 21 -4 z "},"ĺ":{"ha":383,"x_min":21,"x_max":363,"o":"m 21 -4 l 21 28 l 43 31 q 110 47 89 36 q 137 85 131 57 q 143 168 143 113 l 143 842 q 118 929 143 904 q 31 954 93 954 l 21 954 l 21 986 q 141 990 90 986 q 240 1003 192 993 l 240 168 q 247 85 240 113 q 274 47 253 57 q 340 31 296 36 l 363 28 l 363 -4 l 192 0 l 21 -4 m 139 1103 l 193 1308 q 220 1369 204 1353 q 253 1386 236 1386 q 283 1374 269 1386 q 296 1336 296 1361 q 290 1302 296 1319 q 272 1268 283 1285 l 169 1103 l 139 1103 z "},"ľ":{"ha":383,"x_min":21,"x_max":456,"o":"m 21 -4 l 21 28 l 43 31 q 110 47 89 36 q 137 85 131 57 q 143 168 143 113 l 143 842 q 118 929 143 904 q 31 954 93 954 l 21 954 l 21 986 q 141 990 90 986 q 240 1003 192 993 l 240 168 q 247 85 240 113 q 274 47 253 57 q 340 31 296 36 l 363 28 l 363 -4 l 192 0 l 21 -4 m 322 740 l 350 986 l 456 986 l 369 740 l 322 740 z "},"ļ":{"ha":383,"x_min":21,"x_max":363,"o":"m 21 -4 l 21 28 l 43 31 q 110 47 89 36 q 137 85 131 57 q 143 168 143 113 l 143 842 q 118 929 143 904 q 31 954 93 954 l 21 954 l 21 986 q 141 990 90 986 q 240 1003 192 993 l 240 168 q 247 85 240 113 q 274 47 253 57 q 340 31 296 36 l 363 28 l 363 -4 l 192 0 l 21 -4 m 140 -411 l 128 -389 q 204 -322 168 -362 q 240 -226 240 -282 q 233 -183 240 -207 q 201 -160 226 -160 l 221 -153 l 210 -174 l 204 -162 q 218 -172 214 -162 q 222 -196 222 -181 q 212 -223 222 -210 q 176 -236 201 -236 q 140 -219 154 -236 q 125 -176 125 -203 q 140 -137 125 -154 q 186 -121 156 -121 q 252 -153 231 -121 q 274 -226 274 -186 q 233 -333 274 -286 q 140 -411 193 -381 z "},"ŀ":{"ha":525,"x_min":21,"x_max":542,"o":"m 21 -4 l 21 28 l 43 31 q 110 47 89 36 q 137 85 131 57 q 143 168 143 113 l 143 842 q 118 929 143 904 q 31 954 93 954 l 21 954 l 21 986 q 141 990 90 986 q 240 1003 192 993 l 240 168 q 247 85 240 113 q 274 47 253 57 q 340 31 296 36 l 363 28 l 363 -4 l 192 0 l 21 -4 m 456 411 q 392 435 417 411 q 367 494 367 460 q 392 553 367 528 q 456 578 417 578 q 517 553 492 578 q 542 494 542 528 q 517 435 542 460 q 456 411 492 411 z "},"ł":{"ha":390,"x_min":14,"x_max":376,"o":"m 29 399 l 14 432 l 353 607 l 376 557 l 29 399 m 21 -4 l 21 28 l 43 31 q 110 47 89 36 q 137 85 131 57 q 143 168 143 113 l 143 842 q 118 929 143 904 q 31 954 93 954 l 21 954 l 21 986 q 141 990 90 986 q 240 1003 192 993 l 240 168 q 247 85 240 113 q 274 47 253 57 q 340 31 296 36 l 363 28 l 363 -4 l 192 0 l 21 -4 z "},"m":{"ha":1214,"x_min":39,"x_max":1199,"o":"m 250 501 q 347 598 289 565 q 476 631 404 631 q 618 579 568 631 q 668 433 668 528 l 668 168 q 674 83 668 111 q 697 46 679 56 q 754 31 715 36 l 776 28 l 776 -4 l 619 0 l 463 -4 l 463 28 l 485 31 q 542 46 524 36 q 565 83 560 56 q 571 168 571 111 l 571 457 q 537 553 571 518 q 446 589 503 589 q 328 546 382 589 q 254 433 274 503 l 250 501 m 872 -4 l 872 28 l 894 31 q 951 47 933 36 q 975 85 969 57 q 981 168 981 113 l 981 457 q 947 553 981 518 q 856 589 913 589 q 739 547 792 589 q 665 438 686 506 l 638 438 q 683 537 647 493 q 773 606 719 581 q 889 631 826 631 q 1028 578 979 631 q 1078 433 1078 526 l 1078 168 q 1084 84 1078 111 q 1111 47 1090 57 q 1176 31 1132 36 l 1199 28 l 1199 -4 l 1029 0 l 872 -4 m 258 168 q 264 83 258 111 q 288 46 269 56 q 344 31 306 36 l 367 28 l 367 -4 l 210 0 l 39 -4 l 39 28 l 61 31 q 128 47 107 36 q 155 85 149 57 q 161 168 161 113 l 161 461 q 135 549 161 525 q 39 574 108 574 l 39 606 q 161 609 111 606 q 258 622 211 613 l 258 514 l 258 507 l 258 168 z "},"n":{"ha":826,"x_min":39,"x_max":811,"o":"m 469 -4 l 469 28 l 492 31 q 558 47 538 36 q 585 85 579 57 q 592 168 592 113 l 592 446 q 556 551 592 513 q 460 589 521 589 q 335 546 392 589 q 254 435 278 503 l 251 499 q 353 596 292 561 q 490 631 415 631 q 635 581 582 631 q 689 446 689 532 l 689 168 q 695 85 689 113 q 723 47 701 57 q 789 31 744 36 l 811 28 l 811 -4 l 640 0 l 469 -4 m 39 -4 l 39 28 l 61 31 q 128 47 107 36 q 155 85 149 57 q 161 168 161 113 l 161 461 q 136 549 161 524 q 49 574 111 574 l 39 574 l 39 606 q 161 609 111 606 q 258 622 211 613 l 258 508 l 258 504 l 258 168 q 265 85 258 113 q 292 47 271 57 q 358 31 314 36 l 381 28 l 381 -4 l 210 0 l 39 -4 z "},"ń":{"ha":826,"x_min":39,"x_max":811,"o":"m 469 -4 l 469 28 l 492 31 q 558 47 538 36 q 585 85 579 57 q 592 168 592 113 l 592 446 q 556 551 592 513 q 460 589 521 589 q 335 546 392 589 q 254 435 278 503 l 251 499 q 353 596 292 561 q 490 631 415 631 q 635 581 582 631 q 689 446 689 532 l 689 168 q 695 85 689 113 q 723 47 701 57 q 789 31 744 36 l 811 28 l 811 -4 l 640 0 l 469 -4 m 39 -4 l 39 28 l 61 31 q 128 47 107 36 q 155 85 149 57 q 161 168 161 113 l 161 461 q 136 549 161 524 q 49 574 111 574 l 39 574 l 39 606 q 161 609 111 606 q 258 622 211 613 l 258 508 l 258 504 l 258 168 q 265 85 258 113 q 292 47 271 57 q 358 31 314 36 l 381 28 l 381 -4 l 210 0 l 39 -4 m 381 722 l 435 928 q 462 989 446 972 q 494 1006 478 1006 q 524 993 511 1006 q 538 956 538 981 q 531 922 538 939 q 514 888 525 904 l 411 722 l 381 722 z "},"ň":{"ha":826,"x_min":39,"x_max":811,"o":"m 469 -4 l 469 28 l 492 31 q 558 47 538 36 q 585 85 579 57 q 592 168 592 113 l 592 446 q 556 551 592 513 q 460 589 521 589 q 335 546 392 589 q 254 435 278 503 l 251 499 q 353 596 292 561 q 490 631 415 631 q 635 581 582 631 q 689 446 689 532 l 689 168 q 695 85 689 113 q 723 47 701 57 q 789 31 744 36 l 811 28 l 811 -4 l 640 0 l 469 -4 m 39 -4 l 39 28 l 61 31 q 128 47 107 36 q 155 85 149 57 q 161 168 161 113 l 161 461 q 136 549 161 524 q 49 574 111 574 l 39 574 l 39 606 q 161 609 111 606 q 258 622 211 613 l 258 508 l 258 504 l 258 168 q 265 85 258 113 q 292 47 271 57 q 358 31 314 36 l 381 28 l 381 -4 l 210 0 l 39 -4 m 417 722 l 286 986 l 319 986 l 428 850 l 436 850 l 544 986 l 578 986 l 447 722 l 417 722 z "},"ņ":{"ha":826,"x_min":39,"x_max":811,"o":"m 469 -4 l 469 28 l 492 31 q 558 47 538 36 q 585 85 579 57 q 592 168 592 113 l 592 446 q 556 551 592 513 q 460 589 521 589 q 335 546 392 589 q 254 435 278 503 l 251 499 q 353 596 292 561 q 490 631 415 631 q 635 581 582 631 q 689 446 689 532 l 689 168 q 695 85 689 113 q 723 47 701 57 q 789 31 744 36 l 811 28 l 811 -4 l 640 0 l 469 -4 m 39 -4 l 39 28 l 61 31 q 128 47 107 36 q 155 85 149 57 q 161 168 161 113 l 161 461 q 136 549 161 524 q 49 574 111 574 l 39 574 l 39 606 q 161 609 111 606 q 258 622 211 613 l 258 508 l 258 504 l 258 168 q 265 85 258 113 q 292 47 271 57 q 358 31 314 36 l 381 28 l 381 -4 l 210 0 l 39 -4 m 371 -411 l 358 -389 q 435 -322 399 -362 q 471 -226 471 -282 q 464 -183 471 -207 q 432 -160 457 -160 l 451 -153 l 440 -174 l 435 -162 q 449 -172 444 -162 q 453 -196 453 -181 q 442 -223 453 -210 q 407 -236 432 -236 q 370 -219 385 -236 q 356 -176 356 -203 q 371 -137 356 -154 q 417 -121 386 -121 q 483 -153 461 -121 q 504 -226 504 -186 q 464 -333 504 -286 q 371 -411 424 -381 z "},"ñ":{"ha":826,"x_min":39,"x_max":811,"o":"m 469 -4 l 469 28 l 492 31 q 558 47 538 36 q 585 85 579 57 q 592 168 592 113 l 592 446 q 556 551 592 513 q 460 589 521 589 q 335 546 392 589 q 254 435 278 503 l 251 499 q 353 596 292 561 q 490 631 415 631 q 635 581 582 631 q 689 446 689 532 l 689 168 q 695 85 689 113 q 723 47 701 57 q 789 31 744 36 l 811 28 l 811 -4 l 640 0 l 469 -4 m 39 -4 l 39 28 l 61 31 q 128 47 107 36 q 155 85 149 57 q 161 168 161 113 l 161 461 q 136 549 161 524 q 49 574 111 574 l 39 574 l 39 606 q 161 609 111 606 q 258 622 211 613 l 258 508 l 258 504 l 258 168 q 265 85 258 113 q 292 47 271 57 q 358 31 314 36 l 381 28 l 381 -4 l 210 0 l 39 -4 m 538 774 q 486 786 511 774 q 443 808 461 799 l 407 831 q 362 856 382 846 q 322 867 342 867 q 269 840 292 867 q 240 789 247 814 l 214 789 q 226 844 214 810 q 265 906 239 878 q 333 933 292 933 q 386 919 360 933 q 426 897 413 906 l 478 867 q 510 851 489 861 q 549 840 531 840 q 595 861 576 840 q 624 911 614 882 l 650 911 q 611 811 643 849 q 538 774 579 774 z "},"ŋ":{"ha":826,"x_min":39,"x_max":689,"o":"m 493 -408 q 397 -382 432 -408 q 361 -310 361 -356 q 381 -253 361 -274 q 432 -232 400 -232 q 478 -247 460 -232 q 496 -287 496 -262 q 495 -300 496 -294 q 492 -318 494 -306 q 489 -338 490 -331 q 488 -350 488 -346 q 521 -379 488 -379 q 574 -335 556 -379 q 592 -211 592 -292 l 592 446 q 557 551 592 514 q 457 589 522 589 q 335 546 393 589 q 256 438 278 503 l 226 438 q 276 535 238 492 q 372 605 315 579 q 490 631 428 631 q 635 581 582 631 q 689 446 689 532 l 689 -211 q 635 -354 689 -300 q 493 -408 582 -408 m 39 -4 l 39 28 l 61 31 q 128 47 107 36 q 155 85 149 57 q 161 168 161 113 l 161 461 q 136 549 161 524 q 49 574 111 574 l 39 574 l 39 606 q 159 609 108 606 q 258 622 210 613 l 258 489 l 258 476 l 258 168 q 265 85 258 113 q 292 47 271 57 q 358 31 314 36 l 381 28 l 381 -4 l 210 0 l 39 -4 z "},"o":{"ha":764,"x_min":63,"x_max":701,"o":"m 382 -15 q 221 28 293 -15 q 106 144 149 71 q 63 306 63 217 q 105 471 63 397 q 220 588 147 544 q 382 631 293 631 q 544 588 472 631 q 659 471 617 544 q 701 306 701 397 q 658 144 701 217 q 543 28 615 71 q 382 -15 471 -15 m 382 19 q 536 94 482 19 q 590 306 590 168 q 537 521 590 446 q 382 596 483 596 q 227 521 281 596 q 174 306 174 446 q 228 94 174 168 q 382 19 282 19 z "},"ó":{"ha":764,"x_min":63,"x_max":701,"o":"m 382 -15 q 221 28 293 -15 q 106 144 149 71 q 63 306 63 217 q 105 471 63 397 q 220 588 147 544 q 382 631 293 631 q 544 588 472 631 q 659 471 617 544 q 701 306 701 397 q 658 144 701 217 q 543 28 615 71 q 382 -15 471 -15 m 382 19 q 536 94 482 19 q 590 306 590 168 q 537 521 590 446 q 382 596 483 596 q 227 521 281 596 q 174 306 174 446 q 228 94 174 168 q 382 19 282 19 m 331 722 l 385 928 q 412 989 396 972 q 444 1006 428 1006 q 474 993 461 1006 q 488 956 488 981 q 481 922 488 939 q 464 888 475 904 l 361 722 l 331 722 z "},"ǒ":{"ha":764,"x_min":63,"x_max":701,"o":"m 382 -15 q 221 28 293 -15 q 106 144 149 71 q 63 306 63 217 q 105 471 63 397 q 220 588 147 544 q 382 631 293 631 q 544 588 472 631 q 659 471 617 544 q 701 306 701 397 q 658 144 701 217 q 543 28 615 71 q 382 -15 471 -15 m 382 19 q 536 94 482 19 q 590 306 590 168 q 537 521 590 446 q 382 596 483 596 q 227 521 281 596 q 174 306 174 446 q 228 94 174 168 q 382 19 282 19 m 367 722 l 236 986 l 269 986 l 378 850 l 386 850 l 494 986 l 528 986 l 397 722 l 367 722 z "},"ô":{"ha":764,"x_min":63,"x_max":701,"o":"m 382 -15 q 221 28 293 -15 q 106 144 149 71 q 63 306 63 217 q 105 471 63 397 q 220 588 147 544 q 382 631 293 631 q 544 588 472 631 q 659 471 617 544 q 701 306 701 397 q 658 144 701 217 q 543 28 615 71 q 382 -15 471 -15 m 382 19 q 536 94 482 19 q 590 306 590 168 q 537 521 590 446 q 382 596 483 596 q 227 521 281 596 q 174 306 174 446 q 228 94 174 168 q 382 19 282 19 m 236 722 l 367 986 l 397 986 l 528 722 l 494 722 l 386 858 l 378 858 l 269 722 l 236 722 z "},"ö":{"ha":764,"x_min":63,"x_max":701,"o":"m 382 -15 q 221 28 293 -15 q 106 144 149 71 q 63 306 63 217 q 105 471 63 397 q 220 588 147 544 q 382 631 293 631 q 544 588 472 631 q 659 471 617 544 q 701 306 701 397 q 658 144 701 217 q 543 28 615 71 q 382 -15 471 -15 m 382 19 q 536 94 482 19 q 590 306 590 168 q 537 521 590 446 q 382 596 483 596 q 227 521 281 596 q 174 306 174 446 q 228 94 174 168 q 382 19 282 19 m 250 776 q 198 799 217 776 q 179 856 179 822 q 198 910 179 888 q 250 933 217 933 q 303 910 286 933 q 319 856 319 888 q 303 799 319 822 q 250 776 286 776 m 514 776 q 462 799 481 776 q 443 856 443 822 q 462 910 443 888 q 514 933 481 933 q 567 910 550 933 q 583 856 583 888 q 567 799 583 822 q 514 776 550 776 z "},"ò":{"ha":764,"x_min":63,"x_max":701,"o":"m 382 -15 q 221 28 293 -15 q 106 144 149 71 q 63 306 63 217 q 105 471 63 397 q 220 588 147 544 q 382 631 293 631 q 544 588 472 631 q 659 471 617 544 q 701 306 701 397 q 658 144 701 217 q 543 28 615 71 q 382 -15 471 -15 m 382 19 q 536 94 482 19 q 590 306 590 168 q 537 521 590 446 q 382 596 483 596 q 227 521 281 596 q 174 306 174 446 q 228 94 174 168 q 382 19 282 19 m 389 722 l 286 888 q 269 922 276 904 q 263 956 263 939 q 276 993 263 981 q 306 1006 289 1006 q 338 989 322 1006 q 365 928 354 972 l 419 722 l 389 722 z "},"ő":{"ha":764,"x_min":63,"x_max":701,"o":"m 382 -15 q 221 28 293 -15 q 106 144 149 71 q 63 306 63 217 q 105 471 63 397 q 220 588 147 544 q 382 631 293 631 q 544 588 472 631 q 659 471 617 544 q 701 306 701 397 q 658 144 701 217 q 543 28 615 71 q 382 -15 471 -15 m 382 19 q 536 94 482 19 q 590 306 590 168 q 537 521 590 446 q 382 596 483 596 q 227 521 281 596 q 174 306 174 446 q 228 94 174 168 q 382 19 282 19 m 268 722 l 322 928 q 349 989 333 972 q 382 1006 365 1006 q 412 993 399 1006 q 425 956 425 981 q 419 922 425 939 q 401 888 413 904 l 299 722 l 268 722 m 449 722 l 503 928 q 530 989 514 972 q 563 1006 546 1006 q 592 993 579 1006 q 606 956 606 981 q 599 922 606 939 q 582 888 593 904 l 479 722 l 449 722 z "},"ō":{"ha":764,"x_min":63,"x_max":701,"o":"m 382 -15 q 221 28 293 -15 q 106 144 149 71 q 63 306 63 217 q 105 471 63 397 q 220 588 147 544 q 382 631 293 631 q 544 588 472 631 q 659 471 617 544 q 701 306 701 397 q 658 144 701 217 q 543 28 615 71 q 382 -15 471 -15 m 382 19 q 536 94 482 19 q 590 306 590 168 q 537 521 590 446 q 382 596 483 596 q 227 521 281 596 q 174 306 174 446 q 228 94 174 168 q 382 19 282 19 m 224 799 l 224 854 l 539 854 l 539 799 l 224 799 z "},"ø":{"ha":764,"x_min":63,"x_max":701,"o":"m 382 -15 q 221 28 293 -15 q 106 144 149 71 q 63 306 63 217 q 105 471 63 397 q 220 588 147 544 q 382 631 293 631 q 544 588 472 631 q 659 471 617 544 q 701 306 701 397 q 658 144 701 217 q 543 28 615 71 q 382 -15 471 -15 m 382 19 q 536 94 482 19 q 590 306 590 168 q 537 521 590 446 q 382 596 483 596 q 227 521 281 596 q 174 306 174 446 q 228 94 174 168 q 382 19 282 19 m 106 -58 l 78 -33 l 658 672 l 686 647 l 106 -58 z "},"õ":{"ha":764,"x_min":63,"x_max":701,"o":"m 382 -15 q 221 28 293 -15 q 106 144 149 71 q 63 306 63 217 q 105 471 63 397 q 220 588 147 544 q 382 631 293 631 q 544 588 472 631 q 659 471 617 544 q 701 306 701 397 q 658 144 701 217 q 543 28 615 71 q 382 -15 471 -15 m 382 19 q 536 94 482 19 q 590 306 590 168 q 537 521 590 446 q 382 596 483 596 q 227 521 281 596 q 174 306 174 446 q 228 94 174 168 q 382 19 282 19 m 488 774 q 436 786 461 774 q 393 808 411 799 l 357 831 q 312 856 332 846 q 272 867 292 867 q 219 840 242 867 q 190 789 197 814 l 164 789 q 176 844 164 810 q 215 906 189 878 q 283 933 242 933 q 336 919 310 933 q 376 897 363 906 l 428 867 q 460 851 439 861 q 499 840 481 840 q 545 861 526 840 q 574 911 564 882 l 600 911 q 561 811 593 849 q 488 774 529 774 z "},"œ":{"ha":1192,"x_min":63,"x_max":1143,"o":"m 382 -15 q 221 28 293 -15 q 106 144 149 71 q 63 306 63 217 q 105 471 63 397 q 220 588 147 544 q 382 631 293 631 q 544 588 472 631 q 659 471 617 544 q 701 306 701 397 q 658 144 701 217 q 543 28 615 71 q 382 -15 471 -15 m 382 19 q 536 94 482 19 q 590 306 590 168 q 537 521 590 446 q 382 596 483 596 q 227 521 281 596 q 174 306 174 446 q 228 94 174 168 q 382 19 282 19 m 897 -15 q 738 24 807 -15 q 630 132 668 63 q 592 293 592 201 q 633 465 592 389 q 743 586 674 542 q 899 631 813 631 q 1065 564 1003 631 q 1128 385 1128 497 q 1127 359 1128 371 q 1124 340 1126 347 l 697 340 l 700 372 l 907 372 q 1035 468 1035 372 q 994 559 1035 522 q 894 596 954 596 q 756 518 808 596 q 703 313 703 440 q 760 103 703 181 q 915 26 817 26 q 1033 64 982 26 q 1110 172 1083 101 l 1143 160 q 897 -15 1085 -15 z "},"p":{"ha":782,"x_min":25,"x_max":719,"o":"m 25 -393 l 25 -361 l 47 -358 q 114 -342 93 -353 q 141 -304 135 -332 q 147 -221 147 -276 l 147 465 q 122 551 147 528 q 25 574 96 574 l 25 606 q 129 610 78 606 q 244 626 181 615 l 235 531 l 244 510 l 244 -221 q 251 -304 244 -276 q 278 -342 257 -332 q 344 -358 300 -353 l 367 -361 l 367 -393 l 196 -389 l 25 -393 m 438 -15 q 316 13 374 -15 q 222 90 258 42 l 235 138 q 312 58 258 90 q 422 26 365 26 q 558 101 508 26 q 608 307 608 176 q 558 514 608 439 q 419 589 508 589 q 322 563 368 589 q 236 486 276 538 l 217 510 q 318 600 263 569 q 438 631 374 631 q 581 588 517 631 q 682 472 644 544 q 719 307 719 399 q 682 144 719 217 q 581 28 644 71 q 438 -15 517 -15 z "},"þ":{"ha":782,"x_min":25,"x_max":719,"o":"m 25 -393 l 25 -361 l 47 -358 q 114 -342 93 -353 q 141 -304 135 -332 q 147 -221 147 -276 l 147 844 q 122 928 147 906 q 25 953 96 950 l 25 985 q 129 990 78 985 q 244 1006 181 994 l 244 -221 q 251 -304 244 -276 q 278 -342 257 -332 q 344 -358 300 -353 l 367 -361 l 367 -393 l 196 -389 l 25 -393 m 429 -15 q 233 82 307 -15 l 236 138 q 316 56 265 86 q 422 26 367 26 q 559 101 510 26 q 608 308 608 175 q 559 519 608 443 q 424 596 510 596 q 319 566 369 596 q 236 483 269 536 l 236 538 q 431 631 307 631 q 578 588 513 631 q 681 472 643 546 q 719 307 719 399 q 681 142 719 215 q 578 27 643 69 q 429 -15 513 -15 z "},"q":{"ha":743,"x_min":63,"x_max":757,"o":"m 415 -393 l 415 -361 l 438 -358 q 504 -342 483 -353 q 531 -304 525 -332 q 538 -221 538 -276 l 538 540 l 614 624 l 635 624 l 635 -221 q 641 -304 635 -276 q 669 -342 647 -332 q 735 -358 690 -353 l 757 -361 l 757 -393 l 586 -389 l 415 -393 m 344 -15 q 201 28 265 -15 q 100 144 138 71 q 63 308 63 218 q 100 472 63 399 q 201 588 138 544 q 344 631 265 631 q 466 602 408 631 q 560 525 524 574 l 547 478 q 471 558 525 526 q 360 589 417 589 q 224 514 274 589 q 174 308 174 439 q 224 102 174 178 q 361 26 274 26 q 460 53 413 26 q 546 129 507 79 l 565 106 q 344 -15 476 -15 z "},"r":{"ha":544,"x_min":39,"x_max":517,"o":"m 39 -4 l 39 28 l 61 31 q 128 47 107 36 q 155 85 149 57 q 161 168 161 113 l 161 457 q 135 549 161 525 q 39 574 110 574 l 39 606 q 147 610 94 606 q 258 622 199 614 l 243 463 l 258 463 l 258 168 q 265 85 258 113 q 292 47 271 57 q 358 31 314 36 l 381 28 l 381 -4 l 210 0 l 39 -4 m 256 374 l 240 433 q 317 587 269 543 q 422 631 364 631 q 497 603 478 631 q 517 547 517 575 q 499 497 517 517 q 449 478 481 478 q 407 491 424 478 q 390 525 390 504 q 392 538 390 532 q 394 553 393 543 q 397 563 396 558 q 397 569 397 567 q 378 583 397 583 q 328 555 353 583 q 285 479 304 526 q 256 374 265 432 z "},"ŕ":{"ha":544,"x_min":39,"x_max":517,"o":"m 39 -4 l 39 28 l 61 31 q 128 47 107 36 q 155 85 149 57 q 161 168 161 113 l 161 457 q 135 549 161 525 q 39 574 110 574 l 39 606 q 147 610 94 606 q 258 622 199 614 l 243 463 l 258 463 l 258 168 q 265 85 258 113 q 292 47 271 57 q 358 31 314 36 l 381 28 l 381 -4 l 210 0 l 39 -4 m 256 374 l 240 433 q 317 587 269 543 q 422 631 364 631 q 497 603 478 631 q 517 547 517 575 q 499 497 517 517 q 449 478 481 478 q 407 491 424 478 q 390 525 390 504 q 392 538 390 532 q 394 553 393 543 q 397 563 396 558 q 397 569 397 567 q 378 583 397 583 q 328 555 353 583 q 285 479 304 526 q 256 374 265 432 m 211 722 l 265 928 q 292 989 276 972 q 325 1006 308 1006 q 355 993 342 1006 q 368 956 368 981 q 362 922 368 939 q 344 888 356 904 l 242 722 l 211 722 z "},"ř":{"ha":544,"x_min":39,"x_max":517,"o":"m 39 -4 l 39 28 l 61 31 q 128 47 107 36 q 155 85 149 57 q 161 168 161 113 l 161 457 q 135 549 161 525 q 39 574 110 574 l 39 606 q 147 610 94 606 q 258 622 199 614 l 243 463 l 258 463 l 258 168 q 265 85 258 113 q 292 47 271 57 q 358 31 314 36 l 381 28 l 381 -4 l 210 0 l 39 -4 m 256 374 l 240 433 q 317 587 269 543 q 422 631 364 631 q 497 603 478 631 q 517 547 517 575 q 499 497 517 517 q 449 478 481 478 q 407 491 424 478 q 390 525 390 504 q 392 538 390 532 q 394 553 393 543 q 397 563 396 558 q 397 569 397 567 q 378 583 397 583 q 328 555 353 583 q 285 479 304 526 q 256 374 265 432 m 247 722 l 117 986 l 150 986 l 258 850 l 267 850 l 375 986 l 408 986 l 278 722 l 247 722 z "},"ŗ":{"ha":544,"x_min":39,"x_max":517,"o":"m 39 -4 l 39 28 l 61 31 q 128 47 107 36 q 155 85 149 57 q 161 168 161 113 l 161 457 q 135 549 161 525 q 39 574 110 574 l 39 606 q 147 610 94 606 q 258 622 199 614 l 243 463 l 258 463 l 258 168 q 265 85 258 113 q 292 47 271 57 q 358 31 314 36 l 381 28 l 381 -4 l 210 0 l 39 -4 m 256 374 l 240 433 q 317 587 269 543 q 422 631 364 631 q 497 603 478 631 q 517 547 517 575 q 499 497 517 517 q 449 478 481 478 q 407 491 424 478 q 390 525 390 504 q 392 538 390 532 q 394 553 393 543 q 397 563 396 558 q 397 569 397 567 q 378 583 397 583 q 328 555 353 583 q 285 479 304 526 q 256 374 265 432 m 160 -411 l 147 -389 q 224 -322 188 -362 q 260 -226 260 -282 q 253 -183 260 -207 q 221 -160 246 -160 l 240 -153 l 229 -174 l 224 -162 q 238 -172 233 -162 q 242 -196 242 -181 q 231 -223 242 -210 q 196 -236 221 -236 q 159 -219 174 -236 q 144 -176 144 -203 q 160 -137 144 -154 q 206 -121 175 -121 q 272 -153 250 -121 q 293 -226 293 -186 q 253 -333 293 -286 q 160 -411 213 -381 z "},"s":{"ha":546,"x_min":71,"x_max":489,"o":"m 293 -15 q 158 15 226 -15 q 135 26 144 22 q 121 29 126 29 q 110 24 114 29 q 103 0 107 18 l 71 0 l 76 92 l 81 210 l 111 210 l 113 186 q 141 103 115 140 q 208 42 167 65 q 297 19 250 19 q 385 49 351 19 q 419 125 419 78 q 388 197 419 165 q 288 257 357 229 l 236 278 q 126 349 160 308 q 92 449 92 389 q 115 542 92 501 q 181 607 139 583 q 276 631 224 631 q 322 626 301 631 q 369 608 343 621 q 399 599 389 599 q 422 628 414 599 l 453 626 l 447 536 l 447 439 l 415 439 q 367 554 406 513 q 272 596 329 596 q 194 568 225 596 q 164 496 164 540 q 193 426 164 457 q 285 371 222 396 l 340 349 q 453 276 418 318 q 489 169 489 233 q 434 36 489 88 q 293 -15 379 -15 z "},"ś":{"ha":546,"x_min":71,"x_max":489,"o":"m 293 -15 q 158 15 226 -15 q 135 26 144 22 q 121 29 126 29 q 110 24 114 29 q 103 0 107 18 l 71 0 l 76 92 l 81 210 l 111 210 l 113 186 q 141 103 115 140 q 208 42 167 65 q 297 19 250 19 q 385 49 351 19 q 419 125 419 78 q 388 197 419 165 q 288 257 357 229 l 236 278 q 126 349 160 308 q 92 449 92 389 q 115 542 92 501 q 181 607 139 583 q 276 631 224 631 q 322 626 301 631 q 369 608 343 621 q 399 599 389 599 q 422 628 414 599 l 453 626 l 447 536 l 447 439 l 415 439 q 367 554 406 513 q 272 596 329 596 q 194 568 225 596 q 164 496 164 540 q 193 426 164 457 q 285 371 222 396 l 340 349 q 453 276 418 318 q 489 169 489 233 q 434 36 489 88 q 293 -15 379 -15 m 231 722 l 285 928 q 312 989 296 972 q 344 1006 328 1006 q 374 993 361 1006 q 388 956 388 981 q 381 922 388 939 q 364 888 375 904 l 261 722 l 231 722 z "},"š":{"ha":546,"x_min":71,"x_max":489,"o":"m 293 -15 q 158 15 226 -15 q 135 26 144 22 q 121 29 126 29 q 110 24 114 29 q 103 0 107 18 l 71 0 l 76 92 l 81 210 l 111 210 l 113 186 q 141 103 115 140 q 208 42 167 65 q 297 19 250 19 q 385 49 351 19 q 419 125 419 78 q 388 197 419 165 q 288 257 357 229 l 236 278 q 126 349 160 308 q 92 449 92 389 q 115 542 92 501 q 181 607 139 583 q 276 631 224 631 q 322 626 301 631 q 369 608 343 621 q 399 599 389 599 q 422 628 414 599 l 453 626 l 447 536 l 447 439 l 415 439 q 367 554 406 513 q 272 596 329 596 q 194 568 225 596 q 164 496 164 540 q 193 426 164 457 q 285 371 222 396 l 340 349 q 453 276 418 318 q 489 169 489 233 q 434 36 489 88 q 293 -15 379 -15 m 267 722 l 136 986 l 169 986 l 278 850 l 286 850 l 394 986 l 428 986 l 297 722 l 267 722 z "},"ş":{"ha":546,"x_min":71,"x_max":489,"o":"m 293 -15 q 158 15 226 -15 q 135 26 144 22 q 121 29 126 29 q 110 24 114 29 q 103 0 107 18 l 71 0 l 76 92 l 81 210 l 111 210 l 113 186 q 141 103 115 140 q 208 42 167 65 q 297 19 250 19 q 385 49 351 19 q 419 125 419 78 q 388 197 419 165 q 288 257 357 229 l 236 278 q 126 349 160 308 q 92 449 92 389 q 115 542 92 501 q 181 607 139 583 q 276 631 224 631 q 322 626 301 631 q 369 608 343 621 q 399 599 389 599 q 422 628 414 599 l 453 626 l 447 536 l 447 439 l 415 439 q 367 554 406 513 q 272 596 329 596 q 194 568 225 596 q 164 496 164 540 q 193 426 164 457 q 285 371 222 396 l 340 349 q 453 276 418 318 q 489 169 489 233 q 434 36 489 88 q 293 -15 379 -15 m 236 -406 q 138 -369 174 -406 q 93 -292 103 -332 l 124 -282 q 158 -340 131 -314 q 228 -367 185 -367 q 301 -324 276 -367 q 326 -231 326 -281 q 302 -148 326 -182 q 232 -114 278 -114 q 185 -130 208 -114 q 146 -169 161 -146 l 118 -151 q 177 -94 140 -112 q 254 -79 214 -76 q 326 -101 294 -81 q 378 -157 358 -122 q 397 -235 397 -192 q 375 -324 397 -286 q 316 -384 353 -362 q 236 -406 279 -406 m 275 -97 l 236 -93 l 268 0 l 310 0 l 275 -97 z "},"ș":{"ha":546,"x_min":71,"x_max":489,"o":"m 293 -15 q 158 15 226 -15 q 135 26 144 22 q 121 29 126 29 q 110 24 114 29 q 103 0 107 18 l 71 0 l 76 92 l 81 210 l 111 210 l 113 186 q 141 103 115 140 q 208 42 167 65 q 297 19 250 19 q 385 49 351 19 q 419 125 419 78 q 388 197 419 165 q 288 257 357 229 l 236 278 q 126 349 160 308 q 92 449 92 389 q 115 542 92 501 q 181 607 139 583 q 276 631 224 631 q 322 626 301 631 q 369 608 343 621 q 399 599 389 599 q 422 628 414 599 l 453 626 l 447 536 l 447 439 l 415 439 q 367 554 406 513 q 272 596 329 596 q 194 568 225 596 q 164 496 164 540 q 193 426 164 457 q 285 371 222 396 l 340 349 q 453 276 418 318 q 489 169 489 233 q 434 36 489 88 q 293 -15 379 -15 m 239 -411 l 226 -389 q 303 -322 267 -362 q 339 -226 339 -282 q 332 -183 339 -207 q 300 -160 325 -160 l 319 -153 l 308 -174 l 303 -162 q 317 -172 313 -162 q 321 -196 321 -181 q 310 -223 321 -210 q 275 -236 300 -236 q 238 -219 253 -236 q 224 -176 224 -203 q 239 -137 224 -154 q 285 -121 254 -121 q 351 -153 329 -121 q 372 -226 372 -186 q 332 -333 372 -286 q 239 -411 292 -381 z "},"ß":{"ha":847,"x_min":35,"x_max":790,"o":"m 554 -15 q 444 4 494 -15 q 365 58 394 24 q 335 132 335 92 q 354 186 335 165 q 406 207 374 207 q 449 190 432 207 q 467 150 467 174 q 465 135 467 144 q 461 118 464 126 q 456 88 456 101 q 485 38 456 57 q 561 19 514 19 q 672 59 629 19 q 714 163 714 99 q 691 234 714 199 q 603 315 668 269 l 492 394 q 424 456 444 426 q 404 519 404 485 q 416 574 404 547 q 465 651 428 600 l 496 694 q 531 757 519 726 q 543 817 543 788 q 505 929 543 888 q 401 971 467 971 q 293 918 331 971 q 256 764 256 865 l 256 168 q 259 83 256 122 q 269 0 263 44 l 206 0 l 35 -4 l 35 28 l 57 31 q 124 47 103 36 q 151 85 144 57 q 157 168 157 113 l 157 692 q 220 928 157 850 q 413 1006 283 1006 q 587 962 519 1006 q 654 847 654 918 q 641 791 654 817 q 592 729 628 765 l 553 689 q 507 631 522 657 q 492 581 492 604 q 508 526 492 550 q 563 474 524 503 l 650 411 q 760 302 731 351 q 790 188 790 253 q 760 85 790 132 q 678 12 731 39 q 554 -15 625 -15 m 38 574 l 38 606 l 185 606 l 185 574 l 38 574 z "},"t":{"ha":471,"x_min":42,"x_max":457,"o":"m 297 -15 q 183 30 222 -15 q 144 160 144 75 l 144 571 l 42 571 l 42 606 l 79 608 q 165 653 133 613 q 206 774 196 693 l 242 774 l 242 154 q 263 63 242 94 q 326 32 285 32 q 381 52 358 32 q 426 117 404 72 l 457 101 q 439 66 450 83 q 414 33 428 49 q 297 -15 369 -15 m 233 571 l 233 606 l 419 606 l 419 571 l 233 571 z "},"ŧ":{"ha":471,"x_min":42,"x_max":457,"o":"m 42 417 l 42 451 l 419 451 l 419 417 l 42 417 m 297 -15 q 183 30 222 -15 q 144 160 144 75 l 144 571 l 42 571 l 42 606 l 79 608 q 165 653 133 613 q 206 774 196 693 l 242 774 l 242 154 q 263 63 242 94 q 326 32 285 32 q 381 52 358 32 q 426 117 404 72 l 457 101 q 439 66 450 83 q 414 33 428 49 q 297 -15 369 -15 m 233 571 l 233 606 l 419 606 l 419 571 l 233 571 z "},"ť":{"ha":471,"x_min":42,"x_max":469,"o":"m 297 -15 q 183 30 222 -15 q 144 160 144 75 l 144 571 l 42 571 l 42 606 l 79 608 q 165 653 133 613 q 206 774 196 693 l 242 774 l 242 154 q 263 63 242 94 q 326 32 285 32 q 381 52 358 32 q 426 117 404 72 l 457 101 q 439 66 450 83 q 414 33 428 49 q 297 -15 369 -15 m 233 571 l 233 606 l 419 606 l 419 571 l 233 571 m 336 740 l 364 986 l 469 986 l 383 740 l 336 740 z "},"ţ":{"ha":471,"x_min":42,"x_max":457,"o":"m 297 -15 q 183 30 222 -15 q 144 160 144 75 l 144 571 l 42 571 l 42 606 l 79 608 q 165 653 133 613 q 206 774 196 693 l 242 774 l 242 154 q 263 63 242 94 q 326 32 285 32 q 381 52 358 32 q 426 117 404 72 l 457 101 q 439 66 450 83 q 414 33 428 49 q 297 -15 369 -15 m 233 571 l 233 606 l 419 606 l 419 571 l 233 571 m 225 -406 q 127 -369 163 -406 q 82 -292 92 -332 l 113 -282 q 147 -340 119 -314 q 217 -367 174 -367 q 290 -324 265 -367 q 315 -231 315 -281 q 291 -148 315 -182 q 221 -114 267 -114 q 174 -130 197 -114 q 135 -169 150 -146 l 107 -151 q 166 -94 129 -112 q 243 -79 203 -76 q 315 -101 283 -81 q 367 -157 347 -122 q 386 -235 386 -192 q 364 -324 386 -286 q 305 -384 342 -362 q 225 -406 268 -406 m 264 -97 l 225 -93 l 257 0 l 299 0 l 264 -97 z "},"ț":{"ha":471,"x_min":42,"x_max":457,"o":"m 297 -15 q 183 30 222 -15 q 144 160 144 75 l 144 571 l 42 571 l 42 606 l 79 608 q 165 653 133 613 q 206 774 196 693 l 242 774 l 242 154 q 263 63 242 94 q 326 32 285 32 q 381 52 358 32 q 426 117 404 72 l 457 101 q 439 66 450 83 q 414 33 428 49 q 297 -15 369 -15 m 233 571 l 233 606 l 419 606 l 419 571 l 233 571 m 228 -411 l 215 -389 q 292 -322 256 -362 q 328 -226 328 -282 q 321 -183 328 -207 q 289 -160 314 -160 l 308 -153 l 297 -174 l 292 -162 q 306 -172 301 -162 q 310 -196 310 -181 q 299 -223 310 -210 q 264 -236 289 -236 q 227 -219 242 -236 q 213 -176 213 -203 q 228 -137 213 -154 q 274 -121 243 -121 q 340 -153 318 -121 q 361 -226 361 -186 q 321 -333 361 -286 q 228 -411 281 -381 z "},"u":{"ha":793,"x_min":14,"x_max":779,"o":"m 328 -15 q 186 32 236 -15 q 136 164 136 79 l 136 461 q 112 548 136 522 q 28 574 88 574 l 14 574 l 14 606 q 125 608 71 604 q 233 622 179 613 l 233 169 q 267 66 233 103 q 363 29 301 29 q 481 71 426 29 q 567 185 536 113 l 600 178 q 571 120 586 144 q 538 76 556 96 q 328 -15 457 -15 m 567 -12 l 567 461 q 542 548 567 522 q 458 574 518 574 l 444 574 l 444 606 q 556 608 501 604 q 664 622 610 613 l 664 154 q 689 58 664 85 q 779 32 714 32 l 779 0 q 691 -1 726 0 q 627 -4 656 -1 q 567 -12 599 -7 z "},"ú":{"ha":793,"x_min":14,"x_max":779,"o":"m 328 -15 q 186 32 236 -15 q 136 164 136 79 l 136 461 q 112 548 136 522 q 28 574 88 574 l 14 574 l 14 606 q 125 608 71 604 q 233 622 179 613 l 233 169 q 267 66 233 103 q 363 29 301 29 q 481 71 426 29 q 567 185 536 113 l 600 178 q 571 120 586 144 q 538 76 556 96 q 328 -15 457 -15 m 567 -12 l 567 461 q 542 548 567 522 q 458 574 518 574 l 444 574 l 444 606 q 556 608 501 604 q 664 622 610 613 l 664 154 q 689 58 664 85 q 779 32 714 32 l 779 0 q 691 -1 726 0 q 627 -4 656 -1 q 567 -12 599 -7 m 310 722 l 364 928 q 391 989 375 972 q 424 1006 407 1006 q 453 993 440 1006 q 467 956 467 981 q 460 922 467 939 q 443 888 454 904 l 340 722 l 310 722 z "},"ŭ":{"ha":793,"x_min":14,"x_max":779,"o":"m 328 -15 q 186 32 236 -15 q 136 164 136 79 l 136 461 q 112 548 136 522 q 28 574 88 574 l 14 574 l 14 606 q 125 608 71 604 q 233 622 179 613 l 233 169 q 267 66 233 103 q 363 29 301 29 q 481 71 426 29 q 567 185 536 113 l 600 178 q 571 120 586 144 q 538 76 556 96 q 328 -15 457 -15 m 567 -12 l 567 461 q 542 548 567 522 q 458 574 518 574 l 444 574 l 444 606 q 556 608 501 604 q 664 622 610 613 l 664 154 q 689 58 664 85 q 779 32 714 32 l 779 0 q 691 -1 726 0 q 627 -4 656 -1 q 567 -12 599 -7 m 361 751 q 256 798 292 751 q 221 913 221 844 l 221 958 l 256 958 l 256 951 q 283 859 256 883 q 361 835 311 835 q 439 859 411 835 q 467 951 467 883 l 467 958 l 501 958 l 501 913 q 466 798 501 844 q 361 751 431 751 z "},"ǔ":{"ha":793,"x_min":14,"x_max":779,"o":"m 328 -15 q 186 32 236 -15 q 136 164 136 79 l 136 461 q 112 548 136 522 q 28 574 88 574 l 14 574 l 14 606 q 125 608 71 604 q 233 622 179 613 l 233 169 q 267 66 233 103 q 363 29 301 29 q 481 71 426 29 q 567 185 536 113 l 600 178 q 571 120 586 144 q 538 76 556 96 q 328 -15 457 -15 m 567 -12 l 567 461 q 542 548 567 522 q 458 574 518 574 l 444 574 l 444 606 q 556 608 501 604 q 664 622 610 613 l 664 154 q 689 58 664 85 q 779 32 714 32 l 779 0 q 691 -1 726 0 q 627 -4 656 -1 q 567 -12 599 -7 m 346 722 l 215 986 l 249 986 l 357 850 l 365 850 l 474 986 l 507 986 l 376 722 l 346 722 z "},"û":{"ha":793,"x_min":14,"x_max":779,"o":"m 328 -15 q 186 32 236 -15 q 136 164 136 79 l 136 461 q 112 548 136 522 q 28 574 88 574 l 14 574 l 14 606 q 125 608 71 604 q 233 622 179 613 l 233 169 q 267 66 233 103 q 363 29 301 29 q 481 71 426 29 q 567 185 536 113 l 600 178 q 571 120 586 144 q 538 76 556 96 q 328 -15 457 -15 m 567 -12 l 567 461 q 542 548 567 522 q 458 574 518 574 l 444 574 l 444 606 q 556 608 501 604 q 664 622 610 613 l 664 154 q 689 58 664 85 q 779 32 714 32 l 779 0 q 691 -1 726 0 q 627 -4 656 -1 q 567 -12 599 -7 m 215 722 l 346 986 l 376 986 l 507 722 l 474 722 l 365 858 l 357 858 l 249 722 l 215 722 z "},"ü":{"ha":793,"x_min":14,"x_max":779,"o":"m 328 -15 q 186 32 236 -15 q 136 164 136 79 l 136 461 q 112 548 136 522 q 28 574 88 574 l 14 574 l 14 606 q 125 608 71 604 q 233 622 179 613 l 233 169 q 267 66 233 103 q 363 29 301 29 q 481 71 426 29 q 567 185 536 113 l 600 178 q 571 120 586 144 q 538 76 556 96 q 328 -15 457 -15 m 567 -12 l 567 461 q 542 548 567 522 q 458 574 518 574 l 444 574 l 444 606 q 556 608 501 604 q 664 622 610 613 l 664 154 q 689 58 664 85 q 779 32 714 32 l 779 0 q 691 -1 726 0 q 627 -4 656 -1 q 567 -12 599 -7 m 229 776 q 177 799 196 776 q 158 856 158 822 q 177 910 158 888 q 229 933 196 933 q 282 910 265 933 q 299 856 299 888 q 282 799 299 822 q 229 776 265 776 m 493 776 q 441 799 460 776 q 422 856 422 822 q 441 910 422 888 q 493 933 460 933 q 546 910 529 933 q 563 856 563 888 q 546 799 563 822 q 493 776 529 776 z "},"ǘ":{"ha":793,"x_min":14,"x_max":779,"o":"m 328 -15 q 186 32 236 -15 q 136 164 136 79 l 136 461 q 112 548 136 522 q 28 574 88 574 l 14 574 l 14 606 q 125 608 71 604 q 233 622 179 613 l 233 169 q 267 66 233 103 q 363 29 301 29 q 481 71 426 29 q 567 185 536 113 l 600 178 q 571 120 586 144 q 538 76 556 96 q 328 -15 457 -15 m 567 -12 l 567 461 q 542 548 567 522 q 458 574 518 574 l 444 574 l 444 606 q 556 608 501 604 q 664 622 610 613 l 664 154 q 689 58 664 85 q 779 32 714 32 l 779 0 q 691 -1 726 0 q 627 -4 656 -1 q 567 -12 599 -7 m 229 776 q 177 799 196 776 q 158 856 158 822 q 177 910 158 888 q 229 933 196 933 q 282 910 265 933 q 299 856 299 888 q 282 799 299 822 q 229 776 265 776 m 493 776 q 441 799 460 776 q 422 856 422 822 q 441 910 422 888 q 493 933 460 933 q 546 910 529 933 q 563 856 563 888 q 546 799 563 822 q 493 776 529 776 m 310 1056 l 364 1261 q 391 1322 375 1306 q 424 1339 407 1339 q 453 1326 440 1339 q 467 1289 467 1314 q 460 1255 467 1272 q 443 1221 454 1238 l 340 1056 l 310 1056 z "},"ǚ":{"ha":793,"x_min":14,"x_max":779,"o":"m 328 -15 q 186 32 236 -15 q 136 164 136 79 l 136 461 q 112 548 136 522 q 28 574 88 574 l 14 574 l 14 606 q 125 608 71 604 q 233 622 179 613 l 233 169 q 267 66 233 103 q 363 29 301 29 q 481 71 426 29 q 567 185 536 113 l 600 178 q 571 120 586 144 q 538 76 556 96 q 328 -15 457 -15 m 567 -12 l 567 461 q 542 548 567 522 q 458 574 518 574 l 444 574 l 444 606 q 556 608 501 604 q 664 622 610 613 l 664 154 q 689 58 664 85 q 779 32 714 32 l 779 0 q 691 -1 726 0 q 627 -4 656 -1 q 567 -12 599 -7 m 229 776 q 177 799 196 776 q 158 856 158 822 q 177 910 158 888 q 229 933 196 933 q 282 910 265 933 q 299 856 299 888 q 282 799 299 822 q 229 776 265 776 m 493 776 q 441 799 460 776 q 422 856 422 822 q 441 910 422 888 q 493 933 460 933 q 546 910 529 933 q 563 856 563 888 q 546 799 563 822 q 493 776 529 776 m 346 1056 l 215 1319 l 249 1319 l 357 1183 l 365 1183 l 474 1319 l 507 1319 l 376 1056 l 346 1056 z "},"ǜ":{"ha":793,"x_min":14,"x_max":779,"o":"m 328 -15 q 186 32 236 -15 q 136 164 136 79 l 136 461 q 112 548 136 522 q 28 574 88 574 l 14 574 l 14 606 q 125 608 71 604 q 233 622 179 613 l 233 169 q 267 66 233 103 q 363 29 301 29 q 481 71 426 29 q 567 185 536 113 l 600 178 q 571 120 586 144 q 538 76 556 96 q 328 -15 457 -15 m 567 -12 l 567 461 q 542 548 567 522 q 458 574 518 574 l 444 574 l 444 606 q 556 608 501 604 q 664 622 610 613 l 664 154 q 689 58 664 85 q 779 32 714 32 l 779 0 q 691 -1 726 0 q 627 -4 656 -1 q 567 -12 599 -7 m 229 776 q 177 799 196 776 q 158 856 158 822 q 177 910 158 888 q 229 933 196 933 q 282 910 265 933 q 299 856 299 888 q 282 799 299 822 q 229 776 265 776 m 493 776 q 441 799 460 776 q 422 856 422 822 q 441 910 422 888 q 493 933 460 933 q 546 910 529 933 q 563 856 563 888 q 546 799 563 822 q 493 776 529 776 m 368 1056 l 265 1221 q 249 1255 256 1238 q 242 1289 242 1272 q 255 1326 242 1314 q 285 1339 268 1339 q 317 1322 301 1339 q 344 1261 333 1306 l 399 1056 l 368 1056 z "},"ǖ":{"ha":793,"x_min":14,"x_max":779,"o":"m 328 -15 q 186 32 236 -15 q 136 164 136 79 l 136 461 q 112 548 136 522 q 28 574 88 574 l 14 574 l 14 606 q 125 608 71 604 q 233 622 179 613 l 233 169 q 267 66 233 103 q 363 29 301 29 q 481 71 426 29 q 567 185 536 113 l 600 178 q 571 120 586 144 q 538 76 556 96 q 328 -15 457 -15 m 567 -12 l 567 461 q 542 548 567 522 q 458 574 518 574 l 444 574 l 444 606 q 556 608 501 604 q 664 622 610 613 l 664 154 q 689 58 664 85 q 779 32 714 32 l 779 0 q 691 -1 726 0 q 627 -4 656 -1 q 567 -12 599 -7 m 229 776 q 177 799 196 776 q 158 856 158 822 q 177 910 158 888 q 229 933 196 933 q 282 910 265 933 q 299 856 299 888 q 282 799 299 822 q 229 776 265 776 m 493 776 q 441 799 460 776 q 422 856 422 822 q 441 910 422 888 q 493 933 460 933 q 546 910 529 933 q 563 856 563 888 q 546 799 563 822 q 493 776 529 776 m 203 1132 l 203 1188 l 518 1188 l 518 1132 l 203 1132 z "},"ù":{"ha":793,"x_min":14,"x_max":779,"o":"m 328 -15 q 186 32 236 -15 q 136 164 136 79 l 136 461 q 112 548 136 522 q 28 574 88 574 l 14 574 l 14 606 q 125 608 71 604 q 233 622 179 613 l 233 169 q 267 66 233 103 q 363 29 301 29 q 481 71 426 29 q 567 185 536 113 l 600 178 q 571 120 586 144 q 538 76 556 96 q 328 -15 457 -15 m 567 -12 l 567 461 q 542 548 567 522 q 458 574 518 574 l 444 574 l 444 606 q 556 608 501 604 q 664 622 610 613 l 664 154 q 689 58 664 85 q 779 32 714 32 l 779 0 q 691 -1 726 0 q 627 -4 656 -1 q 567 -12 599 -7 m 368 722 l 265 888 q 249 922 256 904 q 242 956 242 939 q 255 993 242 981 q 285 1006 268 1006 q 317 989 301 1006 q 344 928 333 972 l 399 722 l 368 722 z "},"ű":{"ha":793,"x_min":14,"x_max":779,"o":"m 328 -15 q 186 32 236 -15 q 136 164 136 79 l 136 461 q 112 548 136 522 q 28 574 88 574 l 14 574 l 14 606 q 125 608 71 604 q 233 622 179 613 l 233 169 q 267 66 233 103 q 363 29 301 29 q 481 71 426 29 q 567 185 536 113 l 600 178 q 571 120 586 144 q 538 76 556 96 q 328 -15 457 -15 m 567 -12 l 567 461 q 542 548 567 522 q 458 574 518 574 l 444 574 l 444 606 q 556 608 501 604 q 664 622 610 613 l 664 154 q 689 58 664 85 q 779 32 714 32 l 779 0 q 691 -1 726 0 q 627 -4 656 -1 q 567 -12 599 -7 m 247 722 l 301 928 q 328 989 313 972 q 361 1006 344 1006 q 391 993 378 1006 q 404 956 404 981 q 398 922 404 939 q 381 888 392 904 l 278 722 l 247 722 m 428 722 l 482 928 q 509 989 493 972 q 542 1006 525 1006 q 572 993 558 1006 q 585 956 585 981 q 578 922 585 939 q 561 888 572 904 l 458 722 l 428 722 z "},"ū":{"ha":793,"x_min":14,"x_max":779,"o":"m 328 -15 q 186 32 236 -15 q 136 164 136 79 l 136 461 q 112 548 136 522 q 28 574 88 574 l 14 574 l 14 606 q 125 608 71 604 q 233 622 179 613 l 233 169 q 267 66 233 103 q 363 29 301 29 q 481 71 426 29 q 567 185 536 113 l 600 178 q 571 120 586 144 q 538 76 556 96 q 328 -15 457 -15 m 567 -12 l 567 461 q 542 548 567 522 q 458 574 518 574 l 444 574 l 444 606 q 556 608 501 604 q 664 622 610 613 l 664 154 q 689 58 664 85 q 779 32 714 32 l 779 0 q 691 -1 726 0 q 627 -4 656 -1 q 567 -12 599 -7 m 203 799 l 203 854 l 518 854 l 518 799 l 203 799 z "},"ų":{"ha":793,"x_min":14,"x_max":779,"o":"m 588 -394 q 475 -356 517 -394 q 433 -251 433 -317 q 447 -183 433 -217 q 499 -99 461 -149 q 606 29 536 -50 l 567 -28 l 567 461 q 542 548 567 522 q 458 574 518 574 l 444 574 l 444 606 q 560 608 506 604 q 664 622 614 613 l 664 154 q 689 58 664 85 q 779 32 714 32 l 779 0 q 638 -26 699 0 q 542 -100 576 -53 q 507 -210 507 -147 q 533 -289 507 -260 q 606 -318 560 -318 q 738 -222 692 -318 l 761 -239 q 698 -355 742 -315 q 588 -394 654 -394 m 328 -15 q 186 32 236 -15 q 136 164 136 79 l 136 461 q 112 548 136 522 q 28 574 88 574 l 14 574 l 14 606 q 129 608 75 604 q 233 622 183 613 l 233 169 q 267 66 233 103 q 363 29 301 29 q 488 76 431 29 q 575 204 544 124 l 578 131 q 555 99 564 111 q 538 76 546 86 q 328 -15 457 -15 z "},"ů":{"ha":793,"x_min":14,"x_max":779,"o":"m 328 -15 q 186 32 236 -15 q 136 164 136 79 l 136 461 q 112 548 136 522 q 28 574 88 574 l 14 574 l 14 606 q 125 608 71 604 q 233 622 179 613 l 233 169 q 267 66 233 103 q 363 29 301 29 q 481 71 426 29 q 567 185 536 113 l 600 178 q 571 120 586 144 q 538 76 556 96 q 328 -15 457 -15 m 567 -12 l 567 461 q 542 548 567 522 q 458 574 518 574 l 444 574 l 444 606 q 556 608 501 604 q 664 622 610 613 l 664 154 q 689 58 664 85 q 779 32 714 32 l 779 0 q 691 -1 726 0 q 627 -4 656 -1 q 567 -12 599 -7 m 363 736 q 276 771 308 736 q 243 854 243 806 q 274 935 243 899 q 361 972 304 972 q 428 953 403 972 q 466 908 454 935 q 478 854 478 881 q 460 788 478 814 q 417 749 443 761 q 363 736 390 736 m 363 779 q 410 798 389 779 q 432 854 432 817 q 410 910 432 890 q 361 929 389 929 q 313 912 338 929 q 289 854 289 894 q 311 799 289 819 q 363 779 333 779 z "},"ũ":{"ha":793,"x_min":14,"x_max":779,"o":"m 328 -15 q 186 32 236 -15 q 136 164 136 79 l 136 461 q 112 548 136 522 q 28 574 88 574 l 14 574 l 14 606 q 125 608 71 604 q 233 622 179 613 l 233 169 q 267 66 233 103 q 363 29 301 29 q 481 71 426 29 q 567 185 536 113 l 600 178 q 571 120 586 144 q 538 76 556 96 q 328 -15 457 -15 m 567 -12 l 567 461 q 542 548 567 522 q 458 574 518 574 l 444 574 l 444 606 q 556 608 501 604 q 664 622 610 613 l 664 154 q 689 58 664 85 q 779 32 714 32 l 779 0 q 691 -1 726 0 q 627 -4 656 -1 q 567 -12 599 -7 m 467 774 q 415 786 440 774 q 372 808 390 799 l 336 831 q 291 856 311 846 q 251 867 271 867 q 199 840 221 867 q 169 789 176 814 l 143 789 q 156 844 143 810 q 194 906 168 878 q 263 933 221 933 q 315 919 289 933 q 356 897 342 906 l 407 867 q 439 851 418 861 q 478 840 460 840 q 524 861 506 840 q 553 911 543 882 l 579 911 q 540 811 572 849 q 467 774 508 774 z "},"v":{"ha":704,"x_min":-18,"x_max":704,"o":"m 318 0 l 92 500 q 57 552 76 536 q 7 571 38 568 l -18 574 l -18 606 l 125 601 l 267 606 l 267 574 l 244 571 q 192 546 203 565 q 200 486 182 526 l 393 60 l 358 60 l 538 481 q 546 545 557 525 q 486 571 535 565 l 463 574 l 463 606 l 588 601 l 704 606 l 704 574 l 672 569 q 616 544 638 565 q 571 467 594 522 l 371 0 l 318 0 z "},"w":{"ha":1067,"x_min":-18,"x_max":1067,"o":"m 264 0 l 93 471 q 52 544 75 519 q -3 572 29 569 l -18 574 l -18 606 l 129 601 l 265 606 l 265 574 l 251 572 q 189 545 204 568 q 189 481 174 522 l 339 65 l 306 67 l 478 456 q 494 519 494 493 q 431 574 494 574 l 394 574 l 394 606 l 433 606 q 529 542 513 606 l 515 542 q 624 606 515 606 l 672 606 l 672 574 l 651 572 q 608 546 618 571 q 615 478 599 521 l 775 68 l 743 68 l 904 475 q 910 547 922 528 q 849 571 899 565 l 826 574 l 826 606 l 957 601 l 1067 606 l 1067 574 l 1044 571 q 984 544 1007 565 q 940 471 961 522 l 754 0 l 701 0 l 513 485 l 529 485 l 317 0 l 264 0 z "},"ẃ":{"ha":1067,"x_min":-18,"x_max":1067,"o":"m 264 0 l 93 471 q 52 544 75 519 q -3 572 29 569 l -18 574 l -18 606 l 129 601 l 265 606 l 265 574 l 251 572 q 189 545 204 568 q 189 481 174 522 l 339 65 l 306 67 l 478 456 q 494 519 494 493 q 431 574 494 574 l 394 574 l 394 606 l 433 606 q 529 542 513 606 l 515 542 q 624 606 515 606 l 672 606 l 672 574 l 651 572 q 608 546 618 571 q 615 478 599 521 l 775 68 l 743 68 l 904 475 q 910 547 922 528 q 849 571 899 565 l 826 574 l 826 606 l 957 601 l 1067 606 l 1067 574 l 1044 571 q 984 544 1007 565 q 940 471 961 522 l 754 0 l 701 0 l 513 485 l 529 485 l 317 0 l 264 0 m 474 722 l 528 928 q 555 989 539 972 q 588 1006 571 1006 q 617 993 604 1006 q 631 956 631 981 q 624 922 631 939 q 607 888 618 904 l 504 722 l 474 722 z "},"ŵ":{"ha":1067,"x_min":-18,"x_max":1067,"o":"m 264 0 l 93 471 q 52 544 75 519 q -3 572 29 569 l -18 574 l -18 606 l 129 601 l 265 606 l 265 574 l 251 572 q 189 545 204 568 q 189 481 174 522 l 339 65 l 306 67 l 478 456 q 494 519 494 493 q 431 574 494 574 l 394 574 l 394 606 l 433 606 q 529 542 513 606 l 515 542 q 624 606 515 606 l 672 606 l 672 574 l 651 572 q 608 546 618 571 q 615 478 599 521 l 775 68 l 743 68 l 904 475 q 910 547 922 528 q 849 571 899 565 l 826 574 l 826 606 l 957 601 l 1067 606 l 1067 574 l 1044 571 q 984 544 1007 565 q 940 471 961 522 l 754 0 l 701 0 l 513 485 l 529 485 l 317 0 l 264 0 m 379 722 l 510 986 l 540 986 l 671 722 l 638 722 l 529 858 l 521 858 l 413 722 l 379 722 z "},"ẅ":{"ha":1067,"x_min":-18,"x_max":1067,"o":"m 264 0 l 93 471 q 52 544 75 519 q -3 572 29 569 l -18 574 l -18 606 l 129 601 l 265 606 l 265 574 l 251 572 q 189 545 204 568 q 189 481 174 522 l 339 65 l 306 67 l 478 456 q 494 519 494 493 q 431 574 494 574 l 394 574 l 394 606 l 433 606 q 529 542 513 606 l 515 542 q 624 606 515 606 l 672 606 l 672 574 l 651 572 q 608 546 618 571 q 615 478 599 521 l 775 68 l 743 68 l 904 475 q 910 547 922 528 q 849 571 899 565 l 826 574 l 826 606 l 957 601 l 1067 606 l 1067 574 l 1044 571 q 984 544 1007 565 q 940 471 961 522 l 754 0 l 701 0 l 513 485 l 529 485 l 317 0 l 264 0 m 393 776 q 341 799 360 776 q 322 856 322 822 q 341 910 322 888 q 393 933 360 933 q 446 910 429 933 q 463 856 463 888 q 446 799 463 822 q 393 776 429 776 m 657 776 q 605 799 624 776 q 586 856 586 822 q 605 910 586 888 q 657 933 624 933 q 710 910 693 933 q 726 856 726 888 q 710 799 726 822 q 657 776 693 776 z "},"ẁ":{"ha":1067,"x_min":-18,"x_max":1067,"o":"m 264 0 l 93 471 q 52 544 75 519 q -3 572 29 569 l -18 574 l -18 606 l 129 601 l 265 606 l 265 574 l 251 572 q 189 545 204 568 q 189 481 174 522 l 339 65 l 306 67 l 478 456 q 494 519 494 493 q 431 574 494 574 l 394 574 l 394 606 l 433 606 q 529 542 513 606 l 515 542 q 624 606 515 606 l 672 606 l 672 574 l 651 572 q 608 546 618 571 q 615 478 599 521 l 775 68 l 743 68 l 904 475 q 910 547 922 528 q 849 571 899 565 l 826 574 l 826 606 l 957 601 l 1067 606 l 1067 574 l 1044 571 q 984 544 1007 565 q 940 471 961 522 l 754 0 l 701 0 l 513 485 l 529 485 l 317 0 l 264 0 m 532 722 l 429 888 q 413 922 419 904 q 406 956 406 939 q 419 993 406 981 q 449 1006 432 1006 q 481 989 465 1006 q 508 928 497 972 l 563 722 l 532 722 z "},"x":{"ha":729,"x_min":0,"x_max":736,"o":"m 426 -3 l 426 29 l 449 32 q 500 68 500 39 q 485 101 500 85 l 124 499 q 66 555 86 540 q 18 572 46 569 l 6 574 l 6 606 l 161 601 l 317 606 l 317 574 l 294 569 q 242 526 242 558 q 261 486 242 508 l 576 139 q 658 61 625 86 q 721 31 690 36 l 736 28 l 736 -3 l 599 0 l 426 -3 m 0 -4 l 0 28 l 18 31 q 78 49 50 36 q 136 85 107 61 q 197 146 165 110 l 324 289 l 346 265 l 217 117 q 194 72 194 90 q 243 32 194 39 l 265 29 l 265 -4 l 135 0 l 0 -4 m 404 318 l 382 340 l 511 486 q 526 521 526 504 q 461 572 526 561 l 453 574 l 453 606 l 614 601 l 719 606 l 719 574 l 704 572 q 618 541 660 568 q 526 457 576 514 l 404 318 z "},"y":{"ha":726,"x_min":-42,"x_max":726,"o":"m 58 -408 q -14 -388 14 -408 q -42 -336 -42 -368 q -21 -289 -42 -308 q 31 -269 0 -269 q 54 -274 44 -269 q 81 -289 64 -278 q 109 -306 97 -301 q 132 -311 121 -311 q 190 -287 164 -311 q 240 -211 217 -262 l 557 471 q 569 543 581 521 q 504 571 557 565 l 482 574 l 482 606 l 615 601 l 726 606 l 726 574 l 706 571 q 641 542 665 565 q 589 458 617 519 l 275 -226 q 179 -362 233 -317 q 58 -408 125 -408 m 342 -36 l 101 492 q 65 549 83 532 q 19 569 47 565 l -12 574 l -12 606 l 132 601 l 272 606 l 272 574 l 253 571 q 198 544 207 565 q 210 478 189 524 l 394 72 l 342 -36 z "},"ý":{"ha":726,"x_min":-42,"x_max":726,"o":"m 58 -408 q -14 -388 14 -408 q -42 -336 -42 -368 q -21 -289 -42 -308 q 31 -269 0 -269 q 54 -274 44 -269 q 81 -289 64 -278 q 109 -306 97 -301 q 132 -311 121 -311 q 190 -287 164 -311 q 240 -211 217 -262 l 557 471 q 569 543 581 521 q 504 571 557 565 l 482 574 l 482 606 l 615 601 l 726 606 l 726 574 l 706 571 q 641 542 665 565 q 589 458 617 519 l 275 -226 q 179 -362 233 -317 q 58 -408 125 -408 m 342 -36 l 101 492 q 65 549 83 532 q 19 569 47 565 l -12 574 l -12 606 l 132 601 l 272 606 l 272 574 l 253 571 q 198 544 207 565 q 210 478 189 524 l 394 72 l 342 -36 m 325 722 l 379 928 q 406 989 390 972 q 439 1006 422 1006 q 469 993 456 1006 q 482 956 482 981 q 476 922 482 939 q 458 888 469 904 l 356 722 l 325 722 z "},"ŷ":{"ha":726,"x_min":-42,"x_max":726,"o":"m 58 -408 q -14 -388 14 -408 q -42 -336 -42 -368 q -21 -289 -42 -308 q 31 -269 0 -269 q 54 -274 44 -269 q 81 -289 64 -278 q 109 -306 97 -301 q 132 -311 121 -311 q 190 -287 164 -311 q 240 -211 217 -262 l 557 471 q 569 543 581 521 q 504 571 557 565 l 482 574 l 482 606 l 615 601 l 726 606 l 726 574 l 706 571 q 641 542 665 565 q 589 458 617 519 l 275 -226 q 179 -362 233 -317 q 58 -408 125 -408 m 342 -36 l 101 492 q 65 549 83 532 q 19 569 47 565 l -12 574 l -12 606 l 132 601 l 272 606 l 272 574 l 253 571 q 198 544 207 565 q 210 478 189 524 l 394 72 l 342 -36 m 231 722 l 361 986 l 392 986 l 522 722 l 489 722 l 381 858 l 372 858 l 264 722 l 231 722 z "},"ÿ":{"ha":726,"x_min":-42,"x_max":726,"o":"m 58 -408 q -14 -388 14 -408 q -42 -336 -42 -368 q -21 -289 -42 -308 q 31 -269 0 -269 q 54 -274 44 -269 q 81 -289 64 -278 q 109 -306 97 -301 q 132 -311 121 -311 q 190 -287 164 -311 q 240 -211 217 -262 l 557 471 q 569 543 581 521 q 504 571 557 565 l 482 574 l 482 606 l 615 601 l 726 606 l 726 574 l 706 571 q 641 542 665 565 q 589 458 617 519 l 275 -226 q 179 -362 233 -317 q 58 -408 125 -408 m 342 -36 l 101 492 q 65 549 83 532 q 19 569 47 565 l -12 574 l -12 606 l 132 601 l 272 606 l 272 574 l 253 571 q 198 544 207 565 q 210 478 189 524 l 394 72 l 342 -36 m 244 776 q 192 799 211 776 q 174 856 174 822 q 192 910 174 888 q 244 933 211 933 q 297 910 281 933 q 314 856 314 888 q 297 799 314 822 q 244 776 281 776 m 508 776 q 456 799 475 776 q 438 856 438 822 q 456 910 438 888 q 508 933 475 933 q 561 910 544 933 q 578 856 578 888 q 561 799 578 822 q 508 776 544 776 z "},"ỳ":{"ha":726,"x_min":-42,"x_max":726,"o":"m 58 -408 q -14 -388 14 -408 q -42 -336 -42 -368 q -21 -289 -42 -308 q 31 -269 0 -269 q 54 -274 44 -269 q 81 -289 64 -278 q 109 -306 97 -301 q 132 -311 121 -311 q 190 -287 164 -311 q 240 -211 217 -262 l 557 471 q 569 543 581 521 q 504 571 557 565 l 482 574 l 482 606 l 615 601 l 726 606 l 726 574 l 706 571 q 641 542 665 565 q 589 458 617 519 l 275 -226 q 179 -362 233 -317 q 58 -408 125 -408 m 342 -36 l 101 492 q 65 549 83 532 q 19 569 47 565 l -12 574 l -12 606 l 132 601 l 272 606 l 272 574 l 253 571 q 198 544 207 565 q 210 478 189 524 l 394 72 l 342 -36 m 383 722 l 281 888 q 264 922 271 904 q 257 956 257 939 q 270 993 257 981 q 300 1006 283 1006 q 333 989 317 1006 q 360 928 349 972 l 414 722 l 383 722 z "},"ỹ":{"ha":726,"x_min":-42,"x_max":726,"o":"m 58 -408 q -14 -388 14 -408 q -42 -336 -42 -368 q -21 -289 -42 -308 q 31 -269 0 -269 q 54 -274 44 -269 q 81 -289 64 -278 q 109 -306 97 -301 q 132 -311 121 -311 q 190 -287 164 -311 q 240 -211 217 -262 l 557 471 q 569 543 581 521 q 504 571 557 565 l 482 574 l 482 606 l 615 601 l 726 606 l 726 574 l 706 571 q 641 542 665 565 q 589 458 617 519 l 275 -226 q 179 -362 233 -317 q 58 -408 125 -408 m 342 -36 l 101 492 q 65 549 83 532 q 19 569 47 565 l -12 574 l -12 606 l 132 601 l 272 606 l 272 574 l 253 571 q 198 544 207 565 q 210 478 189 524 l 394 72 l 342 -36 m 482 774 q 431 786 456 774 q 388 808 406 799 l 351 831 q 306 856 326 846 q 267 867 286 867 q 214 840 236 867 q 185 789 192 814 l 158 789 q 171 844 158 810 q 210 906 183 878 q 278 933 236 933 q 331 919 304 933 q 371 897 357 906 l 422 867 q 454 851 433 861 q 493 840 475 840 q 540 861 521 840 q 568 911 558 882 l 594 911 q 556 811 588 849 q 482 774 524 774 z "},"z":{"ha":647,"x_min":49,"x_max":594,"o":"m 58 0 l 49 28 l 485 592 l 522 572 l 368 572 q 223 554 279 572 q 135 494 167 536 q 90 382 104 453 l 58 382 l 89 507 l 104 606 l 585 606 l 594 579 l 146 0 l 129 35 l 322 35 q 492 77 438 35 q 560 219 546 119 l 592 219 l 575 74 l 574 0 l 58 0 z "},"ź":{"ha":647,"x_min":49,"x_max":594,"o":"m 58 0 l 49 28 l 485 592 l 522 572 l 368 572 q 223 554 279 572 q 135 494 167 536 q 90 382 104 453 l 58 382 l 89 507 l 104 606 l 585 606 l 594 579 l 146 0 l 129 35 l 322 35 q 492 77 438 35 q 560 219 546 119 l 592 219 l 575 74 l 574 0 l 58 0 m 275 722 l 329 928 q 356 989 340 972 q 389 1006 372 1006 q 419 993 406 1006 q 432 956 432 981 q 426 922 432 939 q 408 888 419 904 l 306 722 l 275 722 z "},"ž":{"ha":647,"x_min":49,"x_max":594,"o":"m 58 0 l 49 28 l 485 592 l 522 572 l 368 572 q 223 554 279 572 q 135 494 167 536 q 90 382 104 453 l 58 382 l 89 507 l 104 606 l 585 606 l 594 579 l 146 0 l 129 35 l 322 35 q 492 77 438 35 q 560 219 546 119 l 592 219 l 575 74 l 574 0 l 58 0 m 311 722 l 181 986 l 214 986 l 322 850 l 331 850 l 439 986 l 472 986 l 342 722 l 311 722 z "},"ż":{"ha":647,"x_min":49,"x_max":594,"o":"m 58 0 l 49 28 l 485 592 l 522 572 l 368 572 q 223 554 279 572 q 135 494 167 536 q 90 382 104 453 l 58 382 l 89 507 l 104 606 l 585 606 l 594 579 l 146 0 l 129 35 l 322 35 q 492 77 438 35 q 560 219 546 119 l 592 219 l 575 74 l 574 0 l 58 0 m 326 769 q 269 794 290 769 q 249 854 249 819 q 269 915 249 890 q 326 939 290 939 q 385 915 367 939 q 404 854 404 890 q 385 794 404 819 q 326 769 367 769 z "},"ﬁ":{"ha":788,"x_min":35,"x_max":774,"o":"m 46 -4 l 46 28 l 68 31 q 130 44 108 36 q 160 78 151 51 q 168 168 168 106 l 168 571 l 35 571 l 35 606 l 168 606 l 168 700 q 190 849 168 779 q 269 962 213 918 q 432 1006 326 1006 q 534 988 483 1006 q 619 935 585 971 q 653 843 653 899 q 635 787 653 808 q 585 765 617 765 q 542 781 560 765 q 524 821 524 796 q 531 847 524 838 q 544 863 538 856 q 550 883 550 871 q 516 943 550 915 q 432 971 482 971 q 323 931 358 971 q 276 826 288 890 q 265 693 265 763 l 265 606 l 483 606 l 483 571 l 265 571 l 265 168 q 272 78 265 106 q 296 44 278 51 q 346 31 314 36 l 368 28 l 368 -4 l 217 0 l 46 -4 m 432 -4 l 432 28 l 454 31 q 516 44 494 36 q 546 78 538 51 q 554 168 554 106 l 554 521 l 651 521 l 651 168 q 660 78 651 106 q 690 44 668 51 q 751 31 711 36 l 774 28 l 774 -4 l 603 0 l 432 -4 m 554 461 q 540 531 554 508 q 501 563 526 554 q 442 571 476 571 l 432 571 l 432 606 q 542 609 489 606 q 651 622 594 613 l 651 482 l 554 461 z "},"ﬂ":{"ha":796,"x_min":35,"x_max":775,"o":"m 35 -4 l 35 28 l 57 31 q 124 47 103 36 q 151 85 144 57 q 157 168 157 113 l 157 765 q 224 941 157 876 q 404 1006 290 1006 q 500 990 457 1006 q 578 944 543 975 l 543 953 l 639 1006 l 653 1006 l 653 168 q 659 85 653 113 q 687 47 665 57 q 753 31 708 36 l 775 28 l 775 -4 l 604 0 l 433 -4 l 433 28 l 468 32 q 523 47 504 36 q 549 84 542 58 q 556 157 556 110 l 556 814 q 517 930 556 889 q 410 971 479 971 q 297 925 339 971 q 254 801 254 879 l 254 168 q 260 86 254 114 q 287 47 267 58 q 346 31 307 36 l 368 28 l 368 -4 l 206 0 l 35 -4 m 38 571 l 38 606 l 165 606 l 165 571 l 38 571 m 246 571 l 246 606 l 397 606 l 397 571 l 246 571 z "},"ª":{"ha":583,"x_min":56,"x_max":583,"o":"m 478 482 q 402 512 426 482 q 378 606 378 542 l 378 858 q 353 948 378 922 q 268 974 328 974 q 201 963 225 974 q 178 935 178 953 q 180 924 178 929 q 183 913 182 919 q 190 881 190 890 q 174 847 190 861 q 132 833 157 833 q 93 849 108 833 q 78 890 78 865 q 105 949 78 924 q 181 990 132 975 q 290 1004 229 1004 q 428 962 385 1004 q 472 826 472 919 l 472 619 q 481 547 472 568 q 513 526 490 526 q 560 563 546 526 l 583 553 q 543 498 571 514 q 478 482 515 482 m 192 482 q 93 510 131 482 q 56 583 56 538 q 94 667 56 628 q 211 746 133 707 q 293 784 247 765 q 389 819 339 803 l 390 794 q 222 702 283 754 q 160 596 160 650 q 233 529 160 529 q 326 564 281 529 q 389 650 372 599 l 396 607 q 311 515 365 547 q 192 482 257 482 z "},"º":{"ha":651,"x_min":50,"x_max":601,"o":"m 326 482 q 187 517 250 482 q 87 610 124 551 q 50 742 50 669 q 87 875 50 815 q 186 969 124 935 q 326 1004 249 1004 q 466 969 404 1004 q 565 875 528 935 q 601 742 601 815 q 565 610 601 669 q 465 517 528 551 q 326 482 403 482 m 326 513 q 452 572 408 513 q 496 742 496 632 q 452 914 496 854 q 326 974 408 974 q 201 913 244 974 q 157 742 157 853 q 201 572 157 632 q 326 513 246 513 z "},"⁄":{"ha":293,"x_min":-222,"x_max":517,"o":"m -222 0 l 460 1003 l 517 1003 l -165 0 l -222 0 z "},"½":{"ha":1182,"x_min":47,"x_max":1114,"o":"m 49 421 l 49 446 l 74 447 q 129 463 114 450 q 144 524 144 475 l 144 850 q 129 906 144 894 q 81 922 114 918 l 47 926 l 47 956 q 138 967 103 958 q 211 994 172 976 l 243 994 l 243 524 q 258 463 243 475 q 313 447 272 450 l 338 446 l 338 421 l 193 424 l 49 421 m 147 0 l 829 1003 l 886 1003 l 204 0 l 147 0 m 724 0 l 724 29 l 886 186 q 978 299 950 247 q 1006 407 1006 350 q 976 502 1006 468 q 892 536 946 536 q 819 517 850 536 q 789 468 789 497 q 817 424 789 447 q 841 400 836 408 q 846 381 846 392 q 829 346 846 360 q 789 332 813 332 q 739 355 758 332 q 719 414 719 378 q 747 494 719 458 q 821 552 775 531 q 922 574 867 574 q 1059 529 1006 574 q 1113 415 1113 485 q 1099 353 1113 383 q 1049 285 1085 322 q 946 194 1013 249 l 792 69 l 788 90 l 983 93 q 1044 98 1025 94 q 1072 112 1064 101 q 1083 144 1079 122 l 1086 157 l 1114 157 l 1111 24 l 1111 0 l 724 0 z "},"¼":{"ha":1129,"x_min":47,"x_max":1074,"o":"m 49 421 l 49 446 l 74 447 q 129 463 114 450 q 144 524 144 475 l 144 850 q 129 906 144 894 q 81 922 114 918 l 47 926 l 47 956 q 138 967 103 958 q 211 994 172 976 l 243 994 l 243 524 q 258 463 243 475 q 313 447 272 450 l 338 446 l 338 421 l 193 424 l 49 421 m 147 0 l 829 1003 l 886 1003 l 204 0 l 147 0 m 786 -3 l 786 22 l 819 24 q 876 40 864 26 q 889 100 889 53 l 889 131 l 640 131 l 640 156 l 676 206 q 790 381 736 288 q 883 563 843 475 l 1028 563 l 1028 543 l 682 161 l 889 161 l 889 294 q 926 306 906 296 q 958 333 947 317 l 986 333 l 986 161 l 1068 161 l 1068 131 l 986 131 l 986 100 q 999 39 986 51 q 1050 24 1013 26 l 1074 22 l 1074 -3 l 938 0 l 786 -3 z "},"¾":{"ha":1283,"x_min":54,"x_max":1228,"o":"m 233 415 q 104 447 154 415 q 54 528 54 479 q 70 574 54 556 q 113 592 86 592 q 145 581 132 592 q 158 550 158 569 q 150 522 158 540 q 144 507 146 513 q 142 494 142 501 q 163 458 142 472 q 218 443 185 443 q 321 487 282 443 q 360 601 360 531 q 250 714 360 714 q 213 711 232 714 q 175 701 194 708 l 176 733 q 296 792 258 760 q 333 872 333 824 q 307 940 333 915 q 233 964 281 964 q 170 948 196 964 q 144 908 144 932 q 148 894 144 901 q 161 875 151 886 q 181 839 181 856 q 167 809 181 821 q 133 797 154 797 q 88 817 106 797 q 69 867 69 836 q 126 960 69 922 q 267 997 183 997 q 390 965 344 997 q 436 879 436 932 q 413 810 436 842 q 344 756 389 778 q 233 728 299 735 l 228 736 q 243 738 235 738 q 259 740 251 739 q 274 740 267 740 q 288 740 282 740 q 417 699 369 740 q 464 590 464 658 q 435 499 464 539 q 353 438 406 460 q 233 415 301 415 m 301 0 l 983 1003 l 1040 1003 l 358 0 l 301 0 m 940 -3 l 940 22 l 974 24 q 1031 40 1018 26 q 1043 100 1043 53 l 1043 131 l 794 131 l 794 156 l 831 206 q 944 381 890 288 q 1038 563 997 475 l 1182 563 l 1182 543 l 836 161 l 1043 161 l 1043 294 q 1081 306 1060 296 q 1113 333 1101 317 l 1140 333 l 1140 161 l 1222 161 l 1222 131 l 1140 131 l 1140 100 q 1153 39 1140 51 q 1204 24 1167 26 l 1228 22 l 1228 -3 l 1092 0 l 940 -3 z "},"₀":{"ha":583,"x_min":47,"x_max":536,"o":"m 292 -290 q 163 -254 218 -290 q 77 -153 107 -218 q 47 0 47 -87 q 77 154 47 89 q 163 256 107 219 q 292 292 218 292 q 422 256 367 292 q 506 153 476 219 q 536 0 536 88 q 506 -152 536 -86 q 422 -254 476 -218 q 292 -290 367 -290 m 292 -260 q 374 -227 346 -260 q 414 -135 403 -194 q 425 0 425 -76 q 414 137 425 78 q 374 228 403 196 q 292 261 346 261 q 210 228 239 261 q 169 137 181 196 q 158 0 158 78 q 169 -136 158 -78 q 210 -227 181 -194 q 292 -260 239 -260 z "},"₁":{"ha":369,"x_min":47,"x_max":338,"o":"m 49 -285 l 49 -260 l 74 -258 q 129 -243 114 -256 q 144 -182 144 -231 l 144 144 q 129 201 144 189 q 81 217 114 213 l 47 221 l 47 250 q 138 262 103 253 q 211 289 172 271 l 243 289 l 243 -182 q 258 -243 243 -231 q 313 -258 272 -256 l 338 -260 l 338 -285 l 193 -282 l 49 -285 z "},"₂":{"ha":519,"x_min":57,"x_max":451,"o":"m 61 -282 l 61 -253 l 224 -96 q 315 17 288 -35 q 343 125 343 68 q 313 220 343 186 q 229 254 283 254 q 157 235 188 254 q 126 186 126 215 q 154 142 126 165 q 178 118 174 126 q 183 99 183 110 q 167 64 183 78 q 126 50 150 50 q 76 73 96 50 q 57 132 57 96 q 85 213 57 176 q 158 270 113 249 q 260 292 204 292 q 397 247 343 292 q 450 133 450 203 q 436 71 450 101 q 386 3 422 40 q 283 -87 350 -33 l 129 -212 l 125 -192 l 321 -189 q 382 -184 363 -187 q 409 -170 401 -181 q 421 -137 417 -160 l 424 -125 l 451 -125 l 449 -258 l 449 -282 l 61 -282 z "},"₃":{"ha":524,"x_min":54,"x_max":464,"o":"m 233 -290 q 104 -258 154 -290 q 54 -178 54 -226 q 70 -132 54 -150 q 113 -114 86 -114 q 145 -125 132 -114 q 158 -156 158 -136 q 150 -183 158 -165 q 144 -199 146 -193 q 142 -211 142 -204 q 163 -248 142 -233 q 218 -262 185 -262 q 321 -219 282 -262 q 360 -104 360 -175 q 250 8 360 8 q 213 6 232 8 q 175 -4 194 3 l 176 28 q 296 86 258 54 q 333 167 333 118 q 307 234 333 210 q 233 258 281 258 q 170 242 196 258 q 144 203 144 226 q 148 188 144 196 q 161 169 151 181 q 181 133 181 150 q 167 103 181 115 q 133 92 154 92 q 88 111 106 92 q 69 161 69 131 q 126 254 69 217 q 267 292 183 292 q 390 259 344 292 q 436 174 436 226 q 413 104 436 136 q 344 51 389 72 q 233 22 299 29 l 228 31 q 243 33 235 32 q 259 34 251 33 q 274 35 267 35 q 288 35 282 35 q 417 -6 369 35 q 464 -115 464 -47 q 435 -206 464 -167 q 353 -268 406 -246 q 233 -290 301 -290 z "},"₄":{"ha":536,"x_min":47,"x_max":481,"o":"m 193 -283 l 193 -258 l 226 -257 q 283 -241 271 -254 q 296 -181 296 -228 l 296 -150 l 47 -150 l 47 -125 l 83 -75 q 197 101 143 7 q 290 282 250 194 l 435 282 l 435 263 l 89 -119 l 296 -119 l 296 14 q 333 26 313 15 q 365 53 354 36 l 393 53 l 393 -119 l 475 -119 l 475 -150 l 393 -150 l 393 -181 q 406 -242 393 -229 q 457 -257 419 -254 l 481 -258 l 481 -283 l 344 -281 l 193 -283 z "}}}
